<?xml version="1.0" encoding="utf-8"?>
<!-- Generator: Adobe Illustrator 23.0.3, SVG Export Plug-In . SVG Version: 6.00 Build 0)  -->
<svg version="1.1" xmlns="http://www.w3.org/2000/svg" xmlns:xlink="http://www.w3.org/1999/xlink" x="0px" y="0px"
	 viewBox="0 0 590 350" style="enable-background:new 0 0 590 350;" xml:space="preserve">
<style type="text/css">
	.st0{fill:#0031E2;}
	.st1{fill:#FFFFFF;}
	.st2{fill:#1BC263;}
	.st3{fill:#CCD6F9;}
	.st4{fill:#99ADF3;}
</style>
<g id="Layer_2">
</g>
<g id="Layer_11">
</g>
<g id="Layer_10">
</g>
<g id="Layer_7">
</g>
<g id="Layer_6">
</g>
<g id="Layer_8">
</g>
<g id="Layer_1">
	
		<image style="overflow:visible;" width="338" height="224" xlink:href="C5F7E58D.jpg"  transform="matrix(0.9999 0 0 0.9999 570 -266)">
	</image>
</g>
<g id="Layer_3">
</g>
<g id="Layer_4">
	<g>
		<path id="path3055_1_" class="st0" d="M723.6,29.7c-1.2-0.2-2.5-0.2-3.7,0.1l-52.3,11.4c-2.7,0.6-5,2.4-6.3,4.9l-23.4,47.7
			c-1.1,2.2-1.2,4.8-0.4,7.2c0.1,0.3,0.2,0.6,0.3,0.8l23,48.1c1.2,2.5,3.5,4.3,6.2,5l52.2,12.3c2.7,0.6,5.6,0,7.8-1.7l42-32.8
			c2.2-1.7,3.5-4.3,3.5-7.1l0.3-53.2c0-2.8-1.3-5.4-3.4-7.2l-41.8-33.5C726.6,30.7,725.2,30,723.6,29.7z"/>
		<path id="path3059_1_" class="st1" d="M720.1,47c-1.6-0.3-3.2,0.8-3.5,2.5c0,0,0,0.1,0,0.1c-0.1,0.2-0.1,0.5-0.2,0.7
			c-0.1,0.9-0.2,1.8-0.2,2.8c-0.1,1.8-0.4,3.5-0.9,5.2c-0.3,0.5-0.7,1-1.3,1.2l-0.3,1.2c-1.7-0.3-3.5-0.4-5.3-0.4
			c-7.4-0.1-14.7,2.1-20.9,6.2l-0.8-1c-0.6,0-1.2-0.2-1.6-0.6c-1.1-1.3-2.1-2.8-3-4.3c-0.4-0.8-0.9-1.6-1.4-2.4
			c-0.1-0.2-0.4-0.5-0.5-0.6c-0.5-0.6-1.1-1-1.8-1.2c-0.9-0.2-1.8-0.1-2.5,0.5c-1.3,1.1-1.4,3-0.3,4.3l0,0c0.1,0.2,0.3,0.4,0.5,0.6
			c0.6,0.7,1.3,1.3,2,1.9c1.3,1.2,2.5,2.5,3.5,3.9c0.2,0.6,0.3,1.2,0.2,1.8l0.7,1c-6.7,6.3-10.9,14.9-11.7,24l-1.3,0.1
			c-0.4,0.4-0.9,0.7-1.5,0.9c-1.8,0.1-3.5-0.1-5.2-0.4c-0.9-0.2-1.8-0.3-2.8-0.4l-0.8,0l-0.1,0c-1.6-0.2-3,1-3.2,2.6
			c-0.2,1.6,1,3,2.6,3.2c0.2,0,0.4,0,0.5,0l0,0l0.1,0l0.8,0.1c0.9-0.1,1.8-0.2,2.7-0.3c1.7-0.3,3.5-0.4,5.2-0.3
			c0.6,0.2,1.1,0.5,1.5,1l1.3,0.1c0.7,9.2,4.8,17.7,11.5,24.1l-0.8,1c0.1,0.5,0.1,1.1-0.1,1.6c-1.1,1.5-2.3,2.8-3.6,4
			c-0.7,0.6-1.4,1.2-2,1.9c-0.2,0.2-0.4,0.5-0.5,0.7c-1.1,1.2-1.1,3,0.1,4.1c1.2,1.1,3,1.1,4.1-0.1c0.1-0.1,0.2-0.3,0.3-0.4l0,0
			c0.2-0.2,0.4-0.4,0.5-0.6c0.5-0.8,1-1.6,1.4-2.4c1.2-1.7,2.1-3.6,3.4-4.5c0.4-0.2,0.9-0.3,1.3-0.3l0.9-1c7.6,5.2,16.8,7.4,26,6.2
			l0.3,1.2c0.6,0.2,1,0.7,1.2,1.2c0.4,1.7,0.7,3.4,0.8,5.2c0,0.9,0.1,1.9,0.2,2.8c0,0.2,0.1,0.6,0.2,0.8c0.2,1.6,1.6,2.7,3.2,2.5
			c1.6-0.2,2.7-1.6,2.5-3.2c0-0.2-0.1-0.3-0.1-0.5c-0.1-0.2-0.1-0.6-0.2-0.8c-0.3-0.9-0.6-1.8-1-2.6c-0.6-1.6-1.1-3.3-1.4-5.1
			c0-0.6,0.2-1.2,0.7-1.6c-0.1-0.4-0.2-0.8-0.2-1.2c8.8-2.8,16.2-8.7,20.9-16.6l1.1,0.5c0.5-0.3,1.1-0.4,1.7-0.2
			c1.6,0.7,3.1,1.6,4.6,2.6c0.7,0.6,1.5,1.1,2.3,1.6c0.2,0.1,0.5,0.2,0.7,0.3l0.1,0l0,0c1.4,0.8,3.2,0.4,4-1c0.8-1.4,0.4-3.2-1-4
			c-0.2-0.1-0.3-0.2-0.5-0.2c-0.2-0.1-0.5-0.3-0.8-0.4c-0.9-0.3-1.8-0.6-2.7-0.8c-1.7-0.5-3.3-1.2-4.9-2c-0.4-0.4-0.8-0.9-0.9-1.5
			l-1.1-0.6c3.3-8.6,3.3-18.1,0.1-26.7l1.2-0.7c0.1-0.6,0.4-1.1,0.9-1.5c1.6-0.8,3.2-1.5,4.9-2c0.9-0.2,1.8-0.5,2.7-0.8
			c0.2-0.1,0.5-0.2,0.7-0.4c1.5-0.5,2.3-2.2,1.8-3.7c-0.5-1.5-2.2-2.3-3.7-1.8c-0.2,0.1-0.4,0.2-0.6,0.3c-0.2,0.1-0.5,0.2-0.7,0.4
			c-0.8,0.5-1.6,1-2.3,1.5c-1.4,1-2.9,1.9-4.5,2.6c-0.6,0.1-1.2,0-1.8-0.2l-1.3,0.5c-4.7-7.9-12-13.9-20.7-16.8
			c0.1-0.4,0.2-1.1,0.2-1.3c-0.4-0.4-0.6-1-0.6-1.6c0.3-1.7,0.9-3.4,1.5-5c0.4-0.8,0.7-1.7,1-2.6c0.1-0.2,0.1-0.6,0.2-0.8
			C722.6,49.2,721.7,47.5,720.1,47L720.1,47L720.1,47z M711.4,68l-4.3,14.6l-0.1,0c-0.4,1.4-1.8,2.1-3.1,1.8
			c-0.5-0.1-0.9-0.4-1.2-0.8l0,0l-10.1-11.4c4.7-2.9,10.2-4.4,15.7-4.3C709.3,67.8,710.4,67.9,711.4,68z M718.5,69.6
			c6.2,2.3,11.4,6.5,14.9,12.1l-14,5.7l0,0c-1.3,0.6-2.8,0.1-3.4-1.2c-0.2-0.5-0.3-1.1-0.2-1.6l0,0L718.5,69.6z M686.9,76.6
			l8.7,12.5l0,0.1c0.8,1.1,0.6,2.7-0.6,3.6c-0.4,0.3-0.9,0.5-1.4,0.5l0,0L678.4,94C679.2,87.4,682.2,81.3,686.9,76.6z M736.5,88.3
			c2.1,6.3,2.1,13-0.1,19.3l-13.3-7.4l0-0.1c-1.2-0.7-1.7-2.2-1-3.5c0.2-0.4,0.6-0.8,1-1l0,0L736.5,88.3L736.5,88.3L736.5,88.3z
			 M707,92.6l4.5,1.1l1.9,4.2l-2,4.2l-4.5,1l-3.6-2.9l0.1-4.6L707,92.6z M718.6,108c0.2,0,0.4,0.1,0.6,0.1l0,0l14.1,5.9
			c-3.6,5.6-8.9,9.8-15.2,12l-2.4-15l0,0c-0.2-1.4,0.7-2.7,2.1-3C718,108,718.3,108,718.6,108L718.6,108L718.6,108z M694,102.3
			c1.4,0.3,2.2,1.7,1.8,3.1c-0.1,0.3-0.2,0.6-0.4,0.9l0,0.1l-8.8,12.3c-4.6-4.7-7.5-10.8-8.2-17.3l15.1,1l0,0
			C693.7,102.2,693.8,102.2,694,102.3L694,102.3L694,102.3z M704.9,111.1c0.9,0.2,1.7,0.9,2,1.8l0.1,0l4.1,14.6c-1,0.1-2,0.1-3,0.1
			c-5.6,0-11-1.6-15.7-4.6l10.2-11.2l0,0C703.1,111.2,704,110.9,704.9,111.1L704.9,111.1z"/>
	</g>
	<g>
		<g>
			<path class="st1" d="M492.8-73.9c-0.3-1.8-1.9-3.1-3.7-3.1c-1.8,0-3.4,1.3-3.7,3.1l-0.1,0.5l-0.5-0.1c-1.8-0.4-3.5-1.1-5-2.1
				l-0.5-0.3l0.3-0.4c1-1.5,0.9-3.5-0.4-4.8c-0.7-0.7-1.7-1.1-2.7-1.1c-0.8,0-1.5,0.2-2.1,0.7l-0.4,0.3l-0.3-0.5
				c-0.9-1.6-1.6-3.2-2.1-5l-0.1-0.5l0.5-0.1c1.8-0.3,3.1-1.9,3.1-3.7c0-1.8-1.3-3.4-3.1-3.7l-0.5-0.1l0.1-0.5
				c0.4-1.8,1.1-3.5,2.1-5l0.3-0.5l0.4,0.3c0.6,0.4,1.4,0.7,2.1,0.7c1,0,1.9-0.4,2.7-1.1c1.3-1.3,1.5-3.3,0.4-4.8l-0.3-0.4l0.5-0.3
				c1.6-0.9,3.2-1.6,5-2.1l0.5-0.1l0.1,0.5c0.3,1.8,1.9,3.1,3.7,3.1c1.8,0,3.4-1.3,3.7-3.1l0.1-0.5l0.5,0.1c1.8,0.4,3.5,1.1,5,2.1
				l0.5,0.3l-0.3,0.4c-1,1.5-0.9,3.5,0.4,4.8c0.7,0.7,1.7,1.1,2.7,1.1c0.8,0,1.5-0.2,2.1-0.7l0.4-0.3l0.3,0.5c0.9,1.6,1.6,3.2,2.1,5
				l0.1,0.5l-0.5,0.1c-1.8,0.3-3.1,1.9-3.1,3.7c0,1.8,1.3,3.4,3.1,3.7l0.5,0.1l-0.1,0.5c-0.4,1.8-1.1,3.5-2.1,5l-0.3,0.5l-0.4-0.3
				c-0.6-0.4-1.4-0.7-2.1-0.7c-1,0-1.9,0.4-2.7,1.1c-1.3,1.3-1.5,3.3-0.4,4.8l0.3,0.4l-0.5,0.3c-1.6,0.9-3.2,1.6-5,2.1l-0.5,0.1
				L492.8-73.9z"/>
			<path class="st0" d="M493.3-107.9c1.7,0.4,3.4,1.1,4.9,2c-1.2,1.7-1,4,0.5,5.4c0.8,0.8,1.9,1.2,3,1.2c0.8,0,1.7-0.3,2.4-0.8
				c0.9,1.5,1.6,3.1,2,4.9c-2,0.4-3.5,2.1-3.5,4.2c0,2.1,1.5,3.8,3.5,4.2c-0.4,1.7-1.1,3.4-2,4.9c-0.7-0.5-1.6-0.8-2.4-0.8
				c-1.1,0-2.2,0.4-3,1.2c-1.5,1.5-1.6,3.8-0.5,5.4c-1.5,0.9-3.1,1.6-4.9,2c-0.4-2-2.1-3.5-4.2-3.5c-2.1,0-3.8,1.5-4.2,3.5
				c-1.7-0.4-3.4-1.1-4.9-2c1.2-1.7,1-4-0.5-5.4c-0.8-0.8-1.9-1.2-3-1.2c-0.8,0-1.7,0.3-2.4,0.8c-0.9-1.5-1.6-3.1-2-4.9
				c2-0.4,3.5-2.1,3.5-4.2c0-2.1-1.5-3.8-3.5-4.2c0.4-1.7,1.1-3.4,2-4.9c0.7,0.5,1.6,0.8,2.4,0.8c1.1,0,2.2-0.4,3-1.2
				c1.5-1.5,1.6-3.8,0.5-5.4c1.5-0.9,3.1-1.6,4.9-2c0.4,2,2.1,3.5,4.2,3.5C491.2-104.4,492.9-106,493.3-107.9 M492.5-109.2l-0.2,1
				c-0.3,1.5-1.6,2.7-3.2,2.7c-1.6,0-2.9-1.1-3.2-2.7l-0.2-1l-1,0.3c-1.8,0.4-3.6,1.2-5.2,2.1l-0.9,0.6l0.6,0.9
				c0.9,1.3,0.7,3-0.4,4.2c-0.6,0.6-1.4,1-2.3,1c-0.7,0-1.3-0.2-1.9-0.6l-0.9-0.6l-0.6,0.9c-1,1.6-1.7,3.3-2.1,5.2l-0.3,1l1,0.2
				c1.5,0.3,2.7,1.6,2.7,3.2c0,1.6-1.1,2.9-2.7,3.2l-1,0.2l0.3,1c0.4,1.8,1.2,3.6,2.1,5.2l0.6,0.9l0.9-0.6c0.5-0.4,1.2-0.6,1.9-0.6
				c0.9,0,1.7,0.3,2.3,1c1.1,1.1,1.3,2.9,0.4,4.2l-0.6,0.9l0.9,0.6c1.6,1,3.3,1.7,5.2,2.1l1,0.3l0.2-1c0.3-1.5,1.6-2.7,3.2-2.7
				c1.6,0,2.9,1.1,3.2,2.7l0.2,1l1-0.3c1.8-0.4,3.6-1.2,5.2-2.1l0.9-0.6l-0.6-0.9c-0.9-1.3-0.7-3,0.4-4.2c0.6-0.6,1.4-1,2.3-1
				c0.7,0,1.3,0.2,1.9,0.6l0.9,0.6l0.6-0.9c1-1.6,1.7-3.3,2.1-5.2l0.3-1l-1-0.2c-1.5-0.3-2.7-1.6-2.7-3.2c0-1.6,1.1-2.9,2.7-3.2
				l1-0.2l-0.3-1c-0.4-1.8-1.2-3.6-2.1-5.2l-0.6-0.9l-0.9,0.6c-0.5,0.4-1.2,0.6-1.9,0.6c-0.9,0-1.7-0.3-2.3-1
				c-1.1-1.1-1.3-2.9-0.4-4.2l0.6-0.9l-0.9-0.6c-1.6-1-3.3-1.7-5.2-2.1L492.5-109.2L492.5-109.2z"/>
		</g>
		<g>
			<path class="st1" d="M489.1-82.7c-4.5,0-8.2-3.7-8.2-8.2c0-4.5,3.7-8.2,8.2-8.2c4.5,0,8.2,3.7,8.2,8.2
				C497.3-86.4,493.6-82.7,489.1-82.7z"/>
			<path class="st0" d="M489.1-98.7c4.3,0,7.7,3.5,7.7,7.7c0,4.3-3.5,7.7-7.7,7.7s-7.7-3.5-7.7-7.7
				C481.3-95.2,484.8-98.7,489.1-98.7 M489.1-99.7c-4.8,0-8.7,3.9-8.7,8.7c0,4.8,3.9,8.7,8.7,8.7s8.7-3.9,8.7-8.7
				C497.8-95.8,493.9-99.7,489.1-99.7L489.1-99.7z"/>
		</g>
	</g>
</g>
<g id="Layer_5">
</g>
<g id="Layer_9">
	<g>
		<polyline class="st0" points="523,345.5 427,345.5 427,346.5 523,346.5 		"/>
		<polygon class="st1" points="489.5,323.5 494.5,332.5 478.5,332.5 466.5,315.5 		"/>
		<polygon class="st0" points="489.5,323.5 489.1,323.7 493.7,332 478.8,332 467.8,316.5 489.3,324 489.5,323.5 489.1,323.7 
			489.5,323.5 489.7,323 465.2,314.5 478.2,333 495.3,333 489.8,323.1 489.7,323 		"/>
		<path class="st2" d="M535,233.2c-3.2,10.7-10.5,20.3-39.5,20.3c-43.2,0-52,0-52,0l46,70l-25,0.3c0,0-84.7-80-63.5-103.8
			c25.5-28.5,134.5,13.5,134.5,13.5"/>
		<path class="st0" d="M534.6,233.1c-1.6,5.3-4.1,10.2-9.9,13.9c-5.7,3.7-14.7,6.1-29.2,6.1c-21.6,0-34.6,0-42.2,0
			c-3.8,0-6.2,0-7.7,0c-1.5,0-2,0-2,0c-0.2,0-0.4,0.1-0.4,0.3s-0.1,0.4,0,0.5l45.5,69.2l-24.1,0.3l0,0.5l0.3-0.4
			c0,0-0.3-0.2-0.7-0.7c-3.7-3.5-20.2-19.6-35.8-38.4c-7.8-9.4-15.4-19.5-21-29c-5.6-9.5-9.2-18.4-9.2-25.5c0-3.8,1-7,3.3-9.5
			c3.1-3.5,7.6-6,13.1-7.5c5.5-1.6,11.9-2.2,18.9-2.2c20.6,0,46.1,5.8,66.5,11.7c10.2,2.9,19.1,5.8,25.4,8c3.2,1.1,5.7,2,7.4,2.6
			c1.7,0.6,2.7,1,2.7,1l0.4-0.9c0,0-15.2-5.9-35.6-11.7c-20.4-5.9-46-11.7-66.8-11.7c-7.1,0-13.6,0.7-19.1,2.3
			c-5.6,1.6-10.2,4.1-13.6,7.8c-2.5,2.8-3.6,6.3-3.6,10.2c0,7.9,4.2,17.6,10.5,27.9c18.9,30.8,56.5,66.4,56.5,66.4
			c0.1,0.1,0.2,0.1,0.3,0.1l25-0.3c0.2,0,0.3-0.1,0.4-0.3c0.1-0.2,0.1-0.4,0-0.5l-46-70l-0.4,0.3l0,0.5c0,0,8.8,0,52,0
			c14.6,0,23.7-2.4,29.7-6.3c6-3.8,8.7-9.1,10.3-14.4L534.6,233.1L534.6,233.1z"/>
		<polyline class="st0" points="301.2,49.9 379.2,118.9 379.8,118.1 301.8,49.1 		"/>
		<path class="st1" d="M493.5,327.5c0,0,9,18,4,18c-9,0-55,0-55,0s0-6,6-6c10,0,21.5,1.2,27-5c1.5-1.7,0-5,0-5L493.5,327.5z"/>
		<path class="st0" d="M493.5,327.5l-0.4,0.2c0,0,0.1,0.2,0.2,0.5c0.5,1.1,1.8,3.9,3,6.9c0.6,1.5,1.1,3.1,1.6,4.5
			c0.4,1.4,0.7,2.8,0.7,3.7c0,0.6-0.1,1.1-0.3,1.3c-0.1,0.1-0.2,0.2-0.3,0.3c-0.1,0.1-0.3,0.1-0.5,0.1c-4.5,0-18.3,0-30.9,0
			c-6.3,0-12.3,0-16.8,0c-2.2,0-4.1,0-5.3,0c-1.3,0-2,0-2,0v0.5h0.5l0-0.1c0-0.3,0.1-1.7,0.8-3c0.4-0.6,0.9-1.3,1.6-1.7
			c0.7-0.5,1.7-0.8,3-0.8c2.8,0,5.7,0.1,8.6,0.1c3.7,0,7.3-0.2,10.6-0.9c3.2-0.7,6.1-2,8.2-4.4c0.6-0.7,0.8-1.6,0.8-2.4
			c0-1.6-0.7-3.1-0.7-3.2l-0.5,0.2l0.1,0.5l18-2L493.5,327.5l-0.4,0.2L493.5,327.5l-0.1-0.5l-18.7,2.1l0.3,0.6l0,0.1
			c0.1,0.3,0.6,1.5,0.6,2.7c0,0.7-0.2,1.3-0.5,1.7c-1.9,2.1-4.5,3.4-7.6,4.1c-3.1,0.7-6.7,0.9-10.3,0.9c-2.9,0-5.8-0.1-8.6-0.1
			c-1.6,0-2.8,0.4-3.7,1c-1.4,0.9-2.1,2.3-2.4,3.4c-0.3,1.1-0.3,2-0.3,2v0.5h0.5c0,0,46,0,55,0c0.3,0,0.7-0.1,0.9-0.2
			c0.4-0.2,0.7-0.6,0.9-1c0.2-0.4,0.2-0.9,0.2-1.5c0-1.3-0.4-2.9-0.9-4.6c-1.6-5.2-4.7-11.4-4.7-11.4l-0.2-0.3l-0.3,0L493.5,327.5z"
			/>
		<path class="st1" d="M417,350V219c0-8.5,6.7-15.5,15.2-15.9l62.3-0.5l4.9-4.5H432c0,0-49.5,9.5-49.5,11.5s0,140.5,0,140.5H417z"/>
		<path class="st0" d="M417,350h0.5V219c0-8.3,6.5-15,14.8-15.4l0-0.5l0,0.5l62.3-0.5c0.1,0,0.2,0,0.3-0.1l4.9-4.5
			c0.2-0.1,0.2-0.4,0.1-0.5c-0.1-0.2-0.3-0.3-0.5-0.3H432l-0.1,0c0,0-12.4,2.4-24.8,5c-6.2,1.3-12.4,2.7-17,3.9
			c-2.3,0.6-4.3,1.1-5.6,1.6c-0.7,0.2-1.2,0.4-1.6,0.6c-0.2,0.1-0.4,0.2-0.5,0.3c-0.1,0.1-0.1,0.1-0.2,0.2c-0.1,0.1-0.1,0.2-0.1,0.4
			c0,2,0,140.5,0,140.5c0,0.1,0.1,0.3,0.1,0.4c0.1,0.1,0.2,0.1,0.4,0.1H417c0.1,0,0.3-0.1,0.4-0.1c0.1-0.1,0.1-0.2,0.1-0.4H417v-0.5
			h-34.5v0.5h0.5c0,0,0-138.5,0-140.5h-0.3l0.3,0.2c0,0,0.1-0.1,0.1-0.2h-0.3l0.3,0.2l-0.1-0.1l0.1,0.1l0,0l-0.1-0.1l0.1,0.1
			c0,0,0.1-0.1,0.2-0.1c0.5-0.3,1.7-0.7,3.4-1.2c5.8-1.7,17.2-4.2,27.1-6.2c5-1,9.6-1.9,12.9-2.6c1.7-0.3,3.1-0.6,4-0.8
			s1.5-0.3,1.5-0.3L432,198v0.5h66.1l-3.8,3.5l-62.1,0.5l0,0c-8.8,0.4-15.7,7.6-15.7,16.4v131H417v-0.5V350z"/>
		<path class="st1" d="M486.1,88.2c0,0-1.7,34.8,6.8,33.1c7.1-1.4,10.8-5.8,12.6-9.3"/>
		<path class="st0" d="M485.6,88.2c0,0-0.1,2.9-0.1,7.1c0,4.9,0.2,11.4,1.1,16.8c0.5,2.7,1.1,5.1,2,6.8c0.4,0.9,1,1.6,1.6,2.1
			c0.6,0.5,1.4,0.8,2.2,0.8c0.2,0,0.5,0,0.7-0.1c7.3-1.5,11.1-5.9,13-9.6l-0.9-0.5c-1.8,3.5-5.4,7.7-12.3,9.1
			c-0.2,0-0.3,0.1-0.5,0.1c-0.6,0-1.1-0.2-1.5-0.6c-0.8-0.7-1.6-2.1-2.2-3.9c-1.8-5.5-2.1-14.7-2.1-21.1c0-2.1,0-3.8,0.1-5.1
			c0-1.2,0.1-2,0.1-2L485.6,88.2L485.6,88.2z"/>
		<line class="st1" x1="515.5" y1="114.5" x2="511.5" y2="108.5"/>
		<polyline class="st0" points="515.9,114.2 511.9,108.2 511.1,108.8 515.1,114.8 		"/>
		<polyline class="st0" points="507.9,121.2 503.9,115.2 503.1,115.8 507.1,121.8 		"/>
		<path class="st0" d="M514.1,111.2c0,0,9.3-25.5,0.8-31.4c-23.3-16.3-34,10.2-32.3,10.2c10.2,0,17.8,12.7,17.8,12.7
			s3.1-2.9,4.2-2.5c5.1,1.7,2.5,6.8,2.5,6.8L514.1,111.2z"/>
		<path class="st0" d="M514.1,111.2l0.5,0.2c0,0,4.4-12.1,4.4-21.7c0-2.2-0.2-4.3-0.8-6c-0.6-1.8-1.5-3.3-3-4.3
			c-5.6-3.9-10.4-5.4-14.7-5.4c-6.2,0-10.9,3.3-14,6.9c-1.5,1.8-2.7,3.6-3.5,5.2c-0.4,0.8-0.7,1.5-0.9,2.1c-0.2,0.6-0.3,1.1-0.3,1.5
			c0,0.2,0,0.3,0.1,0.5c0,0.1,0.1,0.2,0.2,0.3c0.1,0.1,0.2,0.1,0.4,0.1c4.9,0,9.2,3.1,12.4,6.2c1.6,1.6,2.8,3.1,3.7,4.3
			c0.4,0.6,0.8,1.1,1,1.4c0.1,0.2,0.2,0.3,0.3,0.4c0.1,0.1,0.1,0.1,0.1,0.1c0.1,0.1,0.2,0.2,0.4,0.2s0.3,0,0.4-0.1l0.1-0.1
			c0.3-0.2,0.9-0.8,1.7-1.4c0.4-0.3,0.8-0.5,1.1-0.7c0.3-0.2,0.6-0.3,0.8-0.3l0.1,0c1.2,0.4,1.9,1,2.3,1.6c0.4,0.6,0.6,1.3,0.6,2
			c0,0.7-0.1,1.3-0.3,1.8c-0.1,0.2-0.1,0.4-0.2,0.6l-0.1,0.1l0,0l0,0c-0.1,0.2,0,0.5,0.2,0.6l6.8,4.2c0.1,0.1,0.3,0.1,0.4,0
			c0.1,0,0.3-0.2,0.3-0.3L514.1,111.2l0.3-0.4l-6.8-4.2l-0.3,0.4l0.4,0.2c0,0,0.7-1.4,0.7-3c0-0.8-0.2-1.7-0.7-2.5
			c-0.5-0.8-1.5-1.5-2.8-2c-0.1,0-0.3-0.1-0.4-0.1c-0.5,0-0.9,0.2-1.4,0.5c-1.4,0.8-2.9,2.2-3,2.3l0.3,0.4l0.4-0.3
			c0,0-1.9-3.2-5.2-6.5c-3.2-3.2-7.8-6.5-13.1-6.5v0.4l0.2-0.3l-0.2-0.1v0.4l0.2-0.3l-0.2,0.2l0.3-0.1c0,0,0-0.1-0.1-0.1l-0.2,0.2
			l0.3-0.1l0,0l0,0l0,0l0,0l0,0l0-0.1c0-0.2,0.1-0.6,0.3-1.2c0.6-1.9,2.4-5.3,5.3-8.2c2.9-2.9,6.9-5.3,12-5.3c4,0,8.7,1.4,14.1,5.2
			c1.2,0.9,2.1,2.2,2.6,3.8c0.5,1.6,0.8,3.6,0.8,5.7c0,4.7-1.1,10-2.2,14.2c-0.5,2.1-1.1,3.9-1.5,5.1c-0.2,0.6-0.4,1.1-0.5,1.5
			c-0.1,0.3-0.2,0.5-0.2,0.5L514.1,111.2l0.3-0.4L514.1,111.2z"/>
		<path class="st0" d="M507,106.5L507,106.5L507,106.5L507,106.5L507,106.5L507,106.5L507,106.5c0,0.1-0.2,0.3-0.5,0.5
			c-0.4,0.3-0.9,0.5-1.4,0.7c-0.2,0.1-0.4,0.2-0.6,0.2s-0.2,0.1-0.2,0.1l0.3,0.9c0,0,0.8-0.3,1.6-0.7c0.4-0.2,0.8-0.4,1.1-0.7
			c0.2-0.1,0.3-0.3,0.4-0.4c0.1-0.2,0.2-0.4,0.2-0.6H507L507,106.5z"/>
		<polyline class="st3" points="403.5,124.5 293,26 51.5,26 51.5,264 295,264 403.5,133.5 		"/>
		<polyline class="st4" points="401,139 295,264 134,264 		"/>
		<path class="st0" d="M485.8,218.4c0,0,13.8-19.9,17.9-49.1l11.8-10.7l-7.6,21.9C503,194.3,495.5,207.2,485.8,218.4"/>
		<path class="st0" d="M486.2,218.6c0,0,13.9-20,18-49.4l-0.5-0.1l0.3,0.4l10.4-9.4l-7,20c-4.8,13.9-12.3,26.7-22,37.8L486.2,218.6
			c9.7-11.1,17.2-24.1,22.1-38.1l7.6-21.9c0.1-0.2,0-0.5-0.2-0.6c-0.2-0.1-0.4-0.1-0.6,0l-11.8,10.7c-0.1,0.1-0.1,0.2-0.2,0.3
			c-2,14.6-6.5,26.8-10.4,35.4c-2,4.3-3.8,7.7-5.2,10c-0.7,1.2-1.2,2-1.6,2.6c-0.2,0.3-0.3,0.5-0.4,0.7c-0.1,0.2-0.2,0.2-0.2,0.2
			L486.2,218.6L486.2,218.6z"/>
		<path class="st1" d="M535,233.6c0-0.1,0-0.2,0-0.4"/>
		<path class="st0" d="M535.5,233.6c0-0.1,0-0.2,0-0.4l-1-0.1c0,0.1,0,0.2,0,0.4L535.5,233.6L535.5,233.6z"/>
		<path class="st0" d="M486.2,218.6c0,0,19.1-27.5,19.1-65.3c0-7.9-0.8-16.2-2.8-24.8l-1,0.2c2,8.5,2.8,16.8,2.8,24.6
			c0,18.8-4.7,35-9.5,46.5c-2.4,5.8-4.7,10.3-6.5,13.5c-0.9,1.6-1.6,2.8-2.1,3.6c-0.3,0.4-0.5,0.7-0.6,0.9s-0.2,0.3-0.2,0.3
			L486.2,218.6L486.2,218.6z"/>
		<path class="st0" d="M525.1,268h-59.7c-4,0-7.2-3.2-7.2-7.2c0-4,3.2-7.2,7.2-7.2h59.7c4,0,7.2,3.2,7.2,7.2
			C532.3,264.8,529.1,268,525.1,268z"/>
		<path class="st0" d="M525.1,268v-0.5h-59.7c-1.9,0-3.5-0.8-4.8-2c-1.2-1.2-2-2.9-2-4.8c0-1.9,0.8-3.5,2-4.8c1.2-1.2,2.9-2,4.8-2
			h59.7c1.9,0,3.5,0.8,4.8,2c1.2,1.2,2,2.9,2,4.8c0,1.9-0.8,3.5-2,4.8c-1.2,1.2-2.9,2-4.8,2V268v0.5c4.3,0,7.7-3.5,7.7-7.7
			c0-4.3-3.5-7.7-7.7-7.7h-59.7c-4.3,0-7.7,3.5-7.7,7.7c0,4.3,3.5,7.7,7.7,7.7h59.7V268z"/>
		<polyline class="st0" points="494.7,268 494.7,332 495.7,332 495.7,268 		"/>
		<polygon class="st0" points="494.9,283.7 503.7,292.5 514.7,292.5 514.7,291.5 504.1,291.5 495.6,283 494.9,283.7 		"/>
		<path class="st0" d="M529.5,295H515c-1.6,0-2.8-1.3-2.8-2.8c0-1.6,1.3-2.8,2.8-2.8h14.4c1.6,0,2.8,1.3,2.8,2.8
			C532.3,293.7,531,295,529.5,295z"/>
		<path class="st0" d="M529.5,295v-0.5H515c-1.3,0-2.3-1-2.3-2.3c0-1.3,1-2.3,2.3-2.3h14.4c1.3,0,2.3,1,2.3,2.3c0,1.3-1,2.3-2.3,2.3
			V295v0.5c1.8,0,3.3-1.5,3.3-3.3c0-1.8-1.5-3.3-3.3-3.3H515c-1.8,0-3.3,1.5-3.3,3.3c0,1.8,1.5,3.3,3.3,3.3h14.4V295z"/>
		<path class="st0" d="M514.7,264.1c11.5,0,21.8-6.3,27.3-15.9c1.6-2.8,2.7-5.8,3.4-9.1l13.8-67.1l-1-0.2l-13.8,67.1
			c-0.6,3.2-1.8,6.1-3.3,8.8c-5.3,9.3-15.2,15.4-26.4,15.4V264.1L514.7,264.1z"/>
		<path class="st0" d="M558.7,171.9L544.9,239c-7.8-21-4.1-44.5,9.8-62.1L558.7,171.9z"/>
		<path class="st0" d="M558.7,171.9l-0.5-0.1l-13.8,67.1l0.5,0.1l0.5-0.2c-2.7-7.2-4-14.7-4-22.2c0-14.1,4.7-28,13.7-39.4l4-5
			L558.7,171.9l-0.5-0.1L558.7,171.9l-0.4-0.3l-4,5c-9.2,11.6-13.9,25.7-13.9,40.1c0,7.6,1.3,15.2,4.1,22.5c0.1,0.2,0.3,0.3,0.5,0.3
			c0.2,0,0.4-0.2,0.5-0.4l13.8-67.1c0-0.2-0.1-0.5-0.3-0.6c-0.2-0.1-0.5,0-0.6,0.1L558.7,171.9z"/>
		<polyline class="st1" points="424.2,148.1 416,141.8 397.8,145 389.6,141.8 395.3,138.7 401.6,138.7 417.3,134.3 427.3,141.2 		
			"/>
		<path class="st0" d="M424.5,147.7l-8.2-6.3c-0.1-0.1-0.3-0.1-0.4-0.1l-18.1,3.1l-7-2.7l4.6-2.6l6.2,0l0.1,0l15.5-4.3l9.9,6.8
			l0.6-0.8l-10-6.9c-0.1-0.1-0.3-0.1-0.4-0.1l-15.6,4.4l-6.2,0l-0.2,0.1l-5.7,3.1c-0.2,0.1-0.3,0.3-0.3,0.5c0,0.2,0.1,0.4,0.3,0.4
			l8.2,3.1l0.3,0l18-3.1l8,6.1L424.5,147.7L424.5,147.7z"/>
		<path class="st1" d="M515.2,158.1c0,0-31.1,31.2-44.6,30.8c-11.6-0.4-46.4-38.9-46.4-38.9l3.1-9.4l43.9,23.2l36.4-42.1l7.8-7.2
			l-0.3-0.3c26.5,19,28.1,91.3,19.8,119"/>
		<path class="st0" d="M514.8,157.8c0,0-0.5,0.5-1.3,1.3c-3,2.9-10.8,10.3-19.2,16.9c-4.2,3.3-8.6,6.4-12.7,8.7
			c-4.1,2.3-7.8,3.7-10.7,3.7c-0.1,0-0.2,0-0.3,0c-1.3,0-3.1-0.7-5.1-1.7c-7.1-3.8-17.4-13-25.9-21.3c-4.2-4.2-8-8.1-10.7-11
			c-1.4-1.4-2.5-2.6-3.2-3.4c-0.8-0.8-1.2-1.3-1.2-1.3l-0.4,0.3l0.5,0.2l3-8.9l43.4,23c0.2,0.1,0.5,0.1,0.6-0.1l36.4-42.1l7.8-7.2
			c0.1-0.1,0.2-0.2,0.2-0.4s0-0.3-0.1-0.4l-0.3-0.3l-0.4,0.4l-0.3,0.4c8.7,6.2,14.7,18.3,18.5,32.8c3.8,14.5,5.5,31.3,5.5,46.8
			c0,15.5-1.7,29.7-4.4,38.9l1,0.3c2.8-9.3,4.4-23.6,4.4-39.1c0-15.6-1.6-32.4-5.5-47c-3.9-14.6-9.9-26.9-18.9-33.4
			c-0.2-0.2-0.5-0.1-0.7,0.1s-0.2,0.5,0,0.7l0.3,0.3l0.4-0.4l-0.3-0.4l-7.8,7.2l0,0l-36.2,41.8l-43.6-23.1c-0.1-0.1-0.3-0.1-0.4,0
			c-0.1,0.1-0.2,0.2-0.3,0.3l-3.1,9.4c-0.1,0.2,0,0.4,0.1,0.5c0,0,8.7,9.6,18.9,19.3c5.1,4.8,10.5,9.7,15.5,13.4
			c2.5,1.8,4.8,3.4,6.9,4.5c2.1,1.1,4,1.8,5.5,1.8c0.1,0,0.2,0,0.3,0c3.6,0,8.1-2,13-4.9c14.5-8.7,31.7-26,31.7-26L514.8,157.8
			L514.8,157.8z"/>
		<polygon class="st0" points="399.1,129.1 403.4,133.3 407.6,129.1 403.4,124.9 		"/>
		<path class="st0" d="M399.1,129.1l-0.4,0.4l4.3,4.2c0.2,0.2,0.5,0.2,0.7,0l4.2-4.2c0.1-0.1,0.1-0.2,0.1-0.4c0-0.1-0.1-0.3-0.1-0.4
			l-4.2-4.2c-0.2-0.2-0.5-0.2-0.7,0l-4.3,4.2c-0.1,0.1-0.1,0.2-0.1,0.4c0,0.1,0.1,0.3,0.1,0.4L399.1,129.1l0.4,0.4l3.9-3.9l3.5,3.5
			l-3.5,3.5l-3.9-3.9L399.1,129.1l0.4,0.4L399.1,129.1z"/>
		<path class="st0" d="M403.4,110.8l-20.5,21.4l1.6,1.5c0.3,0.3,8.5,8,18.9,8c10.4,0,18.6-7.7,18.9-8l1.6-1.5L403.4,110.8z
			 M403.4,137.4c-6.1,0-11.6-3.4-14.2-5.4l14.2-14.9l14.2,14.9C415,134,409.6,137.4,403.4,137.4z"/>
		<path class="st0" d="M403.4,110.8l-0.4-0.3l-20.5,21.4c-0.1,0.1-0.1,0.2-0.1,0.4c0,0.1,0.1,0.3,0.2,0.4l1.6,1.5l0,0
			c0.2,0.2,2.4,2.2,5.8,4.2c3.4,2,8.2,3.9,13.5,4c10.6,0,18.9-7.8,19.3-8.2l1.6-1.5c0.1-0.1,0.2-0.2,0.2-0.4c0-0.1,0-0.3-0.1-0.4
			l-20.5-21.4c-0.1-0.1-0.2-0.2-0.4-0.2c-0.1,0-0.3,0.1-0.4,0.2L403.4,110.8l-0.4,0.3l20.1,21.1l-1.2,1.1c-0.3,0.3-8.5,7.9-18.6,7.9
			c-5.1,0-9.6-1.9-13-3.8c-3.3-1.9-5.5-3.9-5.6-4.1l0,0l-1.2-1.1l20.1-21.1L403.4,110.8l-0.4,0.3L403.4,110.8z M403.4,137.4v-0.5
			c-5.9,0-11.3-3.4-13.9-5.3l-0.3,0.4l0.4,0.3l13.8-14.5l13.8,14.5l0.4-0.3l-0.3-0.4c-2.6,2-8,5.3-13.9,5.3V137.4v0.5
			c6.3,0,11.8-3.5,14.5-5.5c0.1-0.1,0.2-0.2,0.2-0.4s0-0.3-0.1-0.4l-14.2-14.9c-0.1-0.1-0.2-0.2-0.4-0.2c-0.1,0-0.3,0.1-0.4,0.2
			l-14.2,14.9c-0.1,0.1-0.1,0.2-0.1,0.4s0.1,0.3,0.2,0.4c2.7,2,8.2,5.5,14.5,5.5V137.4z"/>
		<polygon class="st1" points="277,204.8 277,212.8 268.1,220.1 268.1,212.1 		"/>
		<path class="st0" d="M277,204.8h-0.5v7.7l-8,6.5v-6.7l8.8-7.1L277,204.8h-0.5H277l-0.3-0.4l-9,7.3c-0.1,0.1-0.2,0.2-0.2,0.4v7.9
			c0,0.2,0.1,0.4,0.3,0.5c0.2,0.1,0.4,0.1,0.5-0.1l9-7.3c0.1-0.1,0.2-0.2,0.2-0.4v-7.9c0-0.2-0.1-0.4-0.3-0.5s-0.4-0.1-0.5,0.1
			L277,204.8z"/>
		<polygon class="st1" points="268.1,197.6 277,204.8 268.1,212.1 250.2,212.1 241.2,204.8 250.2,197.6 		"/>
		<path class="st0" d="M268.1,197.6l-0.3,0.4l8.5,6.9l-8.3,6.8h-17.6l-8.3-6.8l8.3-6.8h17.7V197.6l-0.3,0.4L268.1,197.6v-0.5h-17.9
			c-0.1,0-0.2,0-0.3,0.1l-9,7.3c-0.1,0.1-0.2,0.2-0.2,0.4c0,0.2,0.1,0.3,0.2,0.4l9,7.3c0.1,0.1,0.2,0.1,0.3,0.1h17.9
			c0.1,0,0.2,0,0.3-0.1l9-7.3c0.1-0.1,0.2-0.2,0.2-0.4c0-0.2-0.1-0.3-0.2-0.4l-9-7.3c-0.1-0.1-0.2-0.1-0.3-0.1V197.6z"/>
		<polygon class="st1" points="251,209.7 245.1,204.8 251,200 267.2,200 273.1,204.8 267.2,209.7 		"/>
		<path class="st3" d="M251,209.7l0.3-0.4l-5.4-4.4l5.3-4.3H267l5.3,4.3l-5.3,4.3h-16V209.7l0.3-0.4L251,209.7v0.5h16.2
			c0.1,0,0.2,0,0.3-0.1l5.9-4.8c0.1-0.1,0.2-0.2,0.2-0.4c0-0.2-0.1-0.3-0.2-0.4l-5.9-4.8c-0.1-0.1-0.2-0.1-0.3-0.1H251
			c-0.1,0-0.2,0-0.3,0.1l-5.9,4.8c-0.1,0.1-0.2,0.2-0.2,0.4c0,0.2,0.1,0.3,0.2,0.4l5.9,4.8c0.1,0.1,0.2,0.1,0.3,0.1V209.7z"/>
		<polygon class="st0" points="250.2,212.1 250.2,220.1 241.2,212.8 241.2,204.8 		"/>
		<path class="st0" d="M250.2,212.1h-0.5v6.9l-8-6.5v-6.7l8.1,6.6L250.2,212.1h-0.5H250.2l0.3-0.4l-9-7.3c-0.1-0.1-0.4-0.1-0.5-0.1
			s-0.3,0.3-0.3,0.5v7.9c0,0.2,0.1,0.3,0.2,0.4l9,7.3c0.1,0.1,0.4,0.1,0.5,0.1c0.2-0.1,0.3-0.3,0.3-0.5v-7.9c0-0.2-0.1-0.3-0.2-0.4
			L250.2,212.1z"/>
		<rect x="250.2" y="212.1" class="st1" width="17.9" height="7.9"/>
		<path class="st0" d="M268.1,212.1h-0.5v7.4h-16.9v-6.9l17.4,0V212.1h-0.5H268.1v-0.5h-17.9c-0.1,0-0.3,0.1-0.4,0.1
			c-0.1,0.1-0.1,0.2-0.1,0.4v7.9c0,0.1,0.1,0.3,0.1,0.4c0.1,0.1,0.2,0.1,0.4,0.1h17.9c0.1,0,0.3-0.1,0.4-0.1
			c0.1-0.1,0.1-0.2,0.1-0.4v-7.9c0-0.1-0.1-0.3-0.1-0.4c-0.1-0.1-0.2-0.1-0.4-0.1V212.1z"/>
		<polygon class="st1" points="247.5,214.3 247.5,222.3 238.6,229.6 238.6,221.6 		"/>
		<path class="st0" d="M247.5,214.3H247v7.7l-8,6.5v-6.7l8.8-7.1L247.5,214.3H247H247.5l-0.3-0.4l-9,7.3c-0.1,0.1-0.2,0.2-0.2,0.4
			v7.9c0,0.2,0.1,0.4,0.3,0.5c0.2,0.1,0.4,0.1,0.5-0.1l9-7.3c0.1-0.1,0.2-0.2,0.2-0.4v-7.9c0-0.2-0.1-0.4-0.3-0.5s-0.4-0.1-0.5,0.1
			L247.5,214.3z"/>
		<polygon class="st1" points="238.6,207.1 247.5,214.3 238.6,221.6 220.7,221.6 211.7,214.3 220.7,207.1 		"/>
		<path class="st0" d="M238.6,207.1l-0.3,0.4l8.5,6.9l-8.3,6.8h-17.6l-8.3-6.8l8.3-6.8l17.7,0V207.1l-0.3,0.4L238.6,207.1v-0.5
			h-17.9c-0.1,0-0.2,0-0.3,0.1l-9,7.3c-0.1,0.1-0.2,0.2-0.2,0.4c0,0.2,0.1,0.3,0.2,0.4l9,7.3c0.1,0.1,0.2,0.1,0.3,0.1h17.9
			c0.1,0,0.2,0,0.3-0.1l9-7.3c0.1-0.1,0.2-0.2,0.2-0.4c0-0.2-0.1-0.3-0.2-0.4l-9-7.3c-0.1-0.1-0.2-0.1-0.3-0.1V207.1z"/>
		<polygon class="st1" points="221.5,219.2 215.6,214.3 221.5,209.5 237.7,209.5 243.6,214.3 237.7,219.2 		"/>
		<path class="st3" d="M221.5,219.2l0.3-0.4l-5.4-4.4l5.3-4.3h15.8l5.3,4.3l-5.3,4.3l-16,0V219.2l0.3-0.4L221.5,219.2v0.5h16.2
			c0.1,0,0.2,0,0.3-0.1l5.9-4.8c0.1-0.1,0.2-0.2,0.2-0.4c0-0.2-0.1-0.3-0.2-0.4l-5.9-4.8c-0.1-0.1-0.2-0.1-0.3-0.1h-16.2
			c-0.1,0-0.2,0-0.3,0.1l-5.9,4.8c-0.1,0.1-0.2,0.2-0.2,0.4c0,0.2,0.1,0.3,0.2,0.4l5.9,4.8c0.1,0.1,0.2,0.1,0.3,0.1V219.2z"/>
		<polygon class="st0" points="220.7,221.6 220.7,229.6 211.7,222.3 211.7,214.3 		"/>
		<path class="st0" d="M220.7,221.6h-0.5v6.9l-8-6.5v-6.7l8.1,6.6L220.7,221.6h-0.5H220.7l0.3-0.4l-9-7.3c-0.1-0.1-0.4-0.1-0.5-0.1
			s-0.3,0.3-0.3,0.5v7.9c0,0.2,0.1,0.3,0.2,0.4l9,7.3c0.1,0.1,0.4,0.1,0.5,0.1c0.2-0.1,0.3-0.3,0.3-0.5v-7.9c0-0.2-0.1-0.3-0.2-0.4
			L220.7,221.6z"/>
		<rect x="220.7" y="221.6" class="st1" width="17.9" height="7.9"/>
		<path class="st0" d="M238.6,221.6h-0.5v7.4h-16.9v-6.9h17.4V221.6h-0.5H238.6v-0.5h-17.9c-0.1,0-0.3,0.1-0.4,0.1
			c-0.1,0.1-0.1,0.2-0.1,0.4v7.9c0,0.1,0.1,0.3,0.1,0.4c0.1,0.1,0.2,0.1,0.4,0.1h17.9c0.1,0,0.3-0.1,0.4-0.1
			c0.1-0.1,0.1-0.2,0.1-0.4v-7.9c0-0.1-0.1-0.3-0.1-0.4c-0.1-0.1-0.2-0.1-0.4-0.1V221.6z"/>
		<polyline class="st0" points="50.4,223.9 50.4,236.8 39.4,230.3 39.4,217.4 		"/>
		<path class="st0" d="M49.9,223.9v12l-10-5.9v-12.6c0-0.3-0.2-0.5-0.5-0.5c-0.3,0-0.5,0.2-0.5,0.5l0,12.9c0,0.2,0.1,0.3,0.2,0.4
			l11,6.5c0.2,0.1,0.3,0.1,0.5,0c0.2-0.1,0.3-0.3,0.3-0.4v-12.9c0-0.3-0.2-0.5-0.5-0.5C50.2,223.4,49.9,223.6,49.9,223.9L49.9,223.9
			z"/>
		<polygon class="st1" points="50.4,236.8 61.6,230.3 61.6,217.4 50.4,223.9 		"/>
		<path class="st0" d="M50.4,236.8l0.3,0.4l11.2-6.5c0.2-0.1,0.2-0.3,0.2-0.4v-12.9c0-0.2-0.1-0.3-0.3-0.4c-0.2-0.1-0.3-0.1-0.5,0
			l-11.2,6.5c-0.2,0.1-0.2,0.3-0.2,0.4v12.9c0,0.2,0.1,0.3,0.3,0.4s0.3,0.1,0.5,0L50.4,236.8h0.5v-12.6l10.2-5.9v11.8l-10.9,6.3
			L50.4,236.8h0.5H50.4z"/>
		<polygon class="st1" points="50.4,223.9 61.6,217.4 50.6,211 39.4,217.4 		"/>
		<path class="st0" d="M50.4,223.9l0.3,0.4l11.2-6.5c0.2-0.1,0.2-0.3,0.2-0.4c0-0.2-0.1-0.3-0.2-0.4l-11-6.5c-0.2-0.1-0.3-0.1-0.5,0
			L39.2,217c-0.2,0.1-0.2,0.3-0.2,0.4c0,0.2,0.1,0.3,0.2,0.4l11,6.5c0.2,0.1,0.3,0.1,0.5,0L50.4,223.9l0.3-0.4l-10.3-6l10.2-5.9
			l10,5.9l-10.4,6L50.4,223.9l0.3-0.4L50.4,223.9z"/>
		<polyline class="st1" points="68,98.5 68,132 39.4,115.2 39.4,81.7 		"/>
		<path class="st0" d="M67.5,98.5v32.6l-27.6-16.2V81.7c0-0.3-0.2-0.5-0.5-0.5c-0.3,0-0.5,0.2-0.5,0.5l0,33.5c0,0.2,0.1,0.3,0.2,0.4
			l28.6,16.7c0.2,0.1,0.3,0.1,0.5,0c0.2-0.1,0.3-0.3,0.3-0.4V98.5c0-0.3-0.2-0.5-0.5-0.5C67.8,98,67.5,98.2,67.5,98.5L67.5,98.5z"/>
		<polygon class="st1" points="68,132 97,115.2 97,81.7 68,98.5 		"/>
		<path class="st0" d="M68,132l0.3,0.4l29-16.7c0.2-0.1,0.2-0.3,0.2-0.4V81.7c0-0.2-0.1-0.3-0.3-0.4s-0.3-0.1-0.5,0L67.8,98
			c-0.2,0.1-0.2,0.3-0.2,0.4V132c0,0.2,0.1,0.3,0.3,0.4s0.3,0.1,0.5,0L68,132h0.5V98.8l28-16.2v32.3l-28.7,16.6L68,132h0.5H68z"/>
		<polygon class="st1" points="68,98.5 97,81.7 68.4,65 39.4,81.7 		"/>
		<path class="st0" d="M68,98.5l0.3,0.4l29-16.7c0.2-0.1,0.2-0.3,0.2-0.4c0-0.2-0.1-0.3-0.2-0.4L68.6,64.6c-0.2-0.1-0.3-0.1-0.5,0
			l-29,16.7c-0.2,0.1-0.2,0.3-0.2,0.4c0,0.2,0.1,0.3,0.2,0.4l28.6,16.7c0.2,0.1,0.3,0.1,0.5,0L68,98.5l0.3-0.4L40.4,81.7l28-16.2
			L96,81.7L67.8,98L68,98.5l0.3-0.4L68,98.5z"/>
		<path class="st4" d="M258.6,146.9v-2h-1v2H258.6z M258.6,151.9v-2h-1v2H258.6z M258.6,156.9v-2h-1v2H258.6z M258.6,161.9v-2h-1v2
			H258.6z M258.6,166.9v-2h-1v2H258.6z M258.6,171.9v-2h-1v2H258.6z M258.6,176.9v-2h-1v2H258.6z M258.6,181.9v-2h-1v2H258.6z
			 M258.6,186.9v-2h-1v2H258.6z M258.6,191.9v-2h-1v2H258.6z M258.6,196.9v-2h-1v2H258.6z M258.6,201.9v-2h-1v2H258.6z"/>
		<path class="st0" d="M167.5,107h2c0.3,0,0.5-0.2,0.5-0.5c0-0.3-0.2-0.5-0.5-0.5h-2c-0.3,0-0.5,0.2-0.5,0.5
			C167,106.8,167.2,107,167.5,107z M162.5,107h2c0.3,0,0.5-0.2,0.5-0.5c0-0.3-0.2-0.5-0.5-0.5h-2c-0.3,0-0.5,0.2-0.5,0.5
			C162,106.8,162.2,107,162.5,107z M157.5,107h2c0.3,0,0.5-0.2,0.5-0.5c0-0.3-0.2-0.5-0.5-0.5h-2c-0.3,0-0.5,0.2-0.5,0.5
			C157,106.8,157.2,107,157.5,107z M152.5,107h2c0.3,0,0.5-0.2,0.5-0.5c0-0.3-0.2-0.5-0.5-0.5h-2c-0.3,0-0.5,0.2-0.5,0.5
			C152,106.8,152.2,107,152.5,107z M147.5,107h2c0.3,0,0.5-0.2,0.5-0.5c0-0.3-0.2-0.5-0.5-0.5h-2c-0.3,0-0.5,0.2-0.5,0.5
			C147,106.8,147.2,107,147.5,107z M142.5,107h2c0.3,0,0.5-0.2,0.5-0.5c0-0.3-0.2-0.5-0.5-0.5h-2c-0.3,0-0.5,0.2-0.5,0.5
			C142,106.8,142.2,107,142.5,107z M137.5,107h2c0.3,0,0.5-0.2,0.5-0.5c0-0.3-0.2-0.5-0.5-0.5h-2c-0.3,0-0.5,0.2-0.5,0.5
			C137,106.8,137.2,107,137.5,107z M132.5,107h2c0.3,0,0.5-0.2,0.5-0.5c0-0.3-0.2-0.5-0.5-0.5h-2c-0.3,0-0.5,0.2-0.5,0.5
			C132,106.8,132.2,107,132.5,107z M127.5,107h2c0.3,0,0.5-0.2,0.5-0.5c0-0.3-0.2-0.5-0.5-0.5h-2c-0.3,0-0.5,0.2-0.5,0.5
			C127,106.8,127.2,107,127.5,107z M122.5,107h2c0.3,0,0.5-0.2,0.5-0.5c0-0.3-0.2-0.5-0.5-0.5h-2c-0.3,0-0.5,0.2-0.5,0.5
			C122,106.8,122.2,107,122.5,107z M117.5,107h2c0.3,0,0.5-0.2,0.5-0.5c0-0.3-0.2-0.5-0.5-0.5h-2c-0.3,0-0.5,0.2-0.5,0.5
			C117,106.8,117.2,107,117.5,107z M112.5,107h2c0.3,0,0.5-0.2,0.5-0.5c0-0.3-0.2-0.5-0.5-0.5h-2c-0.3,0-0.5,0.2-0.5,0.5
			C112,106.8,112.2,107,112.5,107z M107.5,107h2c0.3,0,0.5-0.2,0.5-0.5c0-0.3-0.2-0.5-0.5-0.5h-2c-0.3,0-0.5,0.2-0.5,0.5
			C107,106.8,107.2,107,107.5,107z M102.5,107h2c0.3,0,0.5-0.2,0.5-0.5c0-0.3-0.2-0.5-0.5-0.5h-2c-0.3,0-0.5,0.2-0.5,0.5
			C102,106.8,102.2,107,102.5,107z M97.5,107h2c0.3,0,0.5-0.2,0.5-0.5c0-0.3-0.2-0.5-0.5-0.5h-2c-0.3,0-0.5,0.2-0.5,0.5
			C97,106.8,97.2,107,97.5,107z"/>
		<path class="st0" d="M45.2,225.9l0.4,0.4c0.2,0.2,0.5,0.2,0.7,0s0.2-0.5,0-0.7l-0.4-0.4c-0.2-0.2-0.5-0.2-0.7,0
			S45,225.7,45.2,225.9z M41.7,222.4l1.4,1.4c0.2,0.2,0.5,0.2,0.7,0s0.2-0.5,0-0.7l-1.4-1.4c-0.2-0.2-0.5-0.2-0.7,0
			S41.5,222.2,41.7,222.4z M38.1,218.8l1.4,1.4c0.2,0.2,0.5,0.2,0.7,0s0.2-0.5,0-0.7l-1.4-1.4c-0.2-0.2-0.5-0.2-0.7,0
			S37.9,218.6,38.1,218.8z M34.6,215.3l1.4,1.4c0.2,0.2,0.5,0.2,0.7,0s0.2-0.5,0-0.7l-1.4-1.4c-0.2-0.2-0.5-0.2-0.7,0
			S34.4,215.1,34.6,215.3z M31.1,211.8l1.4,1.4c0.2,0.2,0.5,0.2,0.7,0s0.2-0.5,0-0.7l-1.4-1.4c-0.2-0.2-0.5-0.2-0.7,0
			S30.9,211.6,31.1,211.8z M27.5,208.2l1.4,1.4c0.2,0.2,0.5,0.2,0.7,0s0.2-0.5,0-0.7l-1.4-1.4c-0.2-0.2-0.5-0.2-0.7,0
			S27.3,208,27.5,208.2z M24,204.7l1.4,1.4c0.2,0.2,0.5,0.2,0.7,0s0.2-0.5,0-0.7l-1.4-1.4c-0.2-0.2-0.5-0.2-0.7,0
			S23.8,204.5,24,204.7z M20.5,201.2l1.4,1.4c0.2,0.2,0.5,0.2,0.7,0s0.2-0.5,0-0.7l-1.4-1.4c-0.2-0.2-0.5-0.2-0.7,0
			S20.3,201,20.5,201.2z M16.9,197.6l1.4,1.4c0.2,0.2,0.5,0.2,0.7,0s0.2-0.5,0-0.7l-1.4-1.4c-0.2-0.2-0.5-0.2-0.7,0
			S16.7,197.4,16.9,197.6z M15,193v2c0,0.3,0.2,0.5,0.5,0.5c0.3,0,0.5-0.2,0.5-0.5v-2c0-0.3-0.2-0.5-0.5-0.5
			C15.2,192.5,15,192.7,15,193z M15,188v2c0,0.3,0.2,0.5,0.5,0.5c0.3,0,0.5-0.2,0.5-0.5v-2c0-0.3-0.2-0.5-0.5-0.5
			C15.2,187.5,15,187.7,15,188z M15,183v2c0,0.3,0.2,0.5,0.5,0.5c0.3,0,0.5-0.2,0.5-0.5v-2c0-0.3-0.2-0.5-0.5-0.5
			C15.2,182.5,15,182.7,15,183z M15,178v2c0,0.3,0.2,0.5,0.5,0.5c0.3,0,0.5-0.2,0.5-0.5v-2c0-0.3-0.2-0.5-0.5-0.5
			C15.2,177.5,15,177.7,15,178z M15,173v2c0,0.3,0.2,0.5,0.5,0.5c0.3,0,0.5-0.2,0.5-0.5v-2c0-0.3-0.2-0.5-0.5-0.5
			C15.2,172.5,15,172.7,15,173z M15,168v2c0,0.3,0.2,0.5,0.5,0.5c0.3,0,0.5-0.2,0.5-0.5v-2c0-0.3-0.2-0.5-0.5-0.5
			C15.2,167.5,15,167.7,15,168z M15,163v2c0,0.3,0.2,0.5,0.5,0.5c0.3,0,0.5-0.2,0.5-0.5v-2c0-0.3-0.2-0.5-0.5-0.5
			C15.2,162.5,15,162.7,15,163z M15,158v2c0,0.3,0.2,0.5,0.5,0.5c0.3,0,0.5-0.2,0.5-0.5v-2c0-0.3-0.2-0.5-0.5-0.5
			C15.2,157.5,15,157.7,15,158z M15,153v2c0,0.3,0.2,0.5,0.5,0.5c0.3,0,0.5-0.2,0.5-0.5v-2c0-0.3-0.2-0.5-0.5-0.5
			C15.2,152.5,15,152.7,15,153z M15,148v2c0,0.3,0.2,0.5,0.5,0.5c0.3,0,0.5-0.2,0.5-0.5v-2c0-0.3-0.2-0.5-0.5-0.5
			C15.2,147.5,15,147.7,15,148z M15,143v2c0,0.3,0.2,0.5,0.5,0.5c0.3,0,0.5-0.2,0.5-0.5v-2c0-0.3-0.2-0.5-0.5-0.5
			C15.2,142.5,15,142.7,15,143z M15,138v2c0,0.3,0.2,0.5,0.5,0.5c0.3,0,0.5-0.2,0.5-0.5v-2c0-0.3-0.2-0.5-0.5-0.5
			C15.2,137.5,15,137.7,15,138z M15,133v2c0,0.3,0.2,0.5,0.5,0.5c0.3,0,0.5-0.2,0.5-0.5v-2c0-0.3-0.2-0.5-0.5-0.5
			C15.2,132.5,15,132.7,15,133z M15,128v2c0,0.3,0.2,0.5,0.5,0.5c0.3,0,0.5-0.2,0.5-0.5v-2c0-0.3-0.2-0.5-0.5-0.5
			C15.2,127.5,15,127.7,15,128z M17.5,123.9l-1.8,0.9c-0.2,0.1-0.3,0.4-0.2,0.7c0.1,0.2,0.4,0.3,0.7,0.2l1.8-0.9
			c0.2-0.1,0.3-0.4,0.2-0.7C18,123.9,17.7,123.8,17.5,123.9z M22,121.7l-1.8,0.9c-0.2,0.1-0.3,0.4-0.2,0.7c0.1,0.2,0.4,0.3,0.7,0.2
			l1.8-0.9c0.2-0.1,0.3-0.4,0.2-0.7C22.5,121.7,22.2,121.6,22,121.7z M26.4,119.5l-1.8,0.9c-0.2,0.1-0.3,0.4-0.2,0.7
			c0.1,0.2,0.4,0.3,0.7,0.2l1.8-0.9c0.2-0.1,0.3-0.4,0.2-0.7C27,119.4,26.7,119.3,26.4,119.5z M30.9,117.2l-1.8,0.9
			c-0.2,0.1-0.3,0.4-0.2,0.7c0.1,0.2,0.4,0.3,0.7,0.2l1.8-0.9c0.2-0.1,0.3-0.4,0.2-0.7C31.5,117.2,31.2,117.1,30.9,117.2z M35.4,115
			l-1.8,0.9c-0.2,0.1-0.3,0.4-0.2,0.7c0.1,0.2,0.4,0.3,0.7,0.2l1.8-0.9c0.2-0.1,0.3-0.4,0.2-0.7C35.9,115,35.6,114.9,35.4,115z
			 M39.9,112.8l-1.8,0.9c-0.2,0.1-0.3,0.4-0.2,0.7c0.1,0.2,0.4,0.3,0.7,0.2l1.8-0.9c0.2-0.1,0.3-0.4,0.2-0.7
			C40.4,112.7,40.1,112.6,39.9,112.8z M44.3,110.5l-1.8,0.9c-0.2,0.1-0.3,0.4-0.2,0.7c0.1,0.2,0.4,0.3,0.7,0.2l1.8-0.9
			c0.2-0.1,0.3-0.4,0.2-0.7C44.9,110.5,44.6,110.4,44.3,110.5z M48.8,108.3l-1.8,0.9c-0.2,0.1-0.3,0.4-0.2,0.7
			c0.1,0.2,0.4,0.3,0.7,0.2l1.8-0.9c0.2-0.1,0.3-0.4,0.2-0.7C49.4,108.3,49.1,108.2,48.8,108.3z M53.3,106.1l-1.8,0.9
			c-0.2,0.1-0.3,0.4-0.2,0.7c0.1,0.2,0.4,0.3,0.7,0.2l1.8-0.9c0.2-0.1,0.3-0.4,0.2-0.7C53.8,106,53.5,105.9,53.3,106.1z"/>
		<path class="st0" d="M120.3,186.3l1.7,1.1c0.2,0.2,0.5,0.1,0.7-0.1c0.2-0.2,0.1-0.5-0.1-0.7l-1.7-1.1c-0.2-0.2-0.5-0.1-0.7,0.1
			C120.1,185.9,120.1,186.2,120.3,186.3z M116.2,183.6l1.7,1.1c0.2,0.2,0.5,0.1,0.7-0.1c0.2-0.2,0.1-0.5-0.1-0.7l-1.7-1.1
			c-0.2-0.2-0.5-0.1-0.7,0.1C115.9,183.1,116,183.4,116.2,183.6z M112,180.8l1.7,1.1c0.2,0.2,0.5,0.1,0.7-0.1
			c0.2-0.2,0.1-0.5-0.1-0.7l-1.7-1.1c-0.2-0.2-0.5-0.1-0.7,0.1C111.7,180.3,111.8,180.6,112,180.8z M107.9,178l1.7,1.1
			c0.2,0.2,0.5,0.1,0.7-0.1c0.2-0.2,0.1-0.5-0.1-0.7l-1.7-1.1c-0.2-0.2-0.5-0.1-0.7,0.1C107.6,177.5,107.6,177.9,107.9,178z
			 M103.7,175.2l1.7,1.1c0.2,0.2,0.5,0.1,0.7-0.1c0.2-0.2,0.1-0.5-0.1-0.7l-1.7-1.1c-0.2-0.2-0.5-0.1-0.7,0.1
			C103.4,174.8,103.5,175.1,103.7,175.2z M99.5,172.5l1.7,1.1c0.2,0.2,0.5,0.1,0.7-0.1c0.2-0.2,0.1-0.5-0.1-0.7l-1.7-1.1
			c-0.2-0.2-0.5-0.1-0.7,0.1C99.3,172,99.3,172.3,99.5,172.5z M95.4,169.7l1.7,1.1c0.2,0.2,0.5,0.1,0.7-0.1c0.2-0.2,0.1-0.5-0.1-0.7
			l-1.7-1.1c-0.2-0.2-0.5-0.1-0.7,0.1C95.1,169.2,95.2,169.5,95.4,169.7z M91.2,166.9l1.7,1.1c0.2,0.2,0.5,0.1,0.7-0.1
			c0.2-0.2,0.1-0.5-0.1-0.7l-1.7-1.1c-0.2-0.2-0.5-0.1-0.7,0.1C90.9,166.5,91,166.8,91.2,166.9z"/>
		<path class="st0" d="M85,177.3v-2c0-0.3-0.2-0.5-0.5-0.5c-0.3,0-0.5,0.2-0.5,0.5v2c0,0.3,0.2,0.5,0.5,0.5
			C84.8,177.8,85,177.5,85,177.3z M85,182.3v-2c0-0.3-0.2-0.5-0.5-0.5c-0.3,0-0.5,0.2-0.5,0.5v2c0,0.3,0.2,0.5,0.5,0.5
			C84.8,182.8,85,182.5,85,182.3z M85,187.3v-2c0-0.3-0.2-0.5-0.5-0.5c-0.3,0-0.5,0.2-0.5,0.5v2c0,0.3,0.2,0.5,0.5,0.5
			C84.8,187.8,85,187.5,85,187.3z M85,192.3v-2c0-0.3-0.2-0.5-0.5-0.5c-0.3,0-0.5,0.2-0.5,0.5v2c0,0.3,0.2,0.5,0.5,0.5
			C84.8,192.8,85,192.5,85,192.3z M82.4,196.4l1.7-1c0.2-0.1,0.3-0.5,0.2-0.7s-0.5-0.3-0.7-0.2l-1.7,1c-0.2,0.1-0.3,0.5-0.2,0.7
			S82.2,196.5,82.4,196.4z M78.1,199l1.7-1c0.2-0.1,0.3-0.5,0.2-0.7s-0.5-0.3-0.7-0.2l-1.7,1c-0.2,0.1-0.3,0.5-0.2,0.7
			S77.9,199.1,78.1,199z M73.9,201.5l1.7-1c0.2-0.1,0.3-0.5,0.2-0.7s-0.5-0.3-0.7-0.2l-1.7,1c-0.2,0.1-0.3,0.5-0.2,0.7
			S73.6,201.7,73.9,201.5z M69.6,204.1l1.7-1c0.2-0.1,0.3-0.5,0.2-0.7s-0.5-0.3-0.7-0.2l-1.7,1c-0.2,0.1-0.3,0.5-0.2,0.7
			S69.3,204.3,69.6,204.1z M65.3,206.7l1.7-1c0.2-0.1,0.3-0.5,0.2-0.7s-0.5-0.3-0.7-0.2l-1.7,1c-0.2,0.1-0.3,0.5-0.2,0.7
			S65.1,206.9,65.3,206.7z M61,209.3l1.7-1c0.2-0.1,0.3-0.5,0.2-0.7s-0.5-0.3-0.7-0.2l-1.7,1c-0.2,0.1-0.3,0.5-0.2,0.7
			S60.8,209.5,61,209.3z M56.8,211.9l1.7-1c0.2-0.1,0.3-0.5,0.2-0.7s-0.5-0.3-0.7-0.2l-1.7,1c-0.2,0.1-0.3,0.5-0.2,0.7
			S56.5,212.1,56.8,211.9z"/>
		<polyline class="st0" points="85.4,164.9 85.4,177.8 74.4,171.3 74.4,158.4 		"/>
		<path class="st0" d="M84.9,164.9v12l-10-5.9v-12.6c0-0.3-0.2-0.5-0.5-0.5c-0.3,0-0.5,0.2-0.5,0.5l0,12.9c0,0.2,0.1,0.3,0.2,0.4
			l11,6.5c0.2,0.1,0.3,0.1,0.5,0c0.2-0.1,0.3-0.3,0.3-0.4v-12.9c0-0.3-0.2-0.5-0.5-0.5C85.2,164.4,84.9,164.6,84.9,164.9L84.9,164.9
			z"/>
		<polygon class="st1" points="85.4,177.8 96.6,171.3 96.6,158.4 85.4,164.9 		"/>
		<path class="st0" d="M85.4,177.8l0.3,0.4l11.2-6.5c0.2-0.1,0.2-0.3,0.2-0.4v-12.9c0-0.2-0.1-0.3-0.3-0.4s-0.3-0.1-0.5,0l-11.2,6.5
			c-0.2,0.1-0.2,0.3-0.2,0.4v12.9c0,0.2,0.1,0.3,0.3,0.4s0.3,0.1,0.5,0L85.4,177.8h0.5v-12.6l10.2-5.9v11.8l-10.9,6.3L85.4,177.8
			h0.5H85.4z"/>
		<polygon class="st1" points="85.4,164.9 96.6,158.4 85.6,152 74.4,158.4 		"/>
		<path class="st0" d="M85.4,164.9l0.3,0.4l11.2-6.5c0.2-0.1,0.2-0.3,0.2-0.4c0-0.2-0.1-0.3-0.2-0.4l-11-6.5c-0.2-0.1-0.3-0.1-0.5,0
			L74.2,158c-0.2,0.1-0.2,0.3-0.2,0.4c0,0.2,0.1,0.3,0.2,0.4l11,6.5c0.2,0.1,0.3,0.1,0.5,0L85.4,164.9l0.3-0.4l-10.3-6l10.2-5.9
			l10,5.9l-10.4,6L85.4,164.9l0.3-0.4L85.4,164.9z"/>
		<polyline class="st2" points="50.4,207.9 50.4,220.8 39.4,214.3 39.4,201.4 		"/>
		<path class="st0" d="M49.9,207.9v12l-10-5.9v-12.6c0-0.3-0.2-0.5-0.5-0.5c-0.3,0-0.5,0.2-0.5,0.5l0,12.9c0,0.2,0.1,0.3,0.2,0.4
			l11,6.5c0.2,0.1,0.3,0.1,0.5,0c0.2-0.1,0.3-0.3,0.3-0.4v-12.9c0-0.3-0.2-0.5-0.5-0.5C50.2,207.4,49.9,207.6,49.9,207.9L49.9,207.9
			z"/>
		<polygon class="st1" points="50.4,220.8 61.6,214.3 61.6,201.4 50.4,207.9 		"/>
		<path class="st0" d="M50.4,220.8l0.3,0.4l11.2-6.5c0.2-0.1,0.2-0.3,0.2-0.4v-12.9c0-0.2-0.1-0.3-0.3-0.4c-0.2-0.1-0.3-0.1-0.5,0
			l-11.2,6.5c-0.2,0.1-0.2,0.3-0.2,0.4v12.9c0,0.2,0.1,0.3,0.3,0.4s0.3,0.1,0.5,0L50.4,220.8h0.5v-12.6l10.2-5.9v11.8l-10.9,6.3
			L50.4,220.8h0.5H50.4z"/>
		<polygon class="st1" points="50.4,207.9 61.6,201.4 50.6,195 39.4,201.4 		"/>
		<path class="st0" d="M50.4,207.9l0.3,0.4l11.2-6.5c0.2-0.1,0.2-0.3,0.2-0.4c0-0.2-0.1-0.3-0.2-0.4l-11-6.5c-0.2-0.1-0.3-0.1-0.5,0
			L39.2,201c-0.2,0.1-0.2,0.3-0.2,0.4c0,0.2,0.1,0.3,0.2,0.4l11,6.5c0.2,0.1,0.3,0.1,0.5,0L50.4,207.9l0.3-0.4l-10.3-6l10.2-5.9
			l10,5.9l-10.4,6L50.4,207.9l0.3-0.4L50.4,207.9z"/>
		<polyline class="st0" points="186.4,223.9 186.4,236.8 175.4,230.3 175.4,217.4 		"/>
		<path class="st0" d="M185.9,223.9v12l-10-5.9v-12.6c0-0.3-0.2-0.5-0.5-0.5c-0.3,0-0.5,0.2-0.5,0.5l0,12.9c0,0.2,0.1,0.3,0.2,0.4
			l11,6.5c0.2,0.1,0.3,0.1,0.5,0c0.2-0.1,0.3-0.3,0.3-0.4v-12.9c0-0.3-0.2-0.5-0.5-0.5C186.2,223.4,185.9,223.6,185.9,223.9
			L185.9,223.9z"/>
		<polygon class="st1" points="186.4,236.8 197.6,230.3 197.6,217.4 186.4,223.9 		"/>
		<path class="st0" d="M186.4,236.8l0.3,0.4l11.2-6.5c0.2-0.1,0.2-0.3,0.2-0.4v-12.9c0-0.2-0.1-0.3-0.3-0.4c-0.2-0.1-0.3-0.1-0.5,0
			l-11.2,6.5c-0.2,0.1-0.2,0.3-0.2,0.4v12.9c0,0.2,0.1,0.3,0.3,0.4s0.3,0.1,0.5,0L186.4,236.8h0.5v-12.6l10.2-5.9v11.8l-10.9,6.3
			L186.4,236.8h0.5H186.4z"/>
		<polygon class="st1" points="186.4,223.9 197.6,217.4 186.6,211 175.4,217.4 		"/>
		<path class="st0" d="M186.4,223.9l0.3,0.4l11.2-6.5c0.2-0.1,0.2-0.3,0.2-0.4c0-0.2-0.1-0.3-0.2-0.4l-11-6.5
			c-0.2-0.1-0.3-0.1-0.5,0l-11.2,6.5c-0.2,0.1-0.2,0.3-0.2,0.4c0,0.2,0.1,0.3,0.2,0.4l11,6.5c0.2,0.1,0.3,0.1,0.5,0L186.4,223.9
			l0.3-0.4l-10.3-6l10.2-5.9l10,5.9l-10.4,6L186.4,223.9l0.3-0.4L186.4,223.9z"/>
		<polyline class="st2" points="186.4,207.9 186.4,220.8 175.4,214.3 175.4,201.4 		"/>
		<path class="st0" d="M185.9,207.9v12l-10-5.9v-12.6c0-0.3-0.2-0.5-0.5-0.5c-0.3,0-0.5,0.2-0.5,0.5l0,12.9c0,0.2,0.1,0.3,0.2,0.4
			l11,6.5c0.2,0.1,0.3,0.1,0.5,0c0.2-0.1,0.3-0.3,0.3-0.4v-12.9c0-0.3-0.2-0.5-0.5-0.5C186.2,207.4,185.9,207.6,185.9,207.9
			L185.9,207.9z"/>
		<polygon class="st1" points="186.4,220.8 197.6,214.3 197.6,201.4 186.4,207.9 		"/>
		<path class="st0" d="M186.4,220.8l0.3,0.4l11.2-6.5c0.2-0.1,0.2-0.3,0.2-0.4v-12.9c0-0.2-0.1-0.3-0.3-0.4c-0.2-0.1-0.3-0.1-0.5,0
			l-11.2,6.5c-0.2,0.1-0.2,0.3-0.2,0.4v12.9c0,0.2,0.1,0.3,0.3,0.4s0.3,0.1,0.5,0L186.4,220.8h0.5v-12.6l10.2-5.9v11.8l-10.9,6.3
			L186.4,220.8h0.5H186.4z"/>
		<polygon class="st1" points="186.4,207.9 197.6,201.4 186.6,195 175.4,201.4 		"/>
		<path class="st0" d="M186.4,207.9l0.3,0.4l11.2-6.5c0.2-0.1,0.2-0.3,0.2-0.4c0-0.2-0.1-0.3-0.2-0.4l-11-6.5
			c-0.2-0.1-0.3-0.1-0.5,0l-11.2,6.5c-0.2,0.1-0.2,0.3-0.2,0.4c0,0.2,0.1,0.3,0.2,0.4l11,6.5c0.2,0.1,0.3,0.1,0.5,0L186.4,207.9
			l0.3-0.4l-10.3-6l10.2-5.9l10,5.9l-10.4,6L186.4,207.9l0.3-0.4L186.4,207.9z"/>
		<polyline class="st0" points="186.4,190.9 186.4,203.8 175.4,197.3 175.4,184.4 		"/>
		<path class="st0" d="M185.9,190.9v12l-10-5.9v-12.6c0-0.3-0.2-0.5-0.5-0.5c-0.3,0-0.5,0.2-0.5,0.5l0,12.9c0,0.2,0.1,0.3,0.2,0.4
			l11,6.5c0.2,0.1,0.3,0.1,0.5,0c0.2-0.1,0.3-0.3,0.3-0.4v-12.9c0-0.3-0.2-0.5-0.5-0.5C186.2,190.4,185.9,190.6,185.9,190.9
			L185.9,190.9z"/>
		<polygon class="st1" points="186.4,203.8 197.6,197.3 197.6,184.4 186.4,190.9 		"/>
		<path class="st0" d="M186.4,203.8l0.3,0.4l11.2-6.5c0.2-0.1,0.2-0.3,0.2-0.4v-12.9c0-0.2-0.1-0.3-0.3-0.4c-0.2-0.1-0.3-0.1-0.5,0
			l-11.2,6.5c-0.2,0.1-0.2,0.3-0.2,0.4v12.9c0,0.2,0.1,0.3,0.3,0.4s0.3,0.1,0.5,0L186.4,203.8h0.5v-12.6l10.2-5.9v11.8l-10.9,6.3
			L186.4,203.8h0.5H186.4z"/>
		<polygon class="st1" points="186.4,190.9 197.6,184.4 186.6,178 175.4,184.4 		"/>
		<path class="st0" d="M186.4,190.9l0.3,0.4l11.2-6.5c0.2-0.1,0.2-0.3,0.2-0.4c0-0.2-0.1-0.3-0.2-0.4l-11-6.5
			c-0.2-0.1-0.3-0.1-0.5,0l-11.2,6.5c-0.2,0.1-0.2,0.3-0.2,0.4c0,0.2,0.1,0.3,0.2,0.4l11,6.5c0.2,0.1,0.3,0.1,0.5,0L186.4,190.9
			l0.3-0.4l-10.3-6l10.2-5.9l10,5.9l-10.4,6L186.4,190.9l0.3-0.4L186.4,190.9z"/>
		<rect x="127.5" y="225.8" class="st1" width="20.4" height="9"/>
		<path class="st0" d="M147.9,225.8h-0.5v8.5H128v-8h19.9V225.8h-0.5H147.9v-0.5h-20.4c-0.1,0-0.3,0.1-0.4,0.1
			c-0.1,0.1-0.1,0.2-0.1,0.4v9c0,0.1,0.1,0.3,0.1,0.4c0.1,0.1,0.2,0.1,0.4,0.1h20.4c0.1,0,0.3-0.1,0.4-0.1c0.1-0.1,0.1-0.2,0.1-0.4
			v-9c0-0.1-0.1-0.3-0.1-0.4c-0.1-0.1-0.2-0.1-0.4-0.1V225.8z"/>
		<polygon class="st1" points="158.1,217.5 158.1,226.6 147.9,234.9 147.9,225.8 		"/>
		<path class="st0" d="M158.1,217.5h-0.5v8.8l-9.2,7.5V226l10-8.1L158.1,217.5h-0.5H158.1l-0.3-0.4l-10.2,8.3
			c-0.1,0.1-0.2,0.2-0.2,0.4v9c0,0.2,0.1,0.4,0.3,0.5c0.2,0.1,0.4,0.1,0.5-0.1l10.2-8.3c0.1-0.1,0.2-0.2,0.2-0.4v-9
			c0-0.2-0.1-0.4-0.3-0.5s-0.4-0.1-0.5,0.1L158.1,217.5z"/>
		<polygon class="st1" points="147.9,209.2 158.1,217.5 147.9,225.8 127.5,225.8 117.3,217.5 127.5,209.2 		"/>
		<path class="st0" d="M147.9,209.2l-0.3,0.4l9.7,7.9l-9.6,7.8h-20l-9.6-7.8l9.6-7.8h20.2V209.2l-0.3,0.4L147.9,209.2v-0.5h-20.4
			c-0.1,0-0.2,0-0.3,0.1l-10.2,8.3c-0.1,0.1-0.2,0.2-0.2,0.4c0,0.2,0.1,0.3,0.2,0.4l10.2,8.3c0.1,0.1,0.2,0.1,0.3,0.1h20.4
			c0.1,0,0.2,0,0.3-0.1l10.2-8.3c0.1-0.1,0.2-0.2,0.2-0.4c0-0.2-0.1-0.3-0.2-0.4l-10.2-8.3c-0.1-0.1-0.2-0.1-0.3-0.1V209.2z"/>
		<polygon class="st0" points="127.5,225.8 127.5,234.9 117.3,226.6 117.3,217.5 		"/>
		<path class="st0" d="M127.5,225.8H127v8l-9.2-7.5v-7.8l9.4,7.6L127.5,225.8H127H127.5l0.3-0.4l-10.2-8.3c-0.1-0.1-0.4-0.1-0.5-0.1
			s-0.3,0.3-0.3,0.5v9c0,0.2,0.1,0.3,0.2,0.4l10.2,8.3c0.1,0.1,0.4,0.1,0.5,0.1c0.2-0.1,0.3-0.3,0.3-0.5v-9c0-0.2-0.1-0.3-0.2-0.4
			L127.5,225.8z"/>
		<rect x="127.5" y="212.6" class="st1" width="20.4" height="9"/>
		<path class="st0" d="M147.9,212.6h-0.5v8.5H128v-8h19.9V212.6h-0.5H147.9v-0.5h-20.4c-0.1,0-0.3,0.1-0.4,0.1
			c-0.1,0.1-0.1,0.2-0.1,0.4v9c0,0.1,0.1,0.3,0.1,0.4c0.1,0.1,0.2,0.1,0.4,0.1h20.4c0.1,0,0.3-0.1,0.4-0.1c0.1-0.1,0.1-0.2,0.1-0.4
			v-9c0-0.1-0.1-0.3-0.1-0.4c-0.1-0.1-0.2-0.1-0.4-0.1V212.6z"/>
		<polygon class="st1" points="158.1,204.3 158.1,213.3 147.9,221.6 147.9,212.6 		"/>
		<path class="st0" d="M158.1,204.3h-0.5v8.8l-9.2,7.5v-7.8l10-8.1L158.1,204.3h-0.5H158.1l-0.3-0.4l-10.2,8.3
			c-0.1,0.1-0.2,0.2-0.2,0.4v9c0,0.2,0.1,0.4,0.3,0.5c0.2,0.1,0.4,0.1,0.5-0.1l10.2-8.3c0.1-0.1,0.2-0.2,0.2-0.4v-9
			c0-0.2-0.1-0.4-0.3-0.5s-0.4-0.1-0.5,0.1L158.1,204.3z"/>
		<polygon class="st1" points="147.9,196 158.1,204.3 147.9,212.6 127.5,212.6 117.3,204.3 127.5,196 		"/>
		<path class="st0" d="M147.9,196l-0.3,0.4l9.7,7.9l-9.6,7.8h-20l-9.6-7.8l9.6-7.8h20.2V196l-0.3,0.4L147.9,196v-0.5h-20.4
			c-0.1,0-0.2,0-0.3,0.1l-10.2,8.3c-0.1,0.1-0.2,0.2-0.2,0.4c0,0.2,0.1,0.3,0.2,0.4l10.2,8.3c0.1,0.1,0.2,0.1,0.3,0.1h20.4
			c0.1,0,0.2,0,0.3-0.1l10.2-8.3c0.1-0.1,0.2-0.2,0.2-0.4c0-0.2-0.1-0.3-0.2-0.4l-10.2-8.3c-0.1-0.1-0.2-0.1-0.3-0.1V196z"/>
		<polygon class="st0" points="127.5,212.6 127.5,221.6 117.3,213.3 117.3,204.3 		"/>
		<path class="st0" d="M127.5,212.6H127v8l-9.2-7.5v-7.8l9.4,7.6L127.5,212.6H127H127.5l0.3-0.4l-10.2-8.3c-0.1-0.1-0.4-0.1-0.5-0.1
			s-0.3,0.3-0.3,0.5v9c0,0.2,0.1,0.3,0.2,0.4l10.2,8.3c0.1,0.1,0.4,0.1,0.5,0.1c0.2-0.1,0.3-0.3,0.3-0.5v-9c0-0.2-0.1-0.3-0.2-0.4
			L127.5,212.6z"/>
		<rect x="127.5" y="199.3" class="st1" width="20.4" height="9"/>
		<path class="st0" d="M147.9,199.3h-0.5v8.5H128v-8l19.9,0V199.3h-0.5H147.9v-0.5h-20.4c-0.1,0-0.3,0.1-0.4,0.1
			c-0.1,0.1-0.1,0.2-0.1,0.4v9c0,0.1,0.1,0.3,0.1,0.4c0.1,0.1,0.2,0.1,0.4,0.1h20.4c0.1,0,0.3-0.1,0.4-0.1c0.1-0.1,0.1-0.2,0.1-0.4
			v-9c0-0.1-0.1-0.3-0.1-0.4c-0.1-0.1-0.2-0.1-0.4-0.1V199.3z"/>
		<polygon class="st1" points="158.1,191 158.1,200.1 147.9,208.4 147.9,199.3 		"/>
		<path class="st0" d="M158.1,191h-0.5v8.8l-9.2,7.5v-7.8l10-8.1L158.1,191h-0.5H158.1l-0.3-0.4l-10.2,8.3c-0.1,0.1-0.2,0.2-0.2,0.4
			v9c0,0.2,0.1,0.4,0.3,0.5c0.2,0.1,0.4,0.1,0.5-0.1l10.2-8.3c0.1-0.1,0.2-0.2,0.2-0.4v-9c0-0.2-0.1-0.4-0.3-0.5s-0.4-0.1-0.5,0.1
			L158.1,191z"/>
		<polygon class="st1" points="147.9,182.7 158.1,191 147.9,199.3 127.5,199.3 117.3,191 127.5,182.7 		"/>
		<path class="st0" d="M147.9,182.7l-0.3,0.4l9.7,7.9l-9.6,7.8h-20l-9.6-7.8l9.6-7.8l20.2,0V182.7l-0.3,0.4L147.9,182.7v-0.5h-20.4
			c-0.1,0-0.2,0-0.3,0.1l-10.2,8.3c-0.1,0.1-0.2,0.2-0.2,0.4c0,0.2,0.1,0.3,0.2,0.4l10.2,8.3c0.1,0.1,0.2,0.1,0.3,0.1h20.4
			c0.1,0,0.2,0,0.3-0.1l10.2-8.3c0.1-0.1,0.2-0.2,0.2-0.4c0-0.2-0.1-0.3-0.2-0.4l-10.2-8.3c-0.1-0.1-0.2-0.1-0.3-0.1V182.7z"/>
		<polygon class="st2" points="127.5,199.3 127.5,208.4 117.3,200.1 117.3,191 		"/>
		<path class="st0" d="M127.5,199.3H127v8l-9.2-7.5v-7.8l9.4,7.6L127.5,199.3H127H127.5l0.3-0.4l-10.2-8.3c-0.1-0.1-0.4-0.1-0.5-0.1
			s-0.3,0.3-0.3,0.5v9c0,0.2,0.1,0.3,0.2,0.4l10.2,8.3c0.1,0.1,0.4,0.1,0.5,0.1c0.2-0.1,0.3-0.3,0.3-0.5v-9c0-0.2-0.1-0.3-0.2-0.4
			L127.5,199.3z"/>
		<rect x="248.5" y="92.3" class="st1" width="20.4" height="9"/>
		<path class="st0" d="M268.9,92.3h-0.5v8.5l-19.4,0v-8l19.9,0V92.3h-0.5H268.9v-0.5h-20.4c-0.1,0-0.3,0.1-0.4,0.1
			c-0.1,0.1-0.1,0.2-0.1,0.4v9c0,0.1,0.1,0.3,0.1,0.4c0.1,0.1,0.2,0.1,0.4,0.1h20.4c0.1,0,0.3-0.1,0.4-0.1c0.1-0.1,0.1-0.2,0.1-0.4
			v-9c0-0.1-0.1-0.3-0.1-0.4c-0.1-0.1-0.2-0.1-0.4-0.1V92.3z"/>
		<polygon class="st1" points="279.1,84 279.1,93.1 268.9,101.4 268.9,92.3 		"/>
		<path class="st0" d="M279.1,84h-0.5v8.8l-9.2,7.5l0-7.8l10-8.1L279.1,84h-0.5H279.1l-0.3-0.4l-10.2,8.3c-0.1,0.1-0.2,0.2-0.2,0.4
			v9c0,0.2,0.1,0.4,0.3,0.5c0.2,0.1,0.4,0.1,0.5-0.1l10.2-8.3c0.1-0.1,0.2-0.2,0.2-0.4v-9c0-0.2-0.1-0.4-0.3-0.5
			c-0.2-0.1-0.4-0.1-0.5,0.1L279.1,84z"/>
		<polygon class="st1" points="268.9,75.7 279.1,84 268.9,92.3 248.5,92.3 238.3,84 248.5,75.7 		"/>
		<path class="st0" d="M268.9,75.7l-0.3,0.4l9.7,7.9l-9.6,7.8h-20l-9.6-7.8l9.6-7.8l20.2,0V75.7l-0.3,0.4L268.9,75.7v-0.5h-20.4
			c-0.1,0-0.2,0-0.3,0.1l-10.2,8.3c-0.1,0.1-0.2,0.2-0.2,0.4c0,0.2,0.1,0.3,0.2,0.4l10.2,8.3c0.1,0.1,0.2,0.1,0.3,0.1h20.4
			c0.1,0,0.2,0,0.3-0.1l10.2-8.3c0.1-0.1,0.2-0.2,0.2-0.4c0-0.2-0.1-0.3-0.2-0.4l-10.2-8.3c-0.1-0.1-0.2-0.1-0.3-0.1V75.7z"/>
		<polygon class="st0" points="248.5,92.3 248.5,101.4 238.3,93.1 238.3,84 		"/>
		<path class="st0" d="M248.5,92.3H248v8l-9.2-7.5v-7.8l9.4,7.6L248.5,92.3H248H248.5l0.3-0.4l-10.2-8.3c-0.1-0.1-0.4-0.1-0.5-0.1
			c-0.2,0.1-0.3,0.3-0.3,0.5v9c0,0.2,0.1,0.3,0.2,0.4l10.2,8.3c0.1,0.1,0.4,0.1,0.5,0.1c0.2-0.1,0.3-0.3,0.3-0.5v-9
			c0-0.2-0.1-0.3-0.2-0.4L248.5,92.3z"/>
		<path class="st0" d="M189.2,167.1L189.2,167.1c-0.2,0.2-0.3,0.5-0.1,0.7c0.2,0.2,0.5,0.3,0.7,0.1v0c0.2-0.2,0.3-0.5,0.1-0.7
			C189.7,167,189.4,166.9,189.2,167.1z M193.2,164.1l-1.6,1.2c-0.2,0.2-0.3,0.5-0.1,0.7c0.2,0.2,0.5,0.3,0.7,0.1l1.6-1.2
			c0.2-0.2,0.3-0.5,0.1-0.7C193.7,164,193.4,163.9,193.2,164.1z M197,161.5L197,161.5l0.5,0l-0.3-0.4l-1.6,1.2
			c-0.2,0.2-0.3,0.5-0.1,0.7c0.2,0.2,0.5,0.3,0.7,0.1l1.6-1.2c0.1-0.1,0.2-0.2,0.2-0.4v0c0-0.3-0.2-0.5-0.5-0.5
			C197.2,161,197,161.2,197,161.5L197,161.5z M197,156.5v2c0,0.3,0.2,0.5,0.5,0.5c0.3,0,0.5-0.2,0.5-0.5v-2c0-0.3-0.2-0.5-0.5-0.5
			C197.2,156,197,156.2,197,156.5z M197,151.5v2c0,0.3,0.2,0.5,0.5,0.5c0.3,0,0.5-0.2,0.5-0.5v-2c0-0.3-0.2-0.5-0.5-0.5
			C197.2,151,197,151.2,197,151.5z M197,146.5v2c0,0.3,0.2,0.5,0.5,0.5c0.3,0,0.5-0.2,0.5-0.5v-2c0-0.3-0.2-0.5-0.5-0.5
			C197.2,146,197,146.2,197,146.5z M197,141.5v2c0,0.3,0.2,0.5,0.5,0.5c0.3,0,0.5-0.2,0.5-0.5v-2c0-0.3-0.2-0.5-0.5-0.5
			C197.2,141,197,141.2,197,141.5z M197,136.5v2c0,0.3,0.2,0.5,0.5,0.5c0.3,0,0.5-0.2,0.5-0.5v-2c0-0.3-0.2-0.5-0.5-0.5
			C197.2,136,197,136.2,197,136.5z M197,131.5v2c0,0.3,0.2,0.5,0.5,0.5c0.3,0,0.5-0.2,0.5-0.5v-2c0-0.3-0.2-0.5-0.5-0.5
			C197.2,131,197,131.2,197,131.5z M197,126.5v2c0,0.3,0.2,0.5,0.5,0.5c0.3,0,0.5-0.2,0.5-0.5v-2c0-0.3-0.2-0.5-0.5-0.5
			C197.2,126,197,126.2,197,126.5z M197,121.5v2c0,0.3,0.2,0.5,0.5,0.5c0.3,0,0.5-0.2,0.5-0.5v-2c0-0.3-0.2-0.5-0.5-0.5
			C197.2,121,197,121.2,197,121.5z M197,116.5v2c0,0.3,0.2,0.5,0.5,0.5c0.3,0,0.5-0.2,0.5-0.5v-2c0-0.3-0.2-0.5-0.5-0.5
			C197.2,116,197,116.2,197,116.5z"/>
		<polyline class="st2" points="186.4,174.9 186.4,187.8 175.4,181.3 175.4,168.4 		"/>
		<path class="st0" d="M185.9,174.9v12l-10-5.9l0-12.6c0-0.3-0.2-0.5-0.5-0.5c-0.3,0-0.5,0.2-0.5,0.5l0,12.9c0,0.2,0.1,0.3,0.2,0.4
			l11,6.5c0.2,0.1,0.3,0.1,0.5,0c0.2-0.1,0.3-0.3,0.3-0.4v-12.9c0-0.3-0.2-0.5-0.5-0.5C186.2,174.4,185.9,174.6,185.9,174.9
			L185.9,174.9z"/>
		<polygon class="st1" points="186.4,187.8 197.6,181.3 197.6,168.4 186.4,174.9 		"/>
		<path class="st0" d="M186.4,187.8l0.3,0.4l11.2-6.5c0.2-0.1,0.2-0.3,0.2-0.4v-12.9c0-0.2-0.1-0.3-0.3-0.4s-0.3-0.1-0.5,0
			l-11.2,6.5c-0.2,0.1-0.2,0.3-0.2,0.4v12.9c0,0.2,0.1,0.3,0.3,0.4s0.3,0.1,0.5,0L186.4,187.8h0.5v-12.6l10.2-5.9v11.8l-10.9,6.3
			L186.4,187.8h0.5H186.4z"/>
		<polygon class="st1" points="186.4,174.9 197.6,168.4 186.6,162 175.4,168.4 		"/>
		<path class="st0" d="M186.4,174.9l0.3,0.4l11.2-6.5c0.2-0.1,0.2-0.3,0.2-0.4c0-0.2-0.1-0.3-0.2-0.4l-11-6.5
			c-0.2-0.1-0.3-0.1-0.5,0l-11.2,6.5c-0.2,0.1-0.2,0.3-0.2,0.4c0,0.2,0.1,0.3,0.2,0.4l11,6.5c0.2,0.1,0.3,0.1,0.5,0L186.4,174.9
			l0.3-0.4l-10.3-6l10.2-5.9l10,5.9l-10.4,6L186.4,174.9l0.3-0.4L186.4,174.9z"/>
		<path class="st0" d="M241.9,95.8l1.4-1.4c0.2-0.2,0.2-0.5,0-0.7c-0.2-0.2-0.5-0.2-0.7,0l-1.4,1.4c-0.2,0.2-0.2,0.5,0,0.7
			C241.4,96,241.8,96,241.9,95.8z M238.4,99.3l1.4-1.4c0.2-0.2,0.2-0.5,0-0.7c-0.2-0.2-0.5-0.2-0.7,0l-1.4,1.4
			c-0.2,0.2-0.2,0.5,0,0.7C237.9,99.5,238.2,99.5,238.4,99.3z M234.9,102.8l1.4-1.4c0.2-0.2,0.2-0.5,0-0.7c-0.2-0.2-0.5-0.2-0.7,0
			l-1.4,1.4c-0.2,0.2-0.2,0.5,0,0.7C234.4,103,234.7,103,234.9,102.8z M231.3,106.4l1.4-1.4c0.2-0.2,0.2-0.5,0-0.7
			c-0.2-0.2-0.5-0.2-0.7,0l-1.4,1.4c-0.2,0.2-0.2,0.5,0,0.7C230.8,106.6,231.1,106.6,231.3,106.4z M227.8,109.9l1.4-1.4
			c0.2-0.2,0.2-0.5,0-0.7c-0.2-0.2-0.5-0.2-0.7,0l-1.4,1.4c-0.2,0.2-0.2,0.5,0,0.7C227.3,110.1,227.6,110.1,227.8,109.9z
			 M224.3,113.4l1.4-1.4c0.2-0.2,0.2-0.5,0-0.7c-0.2-0.2-0.5-0.2-0.7,0l-1.4,1.4c-0.2,0.2-0.2,0.5,0,0.7
			C223.8,113.6,224.1,113.6,224.3,113.4z M219.5,115h2c0.3,0,0.5-0.2,0.5-0.5c0-0.3-0.2-0.5-0.5-0.5h-2c-0.3,0-0.5,0.2-0.5,0.5
			C219,114.8,219.2,115,219.5,115z M214.5,115h2c0.3,0,0.5-0.2,0.5-0.5c0-0.3-0.2-0.5-0.5-0.5h-2c-0.3,0-0.5,0.2-0.5,0.5
			C214,114.8,214.2,115,214.5,115z M209.5,115h2c0.3,0,0.5-0.2,0.5-0.5c0-0.3-0.2-0.5-0.5-0.5h-2c-0.3,0-0.5,0.2-0.5,0.5
			C209,114.8,209.2,115,209.5,115z M204.5,115h2c0.3,0,0.5-0.2,0.5-0.5c0-0.3-0.2-0.5-0.5-0.5h-2c-0.3,0-0.5,0.2-0.5,0.5
			C204,114.8,204.2,115,204.5,115z M199.5,115h2c0.3,0,0.5-0.2,0.5-0.5c0-0.3-0.2-0.5-0.5-0.5h-2c-0.3,0-0.5,0.2-0.5,0.5
			C199,114.8,199.2,115,199.5,115z M194.5,115h2c0.3,0,0.5-0.2,0.5-0.5c0-0.3-0.2-0.5-0.5-0.5h-2c-0.3,0-0.5,0.2-0.5,0.5
			C194,114.8,194.2,115,194.5,115z"/>
		<circle class="st1" cx="41" cy="29" r="4"/>
		<path class="st0" d="M45,29h0.5c0-2.5-2-4.5-4.5-4.5c-2.5,0-4.5,2-4.5,4.5c0,2.5,2,4.5,4.5,4.5c2.5,0,4.5-2,4.5-4.5H45h-0.5
			c0,1.9-1.6,3.5-3.5,3.5c-1.9,0-3.5-1.6-3.5-3.5c0-1.9,1.6-3.5,3.5-3.5c1.9,0,3.5,1.6,3.5,3.5H45z"/>
		<circle class="st2" cx="55.5" cy="29" r="4"/>
		<path class="st0" d="M59.5,29H60c0-2.5-2-4.5-4.5-4.5c-2.5,0-4.5,2-4.5,4.5c0,2.5,2,4.5,4.5,4.5c2.5,0,4.5-2,4.5-4.5H59.5H59
			c0,1.9-1.6,3.5-3.5,3.5c-1.9,0-3.5-1.6-3.5-3.5c0-1.9,1.6-3.5,3.5-3.5c1.9,0,3.5,1.6,3.5,3.5H59.5z"/>
		<circle class="st1" cx="70" cy="29" r="4"/>
		<path class="st0" d="M74,29h0.5c0-2.5-2-4.5-4.5-4.5c-2.5,0-4.5,2-4.5,4.5c0,2.5,2,4.5,4.5,4.5c2.5,0,4.5-2,4.5-4.5H74h-0.5
			c0,1.9-1.6,3.5-3.5,3.5c-1.9,0-3.5-1.6-3.5-3.5c0-1.9,1.6-3.5,3.5-3.5c1.9,0,3.5,1.6,3.5,3.5H74z"/>
		<rect x="248.5" y="145.3" class="st1" width="20.4" height="9"/>
		<path class="st0" d="M268.9,145.3h-0.5v8.5H249v-8l19.9,0V145.3h-0.5H268.9v-0.5h-20.4c-0.1,0-0.3,0.1-0.4,0.1
			c-0.1,0.1-0.1,0.2-0.1,0.4v9c0,0.1,0.1,0.3,0.1,0.4c0.1,0.1,0.2,0.1,0.4,0.1h20.4c0.1,0,0.3-0.1,0.4-0.1c0.1-0.1,0.1-0.2,0.1-0.4
			v-9c0-0.1-0.1-0.3-0.1-0.4c-0.1-0.1-0.2-0.1-0.4-0.1V145.3z"/>
		<polygon class="st1" points="279.1,137 279.1,146.1 268.9,154.4 268.9,145.3 		"/>
		<path class="st0" d="M279.1,137h-0.5v8.8l-9.2,7.5l0-7.8l10-8.1L279.1,137h-0.5H279.1l-0.3-0.4l-10.2,8.3
			c-0.1,0.1-0.2,0.2-0.2,0.4v9c0,0.2,0.1,0.4,0.3,0.5c0.2,0.1,0.4,0.1,0.5-0.1l10.2-8.3c0.1-0.1,0.2-0.2,0.2-0.4v-9
			c0-0.2-0.1-0.4-0.3-0.5c-0.2-0.1-0.4-0.1-0.5,0.1L279.1,137z"/>
		<polygon class="st1" points="268.9,128.7 279.1,137 268.9,145.3 248.5,145.3 238.3,137 248.5,128.7 		"/>
		<path class="st0" d="M268.9,128.7l-0.3,0.4l9.7,7.9l-9.6,7.8h-20l-9.6-7.8l9.6-7.8l20.2,0V128.7l-0.3,0.4L268.9,128.7v-0.5h-20.4
			c-0.1,0-0.2,0-0.3,0.1l-10.2,8.3c-0.1,0.1-0.2,0.2-0.2,0.4c0,0.2,0.1,0.3,0.2,0.4l10.2,8.3c0.1,0.1,0.2,0.1,0.3,0.1h20.4
			c0.1,0,0.2,0,0.3-0.1l10.2-8.3c0.1-0.1,0.2-0.2,0.2-0.4c0-0.2-0.1-0.3-0.2-0.4l-10.2-8.3c-0.1-0.1-0.2-0.1-0.3-0.1V128.7z"/>
		<polygon class="st0" points="248.5,145.3 248.5,154.4 238.3,146.1 238.3,137 		"/>
		<path class="st0" d="M248.5,145.3H248v8l-9.2-7.5v-7.8l9.4,7.6L248.5,145.3H248H248.5l0.3-0.4l-10.2-8.3c-0.1-0.1-0.4-0.1-0.5-0.1
			c-0.2,0.1-0.3,0.3-0.3,0.5v9c0,0.2,0.1,0.3,0.2,0.4l10.2,8.3c0.1,0.1,0.4,0.1,0.5,0.1c0.2-0.1,0.3-0.3,0.3-0.5v-9
			c0-0.2-0.1-0.3-0.2-0.4L248.5,145.3z"/>
		<rect x="248.5" y="131.3" class="st1" width="20.4" height="9"/>
		<path class="st0" d="M268.9,131.3h-0.5v8.5H249v-8l19.9,0V131.3h-0.5H268.9v-0.5h-20.4c-0.1,0-0.3,0.1-0.4,0.1
			c-0.1,0.1-0.1,0.2-0.1,0.4v9c0,0.1,0.1,0.3,0.1,0.4c0.1,0.1,0.2,0.1,0.4,0.1h20.4c0.1,0,0.3-0.1,0.4-0.1c0.1-0.1,0.1-0.2,0.1-0.4
			v-9c0-0.1-0.1-0.3-0.1-0.4c-0.1-0.1-0.2-0.1-0.4-0.1V131.3z"/>
		<polygon class="st1" points="279.1,123 279.1,132.1 268.9,140.4 268.9,131.3 		"/>
		<path class="st0" d="M279.1,123h-0.5v8.8l-9.2,7.5l0-7.8l10-8.1L279.1,123h-0.5H279.1l-0.3-0.4l-10.2,8.3
			c-0.1,0.1-0.2,0.2-0.2,0.4v9c0,0.2,0.1,0.4,0.3,0.5c0.2,0.1,0.4,0.1,0.5-0.1l10.2-8.3c0.1-0.1,0.2-0.2,0.2-0.4v-9
			c0-0.2-0.1-0.4-0.3-0.5c-0.2-0.1-0.4-0.1-0.5,0.1L279.1,123z"/>
		<polygon class="st1" points="268.9,114.7 279.1,123 268.9,131.3 248.5,131.3 238.3,123 248.5,114.7 		"/>
		<path class="st0" d="M268.9,114.7l-0.3,0.4l9.7,7.9l-9.6,7.8h-20l-9.6-7.8l9.6-7.8l20.2,0V114.7l-0.3,0.4L268.9,114.7v-0.5h-20.4
			c-0.1,0-0.2,0-0.3,0.1l-10.2,8.3c-0.1,0.1-0.2,0.2-0.2,0.4c0,0.2,0.1,0.3,0.2,0.4l10.2,8.3c0.1,0.1,0.2,0.1,0.3,0.1h20.4
			c0.1,0,0.2,0,0.3-0.1l10.2-8.3c0.1-0.1,0.2-0.2,0.2-0.4c0-0.2-0.1-0.3-0.2-0.4l-10.2-8.3c-0.1-0.1-0.2-0.1-0.3-0.1V114.7z"/>
		<polygon class="st2" points="248.5,131.3 248.5,140.4 238.3,132.1 238.3,123 		"/>
		<path class="st0" d="M248.5,131.3H248v8l-9.2-7.5v-7.8l9.4,7.6L248.5,131.3H248H248.5l0.3-0.4l-10.2-8.3c-0.1-0.1-0.4-0.1-0.5-0.1
			c-0.2,0.1-0.3,0.3-0.3,0.5v9c0,0.2,0.1,0.3,0.2,0.4l10.2,8.3c0.1,0.1,0.4,0.1,0.5,0.1c0.2-0.1,0.3-0.3,0.3-0.5v-9
			c0-0.2-0.1-0.3-0.2-0.4L248.5,131.3z"/>
		<path class="st0" d="M244.8,225.1h-1.7c-0.3,0-0.5,0.2-0.5,0.5c0,0.3,0.2,0.5,0.5,0.5h1.7c0.3,0,0.5-0.2,0.5-0.5
			C245.3,225.3,245.1,225.1,244.8,225.1z M249.8,225.1h-2c-0.3,0-0.5,0.2-0.5,0.5c0,0.3,0.2,0.5,0.5,0.5h2c0.3,0,0.5-0.2,0.5-0.5
			C250.3,225.3,250.1,225.1,249.8,225.1z M254.8,225.1h-2c-0.3,0-0.5,0.2-0.5,0.5c0,0.3,0.2,0.5,0.5,0.5h2c0.3,0,0.5-0.2,0.5-0.5
			C255.3,225.3,255.1,225.1,254.8,225.1z M259.8,225.1h-2c-0.3,0-0.5,0.2-0.5,0.5c0,0.3,0.2,0.5,0.5,0.5h2c0.3,0,0.5-0.2,0.5-0.5
			C260.3,225.3,260.1,225.1,259.8,225.1z M264.8,225.1h-2c-0.3,0-0.5,0.2-0.5,0.5c0,0.3,0.2,0.5,0.5,0.5h2c0.3,0,0.5-0.2,0.5-0.5
			C265.3,225.3,265.1,225.1,264.8,225.1z M269.8,225.1h-2c-0.3,0-0.5,0.2-0.5,0.5c0,0.3,0.2,0.5,0.5,0.5h2c0.3,0,0.5-0.2,0.5-0.5
			C270.3,225.3,270.1,225.1,269.8,225.1z M274.8,225.1h-2c-0.3,0-0.5,0.2-0.5,0.5c0,0.3,0.2,0.5,0.5,0.5h2c0.3,0,0.5-0.2,0.5-0.5
			C275.3,225.3,275.1,225.1,274.8,225.1z M279.8,225.1h-2c-0.3,0-0.5,0.2-0.5,0.5c0,0.3,0.2,0.5,0.5,0.5h2c0.3,0,0.5-0.2,0.5-0.5
			C280.3,225.3,280.1,225.1,279.8,225.1z M284.8,225.1h-2c-0.3,0-0.5,0.2-0.5,0.5c0,0.3,0.2,0.5,0.5,0.5h2c0.3,0,0.5-0.2,0.5-0.5
			C285.3,225.3,285.1,225.1,284.8,225.1z M289.8,225.1h-2c-0.3,0-0.5,0.2-0.5,0.5c0,0.3,0.2,0.5,0.5,0.5h2c0.3,0,0.5-0.2,0.5-0.5
			C290.3,225.3,290.1,225.1,289.8,225.1z M294.8,225.1h-2c-0.3,0-0.5,0.2-0.5,0.5c0,0.3,0.2,0.5,0.5,0.5h2c0.3,0,0.5-0.2,0.5-0.5
			C295.3,225.3,295.1,225.1,294.8,225.1z M299.8,225.1h-2c-0.3,0-0.5,0.2-0.5,0.5c0,0.3,0.2,0.5,0.5,0.5h2c0.3,0,0.5-0.2,0.5-0.5
			C300.3,225.3,300.1,225.1,299.8,225.1z M304.8,225.1h-2c-0.3,0-0.5,0.2-0.5,0.5c0,0.3,0.2,0.5,0.5,0.5h2c0.3,0,0.5-0.2,0.5-0.5
			C305.3,225.3,305.1,225.1,304.8,225.1z M309.8,225.1h-2c-0.3,0-0.5,0.2-0.5,0.5c0,0.3,0.2,0.5,0.5,0.5h2c0.3,0,0.5-0.2,0.5-0.5
			C310.3,225.3,310.1,225.1,309.8,225.1z M310.1,221.4v2c0,0.3,0.2,0.5,0.5,0.5c0.3,0,0.5-0.2,0.5-0.5v-2c0-0.3-0.2-0.5-0.5-0.5
			C310.3,220.9,310.1,221.1,310.1,221.4z M310.1,216.4v2c0,0.3,0.2,0.5,0.5,0.5c0.3,0,0.5-0.2,0.5-0.5v-2c0-0.3-0.2-0.5-0.5-0.5
			C310.3,215.9,310.1,216.1,310.1,216.4z M310.1,211.4v2c0,0.3,0.2,0.5,0.5,0.5c0.3,0,0.5-0.2,0.5-0.5v-2c0-0.3-0.2-0.5-0.5-0.5
			C310.3,210.9,310.1,211.1,310.1,211.4z M310.1,206.4v2c0,0.3,0.2,0.5,0.5,0.5c0.3,0,0.5-0.2,0.5-0.5v-2c0-0.3-0.2-0.5-0.5-0.5
			C310.3,205.9,310.1,206.1,310.1,206.4z M310.1,201.4v2c0,0.3,0.2,0.5,0.5,0.5c0.3,0,0.5-0.2,0.5-0.5v-2c0-0.3-0.2-0.5-0.5-0.5
			C310.3,200.9,310.1,201.1,310.1,201.4z M310.1,196.4v2c0,0.3,0.2,0.5,0.5,0.5c0.3,0,0.5-0.2,0.5-0.5v-2c0-0.3-0.2-0.5-0.5-0.5
			C310.3,195.9,310.1,196.1,310.1,196.4z M310.1,191.4v2c0,0.3,0.2,0.5,0.5,0.5c0.3,0,0.5-0.2,0.5-0.5v-2c0-0.3-0.2-0.5-0.5-0.5
			C310.3,190.9,310.1,191.1,310.1,191.4z M310.1,186.4v2c0,0.3,0.2,0.5,0.5,0.5c0.3,0,0.5-0.2,0.5-0.5v-2c0-0.3-0.2-0.5-0.5-0.5
			C310.3,185.9,310.1,186.1,310.1,186.4z M310.1,181.4v2c0,0.3,0.2,0.5,0.5,0.5c0.3,0,0.5-0.2,0.5-0.5v-2c0-0.3-0.2-0.5-0.5-0.5
			C310.3,180.9,310.1,181.1,310.1,181.4z M310.1,176.4v2c0,0.3,0.2,0.5,0.5,0.5c0.3,0,0.5-0.2,0.5-0.5v-2c0-0.3-0.2-0.5-0.5-0.5
			C310.3,175.9,310.1,176.1,310.1,176.4z M310.1,171.4v2c0,0.3,0.2,0.5,0.5,0.5c0.3,0,0.5-0.2,0.5-0.5v-2c0-0.3-0.2-0.5-0.5-0.5
			C310.3,170.9,310.1,171.1,310.1,171.4z M310.1,166.4v2c0,0.3,0.2,0.5,0.5,0.5c0.3,0,0.5-0.2,0.5-0.5v-2c0-0.3-0.2-0.5-0.5-0.5
			C310.3,165.9,310.1,166.1,310.1,166.4z M310.1,161.4v2c0,0.3,0.2,0.5,0.5,0.5c0.3,0,0.5-0.2,0.5-0.5v-2c0-0.3-0.2-0.5-0.5-0.5
			C310.3,160.9,310.1,161.1,310.1,161.4z M310.1,156.4v2c0,0.3,0.2,0.5,0.5,0.5c0.3,0,0.5-0.2,0.5-0.5v-2c0-0.3-0.2-0.5-0.5-0.5
			C310.3,155.9,310.1,156.1,310.1,156.4z M310.1,151.4v2c0,0.3,0.2,0.5,0.5,0.5c0.3,0,0.5-0.2,0.5-0.5v-2c0-0.3-0.2-0.5-0.5-0.5
			C310.3,150.9,310.1,151.1,310.1,151.4z M310.1,146.4v2c0,0.3,0.2,0.5,0.5,0.5c0.3,0,0.5-0.2,0.5-0.5v-2c0-0.3-0.2-0.5-0.5-0.5
			C310.3,145.9,310.1,146.1,310.1,146.4z M310.1,141.4v2c0,0.3,0.2,0.5,0.5,0.5c0.3,0,0.5-0.2,0.5-0.5v-2c0-0.3-0.2-0.5-0.5-0.5
			C310.3,140.9,310.1,141.1,310.1,141.4z M310.1,136.4v2c0,0.3,0.2,0.5,0.5,0.5c0.3,0,0.5-0.2,0.5-0.5v-2c0-0.3-0.2-0.5-0.5-0.5
			C310.3,135.9,310.1,136.1,310.1,136.4z M310.1,131.4v2c0,0.3,0.2,0.5,0.5,0.5c0.3,0,0.5-0.2,0.5-0.5v-2c0-0.3-0.2-0.5-0.5-0.5
			C310.3,130.9,310.1,131.1,310.1,131.4z M310.1,126.4v2c0,0.3,0.2,0.5,0.5,0.5c0.3,0,0.5-0.2,0.5-0.5v-2c0-0.3-0.2-0.5-0.5-0.5
			C310.3,125.9,310.1,126.1,310.1,126.4z M310.1,121.4v2c0,0.3,0.2,0.5,0.5,0.5c0.3,0,0.5-0.2,0.5-0.5v-2c0-0.3-0.2-0.5-0.5-0.5
			C310.3,120.9,310.1,121.1,310.1,121.4z M310.1,116.4v2c0,0.3,0.2,0.5,0.5,0.5c0.3,0,0.5-0.2,0.5-0.5v-2c0-0.3-0.2-0.5-0.5-0.5
			C310.3,115.9,310.1,116.1,310.1,116.4z M310.1,111.4v2c0,0.3,0.2,0.5,0.5,0.5c0.3,0,0.5-0.2,0.5-0.5v-2c0-0.3-0.2-0.5-0.5-0.5
			C310.3,110.9,310.1,111.1,310.1,111.4z M310.1,106.4v2c0,0.3,0.2,0.5,0.5,0.5c0.3,0,0.5-0.2,0.5-0.5v-2c0-0.3-0.2-0.5-0.5-0.5
			C310.3,105.9,310.1,106.1,310.1,106.4z M310.1,101.4v2c0,0.3,0.2,0.5,0.5,0.5c0.3,0,0.5-0.2,0.5-0.5v-2c0-0.3-0.2-0.5-0.5-0.5
			C310.3,100.9,310.1,101.1,310.1,101.4z M310.1,96.4v2c0,0.3,0.2,0.5,0.5,0.5c0.3,0,0.5-0.2,0.5-0.5v-2c0-0.3-0.2-0.5-0.5-0.5
			C310.3,95.9,310.1,96.1,310.1,96.4z M309,93.5h1.6V93h-0.5v0.4c0,0.3,0.2,0.5,0.5,0.5c0.3,0,0.5-0.2,0.5-0.5l0-0.4
			c0-0.1-0.1-0.3-0.1-0.4c-0.1-0.1-0.2-0.1-0.4-0.1H309c-0.3,0-0.5,0.2-0.5,0.5C308.5,93.3,308.7,93.5,309,93.5L309,93.5z M304,93.5
			h2c0.3,0,0.5-0.2,0.5-0.5c0-0.3-0.2-0.5-0.5-0.5h-2c-0.3,0-0.5,0.2-0.5,0.5C303.5,93.3,303.7,93.5,304,93.5z M299,93.5h2
			c0.3,0,0.5-0.2,0.5-0.5c0-0.3-0.2-0.5-0.5-0.5h-2c-0.3,0-0.5,0.2-0.5,0.5C298.5,93.3,298.7,93.5,299,93.5z M294,93.5h2
			c0.3,0,0.5-0.2,0.5-0.5c0-0.3-0.2-0.5-0.5-0.5h-2c-0.3,0-0.5,0.2-0.5,0.5C293.5,93.3,293.7,93.5,294,93.5z M289,93.5h2
			c0.3,0,0.5-0.2,0.5-0.5c0-0.3-0.2-0.5-0.5-0.5h-2c-0.3,0-0.5,0.2-0.5,0.5C288.5,93.3,288.7,93.5,289,93.5z M284,93.5h2
			c0.3,0,0.5-0.2,0.5-0.5c0-0.3-0.2-0.5-0.5-0.5h-2c-0.3,0-0.5,0.2-0.5,0.5C283.5,93.3,283.7,93.5,284,93.5z M279,93.5h2
			c0.3,0,0.5-0.2,0.5-0.5c0-0.3-0.2-0.5-0.5-0.5h-2c-0.3,0-0.5,0.2-0.5,0.5C278.5,93.3,278.7,93.5,279,93.5z M274,93.5h2
			c0.3,0,0.5-0.2,0.5-0.5c0-0.3-0.2-0.5-0.5-0.5h-2c-0.3,0-0.5,0.2-0.5,0.5C273.5,93.3,273.7,93.5,274,93.5z"/>
		<polygon class="st0" points="292,243.5 292,243 27.5,243 27.5,49.9 291.5,49.9 291.5,243.5 292,243.5 292,243 292,243.5 
			292.5,243.5 292.5,48.9 26.5,48.9 26.5,244 292.5,244 292.5,243.5 		"/>
		<polygon class="st0" points="292.5,40.5 292.5,40 28,40 28,16.3 292,16.3 292,40.5 292.5,40.5 292.5,40 292.5,40.5 293,40.5 
			293,15.3 27,15.3 27,41 293,41 293,40.5 		"/>
		<polyline class="st0" points="186.4,109.9 186.4,129.4 169.7,119.6 169.7,100.1 		"/>
		<path class="st0" d="M185.9,109.9v18.6l-15.7-9.2l0-19.2c0-0.3-0.2-0.5-0.5-0.5c-0.3,0-0.5,0.2-0.5,0.5l0,19.5
			c0,0.2,0.1,0.3,0.2,0.4l16.7,9.8c0.2,0.1,0.3,0.1,0.5,0c0.2-0.1,0.3-0.3,0.3-0.4v-19.5c0-0.3-0.2-0.5-0.5-0.5
			C186.1,109.4,185.9,109.6,185.9,109.9L185.9,109.9z"/>
		<polygon class="st1" points="186.4,129.4 203.3,119.6 203.3,100.1 186.4,109.9 		"/>
		<path class="st0" d="M186.4,129.4l0.3,0.4l16.9-9.8c0.2-0.1,0.2-0.3,0.2-0.4v-19.5c0-0.2-0.1-0.3-0.3-0.4s-0.3-0.1-0.5,0
			l-16.9,9.8c-0.2,0.1-0.2,0.3-0.2,0.4v19.5c0,0.2,0.1,0.3,0.3,0.4s0.3,0.1,0.5,0L186.4,129.4h0.5v-19.2l15.9-9.2v18.3l-16.6,9.6
			L186.4,129.4h0.5H186.4z"/>
		<polygon class="st1" points="186.4,109.9 203.3,100.1 186.6,90.4 169.7,100.1 		"/>
		<path class="st0" d="M186.4,109.9l0.3,0.4l16.9-9.8c0.2-0.1,0.2-0.3,0.2-0.4c0-0.2-0.1-0.3-0.2-0.4L186.9,90
			c-0.2-0.1-0.3-0.1-0.5,0l-16.9,9.8c-0.2,0.1-0.2,0.3-0.2,0.4c0,0.2,0.1,0.3,0.2,0.4l16.7,9.8c0.2,0.1,0.3,0.1,0.5,0L186.4,109.9
			l0.3-0.4l-15.9-9.3l15.9-9.2l15.7,9.2l-16.1,9.3L186.4,109.9l0.3-0.4L186.4,109.9z"/>
		<polyline class="st2" points="186.4,83.9 186.4,103.4 169.7,93.6 169.7,74.1 		"/>
		<path class="st0" d="M185.9,83.9v18.6l-15.7-9.2l0-19.2c0-0.3-0.2-0.5-0.5-0.5c-0.3,0-0.5,0.2-0.5,0.5l0,19.5
			c0,0.2,0.1,0.3,0.2,0.4l16.7,9.8c0.2,0.1,0.3,0.1,0.5,0c0.2-0.1,0.3-0.3,0.3-0.4V83.9c0-0.3-0.2-0.5-0.5-0.5
			C186.1,83.4,185.9,83.6,185.9,83.9L185.9,83.9z"/>
		<polygon class="st1" points="186.4,103.4 203.3,93.6 203.3,74.1 186.4,83.9 		"/>
		<path class="st0" d="M186.4,103.4l0.3,0.4l16.9-9.8c0.2-0.1,0.2-0.3,0.2-0.4V74.1c0-0.2-0.1-0.3-0.3-0.4s-0.3-0.1-0.5,0l-16.9,9.8
			c-0.2,0.1-0.2,0.3-0.2,0.4v19.5c0,0.2,0.1,0.3,0.3,0.4s0.3,0.1,0.5,0L186.4,103.4h0.5V84.2l15.9-9.2v18.3l-16.6,9.6L186.4,103.4
			h0.5H186.4z"/>
		<polygon class="st1" points="186.4,83.9 203.3,74.1 186.6,64.4 169.7,74.1 		"/>
		<path class="st0" d="M186.4,83.9l0.3,0.4l16.9-9.8c0.2-0.1,0.2-0.3,0.2-0.4c0-0.2-0.1-0.3-0.2-0.4L186.9,64
			c-0.2-0.1-0.3-0.1-0.5,0l-16.9,9.8c-0.2,0.1-0.2,0.3-0.2,0.4c0,0.2,0.1,0.3,0.2,0.4l16.7,9.8c0.2,0.1,0.3,0.1,0.5,0L186.4,83.9
			l0.3-0.4l-15.9-9.3l15.9-9.2l15.7,9.2l-16.1,9.3L186.4,83.9l0.3-0.4L186.4,83.9z"/>
		<polyline class="st0" points="186.4,57.9 186.4,77.4 169.7,67.6 169.7,48.1 		"/>
		<path class="st0" d="M185.9,57.9v18.6l-15.7-9.2l0-19.2c0-0.3-0.2-0.5-0.5-0.5c-0.3,0-0.5,0.2-0.5,0.5l0,19.5
			c0,0.2,0.1,0.3,0.2,0.4l16.7,9.8c0.2,0.1,0.3,0.1,0.5,0c0.2-0.1,0.3-0.3,0.3-0.4V57.9c0-0.3-0.2-0.5-0.5-0.5
			C186.1,57.4,185.9,57.6,185.9,57.9L185.9,57.9z"/>
		<polygon class="st1" points="186.4,77.4 203.3,67.6 203.3,48.1 186.4,57.9 		"/>
		<path class="st0" d="M186.4,77.4l0.3,0.4l16.9-9.8c0.2-0.1,0.2-0.3,0.2-0.4V48.1c0-0.2-0.1-0.3-0.3-0.4s-0.3-0.1-0.5,0l-16.9,9.8
			c-0.2,0.1-0.2,0.3-0.2,0.4v19.5c0,0.2,0.1,0.3,0.3,0.4s0.3,0.1,0.5,0L186.4,77.4h0.5V58.2l15.9-9.2v18.3L186.2,77L186.4,77.4h0.5
			H186.4z"/>
		<polygon class="st1" points="186.4,57.9 203.3,48.1 186.6,38.4 169.7,48.1 		"/>
		<path class="st0" d="M186.4,57.9l0.3,0.4l16.9-9.8c0.2-0.1,0.2-0.3,0.2-0.4c0-0.2-0.1-0.3-0.2-0.4L186.9,38
			c-0.2-0.1-0.3-0.1-0.5,0l-16.9,9.8c-0.2,0.1-0.2,0.3-0.2,0.4c0,0.2,0.1,0.3,0.2,0.4l16.7,9.8c0.2,0.1,0.3,0.1,0.5,0L186.4,57.9
			l0.3-0.4l-15.9-9.3l15.9-9.2l15.7,9.2l-16.1,9.3L186.4,57.9l0.3-0.4L186.4,57.9z"/>
		<polyline class="st2" points="186.4,31.9 186.4,51.4 169.7,41.6 169.7,22.1 		"/>
		<path class="st0" d="M185.9,31.9v18.6l-15.7-9.2l0-19.2c0-0.3-0.2-0.5-0.5-0.5c-0.3,0-0.5,0.2-0.5,0.5l0,19.5
			c0,0.2,0.1,0.3,0.2,0.4l16.7,9.8c0.2,0.1,0.3,0.1,0.5,0c0.2-0.1,0.3-0.3,0.3-0.4V31.9c0-0.3-0.2-0.5-0.5-0.5
			C186.1,31.4,185.9,31.6,185.9,31.9L185.9,31.9z"/>
		<polygon class="st1" points="186.4,51.4 203.3,41.6 203.3,22.1 186.4,31.9 		"/>
		<path class="st0" d="M186.4,51.4l0.3,0.4l16.9-9.8c0.2-0.1,0.2-0.3,0.2-0.4V22.1c0-0.2-0.1-0.3-0.3-0.4s-0.3-0.1-0.5,0l-16.9,9.8
			c-0.2,0.1-0.2,0.3-0.2,0.4v19.5c0,0.2,0.1,0.3,0.3,0.4s0.3,0.1,0.5,0L186.4,51.4h0.5V32.2l15.9-9.2v18.3L186.2,51L186.4,51.4h0.5
			H186.4z"/>
		<polygon class="st1" points="186.4,31.9 203.3,22.1 186.6,12.4 169.7,22.1 		"/>
		<path class="st0" d="M186.4,31.9l0.3,0.4l16.9-9.8c0.2-0.1,0.2-0.3,0.2-0.4c0-0.2-0.1-0.3-0.2-0.4L186.9,12
			c-0.2-0.1-0.3-0.1-0.5,0l-16.9,9.8c-0.2,0.1-0.2,0.3-0.2,0.4c0,0.2,0.1,0.3,0.2,0.4l16.7,9.8c0.2,0.1,0.3,0.1,0.5,0L186.4,31.9
			l0.3-0.4l-15.9-9.3l15.9-9.2l15.7,9.2l-16.1,9.3L186.4,31.9l0.3-0.4L186.4,31.9z"/>
		<path class="st1" d="M432,198L432,198l-51,0c-11.6,0-21,9.4-21,21v131h52V219C412,207.7,420.9,198.6,432,198z"/>
		<path class="st0" d="M432,198h0.5v0v-0.5H381c-11.9,0-21.5,9.6-21.5,21.5v131.5h53V219c0-11,8.7-19.9,19.5-20.4l0.5,0V198H432
			l0-0.5c-11.4,0.5-20.5,9.9-20.5,21.4v130.5h-51l0-130.5c0-5.7,2.3-10.8,6-14.5c3.7-3.7,8.8-6,14.5-6h51V198l-0.5,0v0H432l0-0.5
			L432,198z"/>
	</g>
</g>
</svg>
