<?xml version="1.0" encoding="utf-8"?>
<!-- Generator: Adobe Illustrator 23.0.3, SVG Export Plug-In . SVG Version: 6.00 Build 0)  -->
<svg version="1.1" xmlns="http://www.w3.org/2000/svg" xmlns:xlink="http://www.w3.org/1999/xlink" x="0px" y="0px"
	 viewBox="0 0 443.4 534.7" style="enable-background:new 0 0 443.4 534.7;" xml:space="preserve">
<style type="text/css">
	.st0{fill:none;stroke:#0031E2;stroke-miterlimit:10;}
	.st1{fill:#FFFFFF;stroke:#0031E2;stroke-linecap:round;stroke-linejoin:round;stroke-miterlimit:10;}
	.st2{fill:#0031E2;stroke:#0031E2;stroke-linecap:round;stroke-linejoin:round;stroke-miterlimit:10;}
	.st3{fill:none;stroke:#99ADF3;stroke-miterlimit:10;stroke-dasharray:2,3;}
	.st4{fill:#FFFFFF;stroke:#0031E2;stroke-miterlimit:10;}
	.st5{fill:#0031E2;stroke:#0031E2;stroke-miterlimit:10;}
	.st6{fill:#1BC263;stroke:#0031E2;stroke-miterlimit:10;}
	.st7{fill:#0031E2;}
	.st8{fill:#FFFFFF;stroke:#FF0000;stroke-miterlimit:10;}
	.st9{fill:#FFFFFF;}
	.st10{fill:#FFFFFF;stroke:#CCD6F9;stroke-linecap:round;stroke-linejoin:round;stroke-miterlimit:10;}
</style>
<g id="Layer_5">
	<line class="st0" x1="369.3" y1="253.1" x2="79.4" y2="253.1"/>
	<g>
		<polygon class="st1" points="328.1,472.8 328.1,495.3 302.7,516 302.7,493.5 		"/>
		<rect x="251.9" y="493.5" class="st1" width="50.8" height="22.5"/>
		<polygon class="st1" points="302.7,452.1 328.1,472.8 302.7,493.5 251.9,493.5 226.5,472.8 251.9,452.1 		"/>
		<polygon class="st2" points="251.9,493.5 251.9,516 226.5,495.3 226.5,472.8 		"/>
	</g>
	<g>
		<rect x="43.7" y="393.3" class="st1" width="50.8" height="22.5"/>
		<polygon class="st1" points="119.9,372.6 119.9,395.2 94.5,415.9 94.5,393.3 		"/>
		<polygon class="st1" points="94.5,352 119.9,372.6 94.5,393.3 43.7,393.3 18.3,372.6 43.7,352 		"/>
		<polygon class="st2" points="43.7,393.3 43.7,415.9 18.3,395.2 18.3,372.6 		"/>
	</g>
	<line class="st3" x1="94.5" y1="387.4" x2="94.5" y2="286.1"/>
	<line class="st3" x1="328.1" y1="458.3" x2="328.1" y2="357.1"/>
</g>
<g id="Layer_13">
	<path class="st4" d="M178.6,223.7c-2,4.9-8.3,15.4-8.3,15.4l-11.8-2.7l7.5-16.9"/>
	<path class="st5" d="M170.3,239.1l-11.8-2.7c0,0-8.5,6.4-12,8.6c-3.1,2-11.7,1.1-15.2,2.4c-5.1,1.9-6.7,5.6-6.7,5.6h46.6
		c0,0,0.8-3.8,0.7-5.5C171.7,244.7,170.3,239.1,170.3,239.1z"/>
	<polygon class="st6" points="158.4,229.3 295.5,252.6 261.9,121 224.6,92.9 	"/>
	<path class="st1" d="M230,202.8l-33.9,21.7l-33.9-21.7c-28.3-18.1-45.5-49.5-45.5-83.1V43.3l79.4-21.1l79.4,21.1v76.5
		C275.5,153.4,258.4,184.7,230,202.8z"/>
</g>
<g id="Layer_7">
</g>
<g id="Layer_14">
	<polygon class="st7" points="275.3,71.7 256.7,140.1 295.5,138.8 283.5,71.7 	"/>
	<path class="st4" d="M275.3,71.7l25.6,6l1.3,12.6l-3.6,12.7l1,9.8l-5.7,10.5l-6.3-13.7c-3.3,0-14.2-0.3-16.2-2.9
		C266.2,99.7,275.3,71.7,275.3,71.7z"/>
</g>
<g id="Layer_8">
	<polyline class="st4" points="246.7,409.5 261.2,436.6 256.3,443.3 226,412.9 	"/>
	<path class="st5" d="M259.5,433.4l-4.6,11.8c0,0,5.1,14.8,5.9,18.8c0.8,3.6-2.2,8.7-2.2,12.4c0,5.5,5.2,9,5.2,9l14.1-48.4
		c0,0-4-2.3-5.6-2.8C269.6,433.6,259.5,433.4,259.5,433.4z"/>
</g>
<g id="Layer_1">
	<polyline class="st6" points="337.9,202.9 291.3,202.9 264,236.2 	"/>
	<path class="st6" d="M337.9,202.9c20.6,81.6-118.1,55.4-118.1,55.4l54.4,154.9l-93.7,9.3c0,0-87.8-224.7,107.2-203.6"/>
</g>
<g id="Layer_9">
	<path class="st4" d="M303.8,153.8c0,0,0.7,7.4,1.5,17.1c0.4,5.4,0.9,11.5,1.2,17.4c0.3,5.2,0.5,10.3,0.5,14.5c0,2.7-0.1,5.1-0.2,7
		c-0.6,6.9-75.7,16.7-101.4,13c-5.5-0.8-21.7-4-21.7-4h19.5l84.4-16c0,0-11.7-88.1,7.9-88.1c22.5,0,42.3,88.1,42.3,88.1l-30.9-0.5"
		/>
	<polygon class="st5" points="303.8,153.3 315.1,202.4 307,202.4 	"/>
</g>
<g id="Layer_4">
	<g>
		<path id="path3055_2_" class="st7" d="M196.5,60.8c1,0.1,2,0.3,2.9,0.8l38.7,18.5c2,1,3.5,2.8,4,5l9.5,41.4c0.5,1.9,0.1,4-1,5.6
			c-0.1,0.2-0.3,0.4-0.4,0.6L223.4,166c-1.4,1.7-3.5,2.7-5.8,2.7h-42.9c-2.2,0-4.4-1-5.8-2.8l-26.7-33.3c-1.4-1.7-1.9-4-1.4-6.2
			l9.5-41.5c0.5-2.2,2-4,4-5l38.6-18.4C194.1,61,195.3,60.8,196.5,60.8z"/>
		<path id="path3059_2_" class="st9" d="M196.1,75L196.1,75c-1.3,0.1-2.3,1.2-2.3,2.6c0,0.2,0,0.5,0,0.7c0.1,0.7,0.2,1.5,0.3,2.2
			c0.2,1.4,0.3,2.8,0.3,4.2c-0.1,0.5-0.4,0.9-0.8,1.2c0,0.2-0.1,0.7-0.1,1c-7.3,0.7-14.2,4-19.2,9.3l-0.9-0.6c-0.5,0.1-1,0-1.4-0.2
			c-1.1-0.9-2.1-1.8-3-2.9c-0.5-0.6-1-1.1-1.5-1.6c-0.1-0.1-0.4-0.3-0.5-0.4c-0.1-0.1-0.3-0.2-0.4-0.3c-1.1-0.7-2.5-0.3-3.2,0.7
			s-0.3,2.5,0.7,3.2c0.2,0.1,0.4,0.3,0.5,0.4c0.6,0.4,1.3,0.8,1.9,1.1c1.2,0.7,2.4,1.5,3.4,2.4c0.3,0.4,0.5,0.8,0.4,1.3l0.8,0.8
			c-4.1,6.1-5.8,13.5-4.8,20.8l-0.9,0.3c-0.2,0.4-0.6,0.8-1,1c-1.4,0.4-2.7,0.6-4.1,0.7c-0.7,0-1.5,0.1-2.2,0.2
			c-0.2,0-0.5,0.1-0.7,0.2c-0.1,0-0.3,0.1-0.4,0.1c-1.2,0.4-1.9,1.7-1.5,2.9c0.4,1.2,1.7,1.9,2.9,1.5l0,0h0c0.2,0,0.4-0.1,0.6-0.1
			c0.7-0.2,1.4-0.5,2.1-0.8c1.3-0.5,2.7-0.9,4-1.2c0.5,0,0.9,0.2,1.3,0.5l1-0.2c2.2,7,7,13,13.3,16.7c-0.1,0.3-0.2,0.6-0.4,0.9
			c0.3,0.4,0.3,0.9,0.2,1.4c-0.6,1.3-1.2,2.5-2,3.7c-0.4,0.6-0.9,1.2-1.2,1.8c-0.1,0.2-0.2,0.4-0.3,0.6c-0.1,0.1-0.1,0.2-0.2,0.4
			c-0.4,1.2,0.2,2.5,1.4,3c1.2,0.4,2.5-0.2,3-1.4c0.1-0.2,0.2-0.4,0.3-0.6c0.3-0.7,0.5-1.4,0.7-2.1c0.4-1.3,0.9-2.6,1.6-3.9
			c0.3-0.4,0.7-0.6,1.2-0.7l0.5-0.9c6.9,2.6,14.5,2.6,21.3-0.1l0.5,0.9c0.4,0.1,0.7,0.2,1,0.5c0.8,1,1.2,2.6,1.8,4.2
			c0.2,0.7,0.4,1.4,0.7,2.1c0.1,0.2,0.2,0.4,0.3,0.6l0,0c0,0.1,0.1,0.2,0.2,0.4c0.6,1.1,2.1,1.5,3.2,0.8c1.1-0.6,1.5-2.1,0.8-3.2
			c-0.1-0.2-0.2-0.4-0.3-0.6c-0.4-0.6-0.8-1.3-1.2-1.9c-0.8-1.2-1.5-2.5-2.1-3.8c-0.1-0.4,0-0.9,0.2-1.3l-0.4-0.9
			c6.3-3.7,11.1-9.7,13.3-16.7l1,0.2c0.4-0.3,0.8-0.4,1.3-0.5c1.4,0.3,2.7,0.7,4,1.2c0.7,0.3,1.4,0.5,2.1,0.8l0.6,0.1h0l0,0
			c0.1,0,0.3,0.1,0.4,0.1c1.3,0.2,2.4-0.7,2.6-2c0.2-1.3-0.7-2.4-2-2.6h-0.1l-0.6-0.1c-0.7-0.1-1.5-0.2-2.2-0.2
			c-1.4-0.1-2.8-0.3-4.1-0.7c-0.4-0.3-0.7-0.6-1-1l-1-0.3c1.1-7.3-0.6-14.7-4.7-20.9l0.8-0.7c0-0.5,0.2-0.9,0.5-1.3
			c1.1-0.9,2.2-1.7,3.5-2.4c0.7-0.3,1.3-0.7,1.9-1.1c0.1-0.1,0.3-0.3,0.5-0.4l0,0c1.1-0.8,1.4-2.3,0.6-3.4c-0.4-0.6-1.1-0.9-1.8-0.8
			c-0.6,0-1.2,0.2-1.6,0.6c-0.2,0.1-0.4,0.3-0.5,0.4c-0.5,0.5-1,1-1.5,1.6c-0.9,1-2,2-3.1,2.8c-0.4,0.2-0.9,0.3-1.4,0.1L218,96
			c-4.1-4.3-9.3-7.3-15.1-8.6c-1.4-0.3-2.8-0.5-4.2-0.6l-0.1-1c-0.4-0.3-0.6-0.7-0.8-1.2c-0.1-1.4,0-2.8,0.2-4.2
			c0.1-0.7,0.3-1.5,0.3-2.2c0-0.2,0-0.4,0-0.6c0,0,0-0.1,0-0.1C198.5,76.2,197.5,75.1,196.1,75L196.1,75z M201.5,93.3
			c4.3,1,8.3,3.1,11.5,6.2l-9.9,7.1l0,0c-0.3,0.2-0.7,0.4-1.1,0.4c-1.1,0-2.1-0.8-2.1-2h-0.1L199,92.9
			C199.9,93,200.7,93.1,201.5,93.3z M192.6,105L192.6,105c0,0.5-0.2,0.9-0.4,1.3c-0.7,0.9-2,1-2.9,0.3l0,0l-9.9-7
			c3.8-3.7,8.6-6,13.9-6.7L192.6,105z M220,119.2l-11.7-3.4v0c-0.4-0.1-0.7-0.3-1-0.6c-0.7-0.8-0.7-2.1,0.2-2.9v-0.1l9.1-8.1
			C219.4,108.6,220.5,113.9,220,119.2z M175.8,104.1L175.8,104.1l9,8.1l0,0c0.3,0.3,0.5,0.6,0.6,1c0.3,1.1-0.3,2.2-1.4,2.5v0
			l-11.7,3.4C171.8,113.9,173,108.6,175.8,104.1L175.8,104.1z M200.3,115.7l-0.8,3.6l-3.4,1.6l-3.3-1.6l-0.8-3.6l2.3-2.9h3.7
			L200.3,115.7z M186.1,122.8L186.1,122.8c0.2,0,0.5,0.1,0.7,0.2c1,0.4,1.5,1.6,1.1,2.7l0,0l-4.7,11.3c-4.5-2.9-7.9-7.1-9.6-12.1
			l12-2l0,0C185.8,122.7,185.9,122.7,186.1,122.8L186.1,122.8z M206.3,122.8L206.3,122.8c0.1,0,0.3,0,0.4,0l0,0l11.9,2
			c-1.8,4.9-5.2,9.2-9.6,12l-4.6-11.2v0c-0.1-0.2-0.2-0.5-0.2-0.8C204.3,123.7,205.2,122.8,206.3,122.8L206.3,122.8z M196.2,127.7
			c0.7,0,1.4,0.4,1.7,1l0,0l5.9,10.6c-4.2,1.4-8.7,1.7-13.1,0.7c-0.8-0.2-1.6-0.4-2.4-0.7l5.9-10.6h0
			C194.7,128.1,195.4,127.6,196.2,127.7L196.2,127.7z"/>
	</g>
	<g>
		<g>
			<path class="st9" d="M72.8,374.1c-0.3-1.8-1.9-3.1-3.7-3.1c-1.8,0-3.4,1.3-3.7,3.1l-0.1,0.5l-0.5-0.1c-1.8-0.4-3.5-1.1-5-2.1
				l-0.5-0.3l0.3-0.4c1-1.5,0.9-3.5-0.4-4.8c-0.7-0.7-1.7-1.1-2.7-1.1c-0.8,0-1.5,0.2-2.1,0.7l-0.4,0.3l-0.3-0.5
				c-0.9-1.6-1.6-3.2-2.1-5l-0.1-0.5l0.5-0.1c1.8-0.3,3.1-1.9,3.1-3.7c0-1.8-1.3-3.4-3.1-3.7l-0.5-0.1l0.1-0.5
				c0.4-1.8,1.1-3.5,2.1-5l0.3-0.5l0.4,0.3c0.6,0.4,1.4,0.7,2.1,0.7c1,0,1.9-0.4,2.7-1.1c1.3-1.3,1.5-3.3,0.4-4.8l-0.3-0.4l0.5-0.3
				c1.6-0.9,3.2-1.6,5-2.1l0.5-0.1l0.1,0.5c0.3,1.8,1.9,3.1,3.7,3.1c1.8,0,3.4-1.3,3.7-3.1l0.1-0.5l0.5,0.1c1.8,0.4,3.5,1.1,5,2.1
				l0.5,0.3l-0.3,0.4c-1,1.5-0.9,3.5,0.4,4.8c0.7,0.7,1.7,1.1,2.7,1.1c0.8,0,1.5-0.2,2.1-0.7l0.4-0.3l0.3,0.5c0.9,1.6,1.6,3.2,2.1,5
				l0.1,0.5l-0.5,0.1c-1.8,0.3-3.1,1.9-3.1,3.7c0,1.8,1.3,3.4,3.1,3.7l0.5,0.1l-0.1,0.5c-0.4,1.8-1.1,3.5-2.1,5l-0.3,0.5l-0.4-0.3
				c-0.6-0.4-1.4-0.7-2.1-0.7c-1,0-1.9,0.4-2.7,1.1c-1.3,1.3-1.5,3.3-0.4,4.8l0.3,0.4l-0.5,0.3c-1.6,0.9-3.2,1.6-5,2.1l-0.5,0.1
				L72.8,374.1z"/>
			<path class="st7" d="M64.9,340.1c0.4,2,2.1,3.5,4.2,3.5c2.1,0,3.8-1.5,4.2-3.5c1.7,0.4,3.4,1.1,4.9,2c-1.2,1.7-1,4,0.5,5.4
				c0.8,0.8,1.9,1.2,3,1.2c0.8,0,1.7-0.3,2.4-0.8c0.9,1.5,1.6,3.1,2,4.9c-2,0.4-3.5,2.1-3.5,4.2c0,2.1,1.5,3.8,3.5,4.2
				c-0.4,1.7-1.1,3.4-2,4.9c-0.7-0.5-1.6-0.8-2.4-0.8c-1.1,0-2.2,0.4-3,1.2c-1.5,1.5-1.6,3.8-0.5,5.4c-1.5,0.9-3.1,1.6-4.9,2
				c-0.4-2-2.1-3.5-4.2-3.5c-2.1,0-3.8,1.5-4.2,3.5c-1.7-0.4-3.4-1.1-4.9-2c1.2-1.7,1-4-0.5-5.4c-0.8-0.8-1.9-1.2-3-1.2
				c-0.8,0-1.7,0.3-2.4,0.8c-0.9-1.5-1.6-3.1-2-4.9c2-0.4,3.5-2.1,3.5-4.2c0-2.1-1.5-3.8-3.5-4.2c0.4-1.7,1.1-3.4,2-4.9
				c0.7,0.5,1.6,0.8,2.4,0.8c1.1,0,2.2-0.4,3-1.2c1.5-1.5,1.6-3.8,0.5-5.4C61.5,341.2,63.2,340.5,64.9,340.1 M65.7,338.8l-1,0.3
				c-1.8,0.4-3.6,1.2-5.2,2.1l-0.9,0.6l0.6,0.9c0.9,1.3,0.7,3-0.4,4.2c-0.6,0.6-1.4,1-2.3,1c-0.7,0-1.3-0.2-1.9-0.6l-0.9-0.6
				l-0.6,0.9c-1,1.6-1.7,3.3-2.1,5.2l-0.3,1l1,0.2c1.5,0.3,2.7,1.6,2.7,3.2c0,1.6-1.1,2.9-2.7,3.2l-1,0.2l0.3,1
				c0.4,1.8,1.2,3.6,2.1,5.2l0.6,0.9l0.9-0.6c0.5-0.4,1.2-0.6,1.9-0.6c0.9,0,1.7,0.3,2.3,1c1.1,1.1,1.3,2.9,0.4,4.2l-0.6,0.9
				l0.9,0.6c1.6,1,3.3,1.7,5.2,2.1l1,0.3l0.2-1c0.3-1.5,1.6-2.7,3.2-2.7c1.6,0,2.9,1.1,3.2,2.7l0.2,1l1-0.3c1.8-0.4,3.6-1.2,5.2-2.1
				l0.9-0.6l-0.6-0.9c-0.9-1.3-0.7-3,0.4-4.2c0.6-0.6,1.4-1,2.3-1c0.7,0,1.3,0.2,1.9,0.6l0.9,0.6l0.6-0.9c1-1.6,1.7-3.3,2.1-5.2
				l0.3-1l-1-0.2c-1.5-0.3-2.7-1.6-2.7-3.2c0-1.6,1.1-2.9,2.7-3.2l1-0.2l-0.3-1c-0.4-1.8-1.2-3.6-2.1-5.2l-0.6-0.9l-0.9,0.6
				c-0.5,0.4-1.2,0.6-1.9,0.6c-0.9,0-1.7-0.3-2.3-1c-1.1-1.1-1.3-2.9-0.4-4.2l0.6-0.9l-0.9-0.6c-1.6-1-3.3-1.7-5.2-2.1l-1-0.3
				l-0.2,1c-0.3,1.5-1.6,2.7-3.2,2.7c-1.6,0-2.9-1.1-3.2-2.7L65.7,338.8L65.7,338.8z"/>
		</g>
		<g>
			<path class="st9" d="M69.1,365.3c-4.5,0-8.2-3.7-8.2-8.2c0-4.5,3.7-8.2,8.2-8.2c4.5,0,8.2,3.7,8.2,8.2
				C77.3,361.6,73.6,365.3,69.1,365.3z"/>
			<path class="st7" d="M69.1,349.3c4.3,0,7.7,3.5,7.7,7.7c0,4.3-3.5,7.7-7.7,7.7c-4.3,0-7.7-3.5-7.7-7.7
				C61.3,352.8,64.8,349.3,69.1,349.3 M69.1,348.3c-4.8,0-8.7,3.9-8.7,8.7s3.9,8.7,8.7,8.7c4.8,0,8.7-3.9,8.7-8.7
				S73.9,348.3,69.1,348.3L69.1,348.3z"/>
		</g>
	</g>
	<path class="st4" d="M404.7,240.9c0-5.3-3.5-9.8-8.3-11.4c-1.4-6.8-7.4-12-14.6-12c-7.1,0-13,4.9-14.5,11.5
		c-6.5,0.1-11.7,5.4-11.7,11.9c0,6.6,5.3,11.9,11.9,11.9c0.5,0,1,0,1.5-0.1c0.5,0.1,1,0.1,1.5,0.1h22.4
		C399.3,252.8,404.7,247.5,404.7,240.9L404.7,240.9C404.7,240.9,404.7,240.9,404.7,240.9z"/>
	<g>
		<polygon class="st1" points="346,360.8 346,368.8 337.1,376.1 337.1,368.1 		"/>
		<polygon class="st1" points="337.1,353.6 346,360.8 337.1,368.1 319.2,368.1 310.2,360.8 319.2,353.6 		"/>
		<polygon class="st10" points="320,365.7 314.1,360.8 320,356 336.2,356 342.1,360.8 336.2,365.7 		"/>
		<polygon class="st2" points="319.2,368.1 319.2,376.1 310.2,368.8 310.2,360.8 		"/>
		<rect x="319.2" y="368.1" class="st1" width="17.9" height="7.9"/>
	</g>
	<g>
		<polyline class="st2" points="94.4,282.9 94.4,295.8 83.4,289.3 83.4,276.4 		"/>
		<polygon class="st1" points="94.4,295.8 105.6,289.3 105.6,276.4 94.4,282.9 		"/>
		<polygon class="st1" points="94.4,282.9 105.6,276.4 94.6,270 83.4,276.4 		"/>
	</g>
	<line class="st3" x1="328.1" y1="358.9" x2="328.1" y2="295.8"/>
	<line class="st3" x1="94.4" y1="275.7" x2="94.4" y2="212.6"/>
</g>
<g id="Layer_10">
	<path class="st7" d="M340,142c0,0-10.3-82.6-64.8-70.8l0,0l0,0l36.5,73.1"/>
</g>
</svg>
