<?xml version="1.0" encoding="utf-8"?>
<!-- Generator: Adobe Illustrator 23.0.3, SVG Export Plug-In . SVG Version: 6.00 Build 0)  -->
<svg version="1.1" xmlns="http://www.w3.org/2000/svg" xmlns:xlink="http://www.w3.org/1999/xlink" x="0px" y="0px"
	 viewBox="0 0 590 350" style="enable-background:new 0 0 590 350;" xml:space="preserve">
<style type="text/css">
	.st0{fill:#0031E2;}
	.st1{fill:#FFFFFF;}
	.st2{fill:#1BC263;}
	.st3{fill:#FF9999;}
</style>
<g id="Layer_14">
</g>
<g id="Layer_10">
</g>
<g id="Layer_11">
</g>
<g id="Layer_7">
</g>
<g id="Layer_6">
	<g id="Layer_2">
	</g>
</g>
<g id="Layer_1">
	
		<image style="overflow:visible;" width="338" height="224" xlink:href="8A6CC235.jpg"  transform="matrix(0.9999 0 0 0.9999 570 -266)">
	</image>
	
		<image style="overflow:visible;" width="420" height="294" xlink:href="8A6CC237.jpg"  transform="matrix(0.9999 0 0 0.9999 52 -349.5375)">
	</image>
</g>
<g id="Layer_4">
	<g>
		<path id="path3055_1_" class="st0" d="M723.6,29.7c-1.2-0.2-2.5-0.2-3.7,0.1l-52.3,11.4c-2.7,0.6-5,2.4-6.3,4.9l-23.4,47.7
			c-1.1,2.2-1.2,4.8-0.4,7.2c0.1,0.3,0.2,0.6,0.3,0.8l23,48.1c1.2,2.5,3.5,4.3,6.2,5l52.2,12.3c2.7,0.6,5.6,0,7.8-1.7l42-32.8
			c2.2-1.7,3.5-4.3,3.5-7.1l0.3-53.2c0-2.8-1.3-5.4-3.4-7.2l-41.8-33.5C726.6,30.7,725.2,30,723.6,29.7z"/>
		<path id="path3059_1_" class="st1" d="M720.1,47c-1.6-0.3-3.2,0.8-3.5,2.5c0,0,0,0.1,0,0.1c-0.1,0.2-0.1,0.5-0.2,0.7
			c-0.1,0.9-0.2,1.8-0.2,2.8c-0.1,1.8-0.4,3.5-0.9,5.2c-0.3,0.5-0.7,1-1.3,1.2l-0.3,1.2c-1.7-0.3-3.5-0.4-5.3-0.4
			c-7.4-0.1-14.7,2.1-20.9,6.2l-0.8-1c-0.6,0-1.2-0.2-1.6-0.6c-1.1-1.3-2.1-2.8-3-4.3c-0.4-0.8-0.9-1.6-1.4-2.4
			c-0.1-0.2-0.4-0.5-0.5-0.6c-0.5-0.6-1.1-1-1.8-1.2c-0.9-0.2-1.8-0.1-2.5,0.5c-1.3,1.1-1.4,3-0.3,4.3l0,0c0.1,0.2,0.3,0.4,0.5,0.6
			c0.6,0.7,1.3,1.3,2,1.9c1.3,1.2,2.5,2.5,3.5,3.9c0.2,0.6,0.3,1.2,0.2,1.8l0.7,1c-6.7,6.3-10.9,14.9-11.7,24l-1.3,0.1
			c-0.4,0.4-0.9,0.7-1.5,0.9c-1.8,0.1-3.5-0.1-5.2-0.4c-0.9-0.2-1.8-0.3-2.8-0.4l-0.8,0l-0.1,0c-1.6-0.2-3,1-3.2,2.6
			c-0.2,1.6,1,3,2.6,3.2c0.2,0,0.4,0,0.5,0l0,0l0.1,0l0.8,0.1c0.9-0.1,1.8-0.2,2.7-0.3c1.7-0.3,3.5-0.4,5.2-0.3
			c0.6,0.2,1.1,0.5,1.5,1l1.3,0.1c0.7,9.2,4.8,17.7,11.5,24.1l-0.8,1c0.1,0.5,0.1,1.1-0.1,1.6c-1.1,1.5-2.3,2.8-3.6,4
			c-0.7,0.6-1.4,1.2-2,1.9c-0.2,0.2-0.4,0.5-0.5,0.7c-1.1,1.2-1.1,3,0.1,4.1c1.2,1.1,3,1.1,4.1-0.1c0.1-0.1,0.2-0.3,0.3-0.4l0,0
			c0.2-0.2,0.4-0.4,0.5-0.6c0.5-0.8,1-1.6,1.4-2.4c1.2-1.7,2.1-3.6,3.4-4.5c0.4-0.2,0.9-0.3,1.3-0.3l0.9-1c7.6,5.2,16.8,7.4,26,6.2
			l0.3,1.2c0.6,0.2,1,0.7,1.2,1.2c0.4,1.7,0.7,3.4,0.8,5.2c0,0.9,0.1,1.9,0.2,2.8c0,0.2,0.1,0.6,0.2,0.8c0.2,1.6,1.6,2.7,3.2,2.5
			c1.6-0.2,2.7-1.6,2.5-3.2c0-0.2-0.1-0.3-0.1-0.5c-0.1-0.2-0.1-0.6-0.2-0.8c-0.3-0.9-0.6-1.8-1-2.6c-0.6-1.6-1.1-3.3-1.4-5.1
			c0-0.6,0.2-1.2,0.7-1.6c-0.1-0.4-0.2-0.8-0.2-1.2c8.8-2.8,16.2-8.7,20.9-16.6l1.1,0.5c0.5-0.3,1.1-0.4,1.7-0.2
			c1.6,0.7,3.1,1.6,4.6,2.6c0.7,0.6,1.5,1.1,2.3,1.6c0.2,0.1,0.5,0.2,0.7,0.3l0.1,0l0,0c1.4,0.8,3.2,0.4,4-1c0.8-1.4,0.4-3.2-1-4
			c-0.2-0.1-0.3-0.2-0.5-0.2c-0.2-0.1-0.5-0.3-0.8-0.4c-0.9-0.3-1.8-0.6-2.7-0.8c-1.7-0.5-3.3-1.2-4.9-2c-0.4-0.4-0.8-0.9-0.9-1.5
			l-1.1-0.6c3.3-8.6,3.3-18.1,0.1-26.7l1.2-0.7c0.1-0.6,0.4-1.1,0.9-1.5c1.6-0.8,3.2-1.5,4.9-2c0.9-0.2,1.8-0.5,2.7-0.8
			c0.2-0.1,0.5-0.2,0.7-0.4c1.5-0.5,2.3-2.2,1.8-3.7c-0.5-1.5-2.2-2.3-3.7-1.8c-0.2,0.1-0.4,0.2-0.6,0.3c-0.2,0.1-0.5,0.2-0.7,0.4
			c-0.8,0.5-1.6,1-2.3,1.5c-1.4,1-2.9,1.9-4.5,2.6c-0.6,0.1-1.2,0-1.8-0.2l-1.3,0.5c-4.7-7.9-12-13.9-20.7-16.8
			c0.1-0.4,0.2-1.1,0.2-1.3c-0.4-0.4-0.6-1-0.6-1.6c0.3-1.7,0.9-3.4,1.5-5c0.4-0.8,0.7-1.7,1-2.6c0.1-0.2,0.1-0.6,0.2-0.8
			C722.6,49.2,721.7,47.5,720.1,47L720.1,47L720.1,47z M711.4,68l-4.3,14.6l-0.1,0c-0.4,1.4-1.8,2.1-3.1,1.8
			c-0.5-0.1-0.9-0.4-1.2-0.8l0,0l-10.1-11.4c4.7-2.9,10.2-4.4,15.7-4.3C709.3,67.8,710.4,67.9,711.4,68z M718.5,69.6
			c6.2,2.3,11.4,6.5,14.9,12.1l-14,5.7l0,0c-1.3,0.6-2.8,0.1-3.4-1.2c-0.2-0.5-0.3-1.1-0.2-1.6l0,0L718.5,69.6z M686.9,76.6
			l8.7,12.5l0,0.1c0.8,1.1,0.6,2.7-0.6,3.6c-0.4,0.3-0.9,0.5-1.4,0.5l0,0L678.4,94C679.2,87.4,682.2,81.3,686.9,76.6z M736.5,88.3
			c2.1,6.3,2.1,13-0.1,19.3l-13.3-7.4l0-0.1c-1.2-0.7-1.7-2.2-1-3.5c0.2-0.4,0.6-0.8,1-1l0,0L736.5,88.3L736.5,88.3L736.5,88.3z
			 M707,92.6l4.5,1.1l1.9,4.2l-2,4.2l-4.5,1l-3.6-2.9l0.1-4.6L707,92.6z M718.6,108c0.2,0,0.4,0.1,0.6,0.1l0,0l14.1,5.9
			c-3.6,5.6-8.9,9.8-15.2,12l-2.4-15l0,0c-0.2-1.4,0.7-2.7,2.1-3C718,108,718.3,108,718.6,108L718.6,108L718.6,108z M694,102.3
			c1.4,0.3,2.2,1.7,1.8,3.1c-0.1,0.3-0.2,0.6-0.4,0.9l0,0.1l-8.8,12.3c-4.6-4.7-7.5-10.8-8.2-17.3l15.1,1l0,0
			C693.7,102.2,693.8,102.2,694,102.3L694,102.3L694,102.3z M704.9,111.1c0.9,0.2,1.7,0.9,2,1.8l0.1,0l4.1,14.6c-1,0.1-2,0.1-3,0.1
			c-5.6,0-11-1.6-15.7-4.6l10.2-11.2l0,0C703.1,111.2,704,110.9,704.9,111.1L704.9,111.1z"/>
	</g>
	<g>
		<g>
			<path class="st1" d="M492.8-73.9c-0.3-1.8-1.9-3.1-3.7-3.1c-1.8,0-3.4,1.3-3.7,3.1l-0.1,0.5l-0.5-0.1c-1.8-0.4-3.5-1.1-5-2.1
				l-0.5-0.3l0.3-0.4c1-1.5,0.9-3.5-0.4-4.8c-0.7-0.7-1.7-1.1-2.7-1.1c-0.8,0-1.5,0.2-2.1,0.7l-0.4,0.3l-0.3-0.5
				c-0.9-1.6-1.6-3.2-2.1-5l-0.1-0.5l0.5-0.1c1.8-0.3,3.1-1.9,3.1-3.7c0-1.8-1.3-3.4-3.1-3.7l-0.5-0.1l0.1-0.5
				c0.4-1.8,1.1-3.5,2.1-5l0.3-0.5l0.4,0.3c0.6,0.4,1.4,0.7,2.1,0.7c1,0,1.9-0.4,2.7-1.1c1.3-1.3,1.5-3.3,0.4-4.8l-0.3-0.4l0.5-0.3
				c1.6-0.9,3.2-1.6,5-2.1l0.5-0.1l0.1,0.5c0.3,1.8,1.9,3.1,3.7,3.1c1.8,0,3.4-1.3,3.7-3.1l0.1-0.5l0.5,0.1c1.8,0.4,3.5,1.1,5,2.1
				l0.5,0.3l-0.3,0.4c-1,1.5-0.9,3.5,0.4,4.8c0.7,0.7,1.7,1.1,2.7,1.1c0.8,0,1.5-0.2,2.1-0.7l0.4-0.3l0.3,0.5c0.9,1.6,1.6,3.2,2.1,5
				l0.1,0.5l-0.5,0.1c-1.8,0.3-3.1,1.9-3.1,3.7c0,1.8,1.3,3.4,3.1,3.7l0.5,0.1l-0.1,0.5c-0.4,1.8-1.1,3.5-2.1,5l-0.3,0.5l-0.4-0.3
				c-0.6-0.4-1.4-0.7-2.1-0.7c-1,0-1.9,0.4-2.7,1.1c-1.3,1.3-1.5,3.3-0.4,4.8l0.3,0.4l-0.5,0.3c-1.6,0.9-3.2,1.6-5,2.1l-0.5,0.1
				L492.8-73.9z"/>
			<path class="st0" d="M493.3-107.9c1.7,0.4,3.4,1.1,4.9,2c-1.2,1.7-1,4,0.5,5.4c0.8,0.8,1.9,1.2,3,1.2c0.8,0,1.7-0.3,2.4-0.8
				c0.9,1.5,1.6,3.1,2,4.9c-2,0.4-3.5,2.1-3.5,4.2c0,2.1,1.5,3.8,3.5,4.2c-0.4,1.7-1.1,3.4-2,4.9c-0.7-0.5-1.6-0.8-2.4-0.8
				c-1.1,0-2.2,0.4-3,1.2c-1.5,1.5-1.6,3.8-0.5,5.4c-1.5,0.9-3.1,1.6-4.9,2c-0.4-2-2.1-3.5-4.2-3.5c-2.1,0-3.8,1.5-4.2,3.5
				c-1.7-0.4-3.4-1.1-4.9-2c1.2-1.7,1-4-0.5-5.4c-0.8-0.8-1.9-1.2-3-1.2c-0.8,0-1.7,0.3-2.4,0.8c-0.9-1.5-1.6-3.1-2-4.9
				c2-0.4,3.5-2.1,3.5-4.2c0-2.1-1.5-3.8-3.5-4.2c0.4-1.7,1.1-3.4,2-4.9c0.7,0.5,1.6,0.8,2.4,0.8c1.1,0,2.2-0.4,3-1.2
				c1.5-1.5,1.6-3.8,0.5-5.4c1.5-0.9,3.1-1.6,4.9-2c0.4,2,2.1,3.5,4.2,3.5C491.2-104.4,492.9-106,493.3-107.9 M492.5-109.2l-0.2,1
				c-0.3,1.5-1.6,2.7-3.2,2.7c-1.6,0-2.9-1.1-3.2-2.7l-0.2-1l-1,0.3c-1.8,0.4-3.6,1.2-5.2,2.1l-0.9,0.6l0.6,0.9
				c0.9,1.3,0.7,3-0.4,4.2c-0.6,0.6-1.4,1-2.3,1c-0.7,0-1.3-0.2-1.9-0.6l-0.9-0.6l-0.6,0.9c-1,1.6-1.7,3.3-2.1,5.2l-0.3,1l1,0.2
				c1.5,0.3,2.7,1.6,2.7,3.2c0,1.6-1.1,2.9-2.7,3.2l-1,0.2l0.3,1c0.4,1.8,1.2,3.6,2.1,5.2l0.6,0.9l0.9-0.6c0.5-0.4,1.2-0.6,1.9-0.6
				c0.9,0,1.7,0.3,2.3,1c1.1,1.1,1.3,2.9,0.4,4.2l-0.6,0.9l0.9,0.6c1.6,1,3.3,1.7,5.2,2.1l1,0.3l0.2-1c0.3-1.5,1.6-2.7,3.2-2.7
				c1.6,0,2.9,1.1,3.2,2.7l0.2,1l1-0.3c1.8-0.4,3.6-1.2,5.2-2.1l0.9-0.6l-0.6-0.9c-0.9-1.3-0.7-3,0.4-4.2c0.6-0.6,1.4-1,2.3-1
				c0.7,0,1.3,0.2,1.9,0.6l0.9,0.6l0.6-0.9c1-1.6,1.7-3.3,2.1-5.2l0.3-1l-1-0.2c-1.5-0.3-2.7-1.6-2.7-3.2c0-1.6,1.1-2.9,2.7-3.2
				l1-0.2l-0.3-1c-0.4-1.8-1.2-3.6-2.1-5.2l-0.6-0.9l-0.9,0.6c-0.5,0.4-1.2,0.6-1.9,0.6c-0.9,0-1.7-0.3-2.3-1
				c-1.1-1.1-1.3-2.9-0.4-4.2l0.6-0.9l-0.9-0.6c-1.6-1-3.3-1.7-5.2-2.1L492.5-109.2L492.5-109.2z"/>
		</g>
		<g>
			<path class="st1" d="M489.1-82.7c-4.5,0-8.2-3.7-8.2-8.2c0-4.5,3.7-8.2,8.2-8.2c4.5,0,8.2,3.7,8.2,8.2
				C497.3-86.4,493.6-82.7,489.1-82.7z"/>
			<path class="st0" d="M489.1-98.7c4.3,0,7.7,3.5,7.7,7.7c0,4.3-3.5,7.7-7.7,7.7s-7.7-3.5-7.7-7.7
				C481.3-95.2,484.8-98.7,489.1-98.7 M489.1-99.7c-4.8,0-8.7,3.9-8.7,8.7c0,4.8,3.9,8.7,8.7,8.7s8.7-3.9,8.7-8.7
				C497.8-95.8,493.9-99.7,489.1-99.7L489.1-99.7z"/>
		</g>
	</g>
</g>
<g id="Layer_8">
</g>
<g id="Layer_13">
</g>
<g id="Layer_12">
</g>
<g id="Layer_5">
	<g id="Layer_3">
	</g>
</g>
<g id="Layer_9">
</g>
<g id="Layer_15">
	<g>
		<polyline class="st0" points="111.9,116 111.9,134.6 96,125.3 96,106.8 		"/>
		<path class="st0" d="M111.4,116v17.7L96.5,125v-18.3c0-0.3-0.2-0.5-0.5-0.5c-0.3,0-0.5,0.2-0.5,0.5l0,18.6c0,0.2,0.1,0.3,0.2,0.4
			l15.9,9.3c0.2,0.1,0.3,0.1,0.5,0c0.2-0.1,0.3-0.3,0.3-0.4V116c0-0.3-0.2-0.5-0.5-0.5C111.6,115.5,111.4,115.8,111.4,116L111.4,116
			z"/>
		<polygon class="st1" points="111.9,134.6 127.9,125.3 127.9,106.8 111.9,116 		"/>
		<path class="st0" d="M111.9,134.6l0.3,0.4l16.1-9.3c0.2-0.1,0.2-0.3,0.2-0.4v-18.6c0-0.2-0.1-0.3-0.3-0.4s-0.3-0.1-0.5,0
			l-16.1,9.3c-0.2,0.1-0.2,0.3-0.2,0.4v18.6c0,0.2,0.1,0.3,0.3,0.4s0.3,0.1,0.5,0L111.9,134.6h0.5v-18.3l15.1-8.7V125l-15.8,9.1
			L111.9,134.6h0.5H111.9z"/>
		<polygon class="st1" points="111.9,116 127.9,106.8 112.1,97.5 96,106.8 		"/>
		<path class="st0" d="M111.9,116l0.3,0.4l16.1-9.3c0.2-0.1,0.2-0.3,0.2-0.4c0-0.2-0.1-0.3-0.2-0.4l-15.9-9.3
			c-0.2-0.1-0.3-0.1-0.5,0l-16.1,9.3c-0.2,0.1-0.2,0.3-0.2,0.4c0,0.2,0.1,0.3,0.2,0.4l15.9,9.3c0.2,0.1,0.3,0.1,0.5,0L111.9,116
			l0.3-0.4L97,106.8l15.1-8.7l14.9,8.7l-15.3,8.9L111.9,116l0.3-0.4L111.9,116z"/>
		<polyline class="st0" points="152.8,88.1 152.8,99.6 142.9,93.9 142.9,82.4 		"/>
		<path class="st0" d="M152.3,88.1v10.6l-8.8-5.2l0-11.2c0-0.3-0.2-0.5-0.5-0.5c-0.3,0-0.5,0.2-0.5,0.5l0,11.5
			c0,0.2,0.1,0.3,0.2,0.4l9.8,5.8c0.2,0.1,0.3,0.1,0.5,0c0.2-0.1,0.3-0.3,0.3-0.4V88.1c0-0.3-0.2-0.5-0.5-0.5
			C152.5,87.6,152.3,87.8,152.3,88.1L152.3,88.1z"/>
		<polygon class="st1" points="152.8,99.6 162.7,93.9 162.7,82.4 152.8,88.1 		"/>
		<path class="st0" d="M152.8,99.6l0.3,0.4l10-5.8c0.2-0.1,0.2-0.3,0.2-0.4V82.4c0-0.2-0.1-0.3-0.3-0.4s-0.3-0.1-0.5,0l-10,5.8
			c-0.2,0.1-0.2,0.3-0.2,0.4v11.5c0,0.2,0.1,0.3,0.3,0.4s0.3,0.1,0.5,0L152.8,99.6h0.5V88.4l9-5.2v10.3l-9.7,5.6L152.8,99.6h0.5
			H152.8z"/>
		<polygon class="st1" points="152.8,88.1 162.7,82.4 152.9,76.6 142.9,82.4 		"/>
		<path class="st0" d="M152.8,88.1l0.3,0.4l10-5.8c0.2-0.1,0.2-0.3,0.2-0.4c0-0.2-0.1-0.3-0.2-0.4l-9.8-5.8c-0.2-0.1-0.3-0.1-0.5,0
			l-10,5.8c-0.2,0.1-0.2,0.3-0.2,0.4c0,0.2,0.1,0.3,0.2,0.4l9.8,5.8c0.2,0.1,0.3,0.1,0.5,0L152.8,88.1l0.3-0.4l-9.1-5.3l9-5.2
			l8.8,5.2l-9.2,5.3L152.8,88.1l0.3-0.4L152.8,88.1z"/>
		<rect x="142.3" y="167.4" class="st1" width="24.7" height="10.9"/>
		<path class="st0" d="M167,167.4h-0.5v10.4h-23.7v-9.9H167V167.4h-0.5H167v-0.5h-24.7c-0.1,0-0.3,0.1-0.4,0.1
			c-0.1,0.1-0.1,0.2-0.1,0.4v10.9c0,0.1,0.1,0.3,0.1,0.4c0.1,0.1,0.2,0.1,0.4,0.1H167c0.1,0,0.3-0.1,0.4-0.1
			c0.1-0.1,0.1-0.2,0.1-0.4v-10.9c0-0.1-0.1-0.3-0.1-0.4c-0.1-0.1-0.2-0.1-0.4-0.1V167.4z"/>
		<polygon class="st1" points="179.3,157.4 179.3,168.3 167,178.4 167,167.4 		"/>
		<path class="st0" d="M179.3,157.4h-0.5v10.7l-11.3,9.2v-9.7l12.2-9.9L179.3,157.4h-0.5H179.3L179,157l-12.3,10
			c-0.1,0.1-0.2,0.2-0.2,0.4v10.9c0,0.2,0.1,0.4,0.3,0.5c0.2,0.1,0.4,0.1,0.5-0.1l12.3-10c0.1-0.1,0.2-0.2,0.2-0.4v-10.9
			c0-0.2-0.1-0.4-0.3-0.5s-0.4-0.1-0.5,0.1L179.3,157.4z"/>
		<polygon class="st1" points="167,147.4 179.3,157.4 167,167.4 142.3,167.4 130,157.4 142.3,147.4 		"/>
		<path class="st0" d="M167,147.4l-0.3,0.4l11.9,9.6l-11.7,9.5h-24.3l-11.7-9.5l11.7-9.5H167V147.4l-0.3,0.4L167,147.4v-0.5h-24.7
			c-0.1,0-0.2,0-0.3,0.1l-12.3,10c-0.1,0.1-0.2,0.2-0.2,0.4c0,0.2,0.1,0.3,0.2,0.4l12.3,10c0.1,0.1,0.2,0.1,0.3,0.1H167
			c0.1,0,0.2,0,0.3-0.1l12.3-10c0.1-0.1,0.2-0.2,0.2-0.4c0-0.2-0.1-0.3-0.2-0.4l-12.3-10c-0.1-0.1-0.2-0.1-0.3-0.1V147.4z"/>
		<polygon class="st2" points="142.3,167.4 142.3,178.4 130,168.3 130,157.4 		"/>
		<path class="st0" d="M142.3,167.4h-0.5v9.9l-11.3-9.2v-9.7l11.5,9.4L142.3,167.4h-0.5H142.3l0.3-0.4l-12.3-10
			c-0.1-0.1-0.4-0.1-0.5-0.1s-0.3,0.3-0.3,0.5v10.9c0,0.2,0.1,0.3,0.2,0.4l12.3,10c0.1,0.1,0.4,0.1,0.5,0.1c0.2-0.1,0.3-0.3,0.3-0.5
			v-10.9c0-0.2-0.1-0.3-0.2-0.4L142.3,167.4z"/>
		<rect x="129.5" y="147.3" class="st1" width="19.4" height="8.6"/>
		<path class="st0" d="M148.9,147.3h-0.5v8.1H130v-7.6h18.9V147.3h-0.5H148.9v-0.5h-19.4c-0.1,0-0.3,0.1-0.4,0.1
			c-0.1,0.1-0.1,0.2-0.1,0.4v8.6c0,0.1,0.1,0.3,0.1,0.4c0.1,0.1,0.2,0.1,0.4,0.1h19.4c0.1,0,0.3-0.1,0.4-0.1
			c0.1-0.1,0.1-0.2,0.1-0.4v-8.6c0-0.1-0.1-0.3-0.1-0.4c-0.1-0.1-0.2-0.1-0.4-0.1V147.3z"/>
		<polygon class="st1" points="158.6,139.4 158.6,148 148.9,155.9 148.9,147.3 		"/>
		<path class="st0" d="M158.6,139.4h-0.5v8.4l-8.7,7.1v-7.3l9.5-7.7L158.6,139.4h-0.5H158.6l-0.3-0.4l-9.7,7.9
			c-0.1,0.1-0.2,0.2-0.2,0.4v8.6c0,0.2,0.1,0.4,0.3,0.5c0.2,0.1,0.4,0.1,0.5-0.1l9.7-7.9c0.1-0.1,0.2-0.2,0.2-0.4v-8.6
			c0-0.2-0.1-0.4-0.3-0.5c-0.2-0.1-0.4-0.1-0.5,0.1L158.6,139.4z"/>
		<polygon class="st1" points="148.9,131.5 158.6,139.4 148.9,147.3 129.5,147.3 119.8,139.4 129.5,131.5 		"/>
		<path class="st0" d="M148.9,131.5l-0.3,0.4l9.2,7.5l-9.1,7.4h-19.1l-9.1-7.4l9.1-7.4l19.2,0V131.5l-0.3,0.4L148.9,131.5V131h-19.4
			c-0.1,0-0.2,0-0.3,0.1l-9.7,7.9c-0.1,0.1-0.2,0.2-0.2,0.4c0,0.2,0.1,0.3,0.2,0.4l9.7,7.9c0.1,0.1,0.2,0.1,0.3,0.1h19.4
			c0.1,0,0.2,0,0.3-0.1l9.7-7.9c0.1-0.1,0.2-0.2,0.2-0.4c0-0.2-0.1-0.3-0.2-0.4l-9.7-7.9c-0.1-0.1-0.2-0.1-0.3-0.1V131.5z"/>
		<polygon class="st2" points="129.5,147.3 129.5,155.9 119.8,148 119.8,139.4 		"/>
		<path class="st0" d="M129.5,147.3H129v7.6l-8.7-7.1v-7.3l8.9,7.2L129.5,147.3H129H129.5l0.3-0.4l-9.7-7.9
			c-0.1-0.1-0.4-0.1-0.5-0.1c-0.2,0.1-0.3,0.3-0.3,0.5v8.6c0,0.2,0.1,0.3,0.2,0.4l9.7,7.9c0.1,0.1,0.4,0.1,0.5,0.1
			c0.2-0.1,0.3-0.3,0.3-0.5v-8.6c0-0.2-0.1-0.3-0.2-0.4L129.5,147.3z"/>
		<rect x="175.6" y="126.8" class="st1" width="19.4" height="8.6"/>
		<path class="st0" d="M195,126.8h-0.5v8.1h-18.4v-7.6l18.9,0V126.8h-0.5H195v-0.5h-19.4c-0.1,0-0.3,0.1-0.4,0.1
			c-0.1,0.1-0.1,0.2-0.1,0.4v8.6c0,0.1,0.1,0.3,0.1,0.4c0.1,0.1,0.2,0.1,0.4,0.1H195c0.1,0,0.3-0.1,0.4-0.1c0.1-0.1,0.1-0.2,0.1-0.4
			v-8.6c0-0.1-0.1-0.3-0.1-0.4c-0.1-0.1-0.2-0.1-0.4-0.1V126.8z"/>
		<polygon class="st1" points="204.7,118.9 204.7,127.5 195,135.4 195,126.8 		"/>
		<path class="st0" d="M204.7,118.9h-0.5v8.4l-8.7,7.1V127l9.5-7.7L204.7,118.9h-0.5H204.7l-0.3-0.4l-9.7,7.9
			c-0.1,0.1-0.2,0.2-0.2,0.4v8.6c0,0.2,0.1,0.4,0.3,0.5c0.2,0.1,0.4,0.1,0.5-0.1l9.7-7.9c0.1-0.1,0.2-0.2,0.2-0.4v-8.6
			c0-0.2-0.1-0.4-0.3-0.5c-0.2-0.1-0.4-0.1-0.5,0.1L204.7,118.9z"/>
		<polygon class="st1" points="195,111 204.7,118.9 195,126.8 175.6,126.8 165.9,118.9 175.6,111 		"/>
		<path class="st0" d="M195,111l-0.3,0.4l9.2,7.5l-9.1,7.4h-19.1l-9.1-7.4l9.1-7.4l19.2,0V111l-0.3,0.4L195,111v-0.5h-19.4
			c-0.1,0-0.2,0-0.3,0.1l-9.7,7.9c-0.1,0.1-0.2,0.2-0.2,0.4c0,0.2,0.1,0.3,0.2,0.4l9.7,7.9c0.1,0.1,0.2,0.1,0.3,0.1H195
			c0.1,0,0.2,0,0.3-0.1l9.7-7.9c0.1-0.1,0.2-0.2,0.2-0.4c0-0.2-0.1-0.3-0.2-0.4l-9.7-7.9c-0.1-0.1-0.2-0.1-0.3-0.1V111z"/>
		<polygon class="st0" points="175.6,126.8 175.6,135.4 165.9,127.5 165.9,118.9 		"/>
		<path class="st0" d="M175.6,126.8h-0.5v7.6l-8.7-7.1v-7.3l8.9,7.2L175.6,126.8h-0.5H175.6l0.3-0.4l-9.7-7.9
			c-0.1-0.1-0.4-0.1-0.5-0.1c-0.2,0.1-0.3,0.3-0.3,0.5v8.6c0,0.2,0.1,0.3,0.2,0.4l9.7,7.9c0.1,0.1,0.4,0.1,0.5,0.1
			c0.2-0.1,0.3-0.3,0.3-0.5v-8.6c0-0.2-0.1-0.3-0.2-0.4L175.6,126.8z"/>
		<rect x="204.7" y="104.8" class="st1" width="19.4" height="8.6"/>
		<path class="st0" d="M224.1,104.8h-0.5v8.1h-18.4v-7.6h18.9V104.8h-0.5H224.1v-0.5h-19.4c-0.1,0-0.3,0.1-0.4,0.1
			c-0.1,0.1-0.1,0.2-0.1,0.4v8.6c0,0.1,0.1,0.3,0.1,0.4c0.1,0.1,0.2,0.1,0.4,0.1h19.4c0.1,0,0.3-0.1,0.4-0.1
			c0.1-0.1,0.1-0.2,0.1-0.4v-8.6c0-0.1-0.1-0.3-0.1-0.4c-0.1-0.1-0.2-0.1-0.4-0.1V104.8z"/>
		<polygon class="st1" points="233.8,96.9 233.8,105.5 224.1,113.4 224.1,104.8 		"/>
		<path class="st0" d="M233.8,96.9h-0.5v8.4l-8.7,7.1v-7.3l9.5-7.7L233.8,96.9h-0.5H233.8l-0.3-0.4l-9.7,7.9
			c-0.1,0.1-0.2,0.2-0.2,0.4v8.6c0,0.2,0.1,0.4,0.3,0.5c0.2,0.1,0.4,0.1,0.5-0.1l9.7-7.9c0.1-0.1,0.2-0.2,0.2-0.4v-8.6
			c0-0.2-0.1-0.4-0.3-0.5c-0.2-0.1-0.4-0.1-0.5,0.1L233.8,96.9z"/>
		<polygon class="st1" points="224.1,89 233.8,96.9 224.1,104.8 204.7,104.8 195,96.9 204.7,89 		"/>
		<path class="st0" d="M224.1,89l-0.3,0.4l9.2,7.5l-9.1,7.4h-19.1l-9.1-7.4l9.1-7.4l19.2,0V89l-0.3,0.4L224.1,89v-0.5h-19.4
			c-0.1,0-0.2,0-0.3,0.1l-9.7,7.9c-0.1,0.1-0.2,0.2-0.2,0.4c0,0.2,0.1,0.3,0.2,0.4l9.7,7.9c0.1,0.1,0.2,0.1,0.3,0.1h19.4
			c0.1,0,0.2,0,0.3-0.1l9.7-7.9c0.1-0.1,0.2-0.2,0.2-0.4c0-0.2-0.1-0.3-0.2-0.4l-9.7-7.9c-0.1-0.1-0.2-0.1-0.3-0.1V89z"/>
		<polygon class="st2" points="204.7,104.8 204.7,113.4 195,105.5 195,96.9 		"/>
		<path class="st0" d="M204.7,104.8h-0.5v7.6l-8.7-7.1V98l8.9,7.2L204.7,104.8h-0.5H204.7l0.3-0.4l-9.7-7.9
			c-0.1-0.1-0.4-0.1-0.5-0.1c-0.2,0.1-0.3,0.3-0.3,0.5v8.6c0,0.2,0.1,0.3,0.2,0.4l9.7,7.9c0.1,0.1,0.4,0.1,0.5,0.1
			c0.2-0.1,0.3-0.3,0.3-0.5v-8.6c0-0.2-0.1-0.3-0.2-0.4L204.7,104.8z"/>
		<rect x="190.1" y="73.8" class="st1" width="19.4" height="8.6"/>
		<path class="st0" d="M209.5,73.8H209V82h-18.4v-7.6h18.9V73.8H209H209.5v-0.5h-19.4c-0.1,0-0.3,0.1-0.4,0.1
			c-0.1,0.1-0.1,0.2-0.1,0.4v8.6c0,0.1,0.1,0.3,0.1,0.4c0.1,0.1,0.2,0.1,0.4,0.1h19.4c0.1,0,0.3-0.1,0.4-0.1
			c0.1-0.1,0.1-0.2,0.1-0.4v-8.6c0-0.1-0.1-0.3-0.1-0.4c-0.1-0.1-0.2-0.1-0.4-0.1V73.8z"/>
		<polygon class="st1" points="219.3,66 219.3,74.6 209.5,82.5 209.5,73.8 		"/>
		<path class="st0" d="M219.3,66h-0.5v8.4l-8.7,7.1v-7.3l9.5-7.7L219.3,66h-0.5H219.3l-0.3-0.4l-9.7,7.9c-0.1,0.1-0.2,0.2-0.2,0.4
			v8.6c0,0.2,0.1,0.4,0.3,0.5c0.2,0.1,0.4,0.1,0.5-0.1l9.7-7.9c0.1-0.1,0.2-0.2,0.2-0.4V66c0-0.2-0.1-0.4-0.3-0.5
			c-0.2-0.1-0.4-0.1-0.5,0.1L219.3,66z"/>
		<polygon class="st1" points="209.5,58.1 219.3,66 209.5,73.8 190.1,73.8 180.4,66 190.1,58.1 		"/>
		<path class="st0" d="M209.5,58.1l-0.3,0.4l9.2,7.5l-9.1,7.4h-19.1l-9.1-7.4l9.1-7.4h19.2V58.1l-0.3,0.4L209.5,58.1v-0.5h-19.4
			c-0.1,0-0.2,0-0.3,0.1l-9.7,7.9c-0.1,0.1-0.2,0.2-0.2,0.4c0,0.2,0.1,0.3,0.2,0.4l9.7,7.9c0.1,0.1,0.2,0.1,0.3,0.1h19.4
			c0.1,0,0.2,0,0.3-0.1l9.7-7.9c0.1-0.1,0.2-0.2,0.2-0.4c0-0.2-0.1-0.3-0.2-0.4l-9.7-7.9c-0.1-0.1-0.2-0.1-0.3-0.1V58.1z"/>
		<polygon class="st0" points="190.1,73.8 190.1,82.5 180.4,74.6 180.4,66 		"/>
		<path class="st0" d="M190.1,73.8h-0.5v7.6l-8.7-7.1V67l8.9,7.2L190.1,73.8h-0.5H190.1l0.3-0.4l-9.7-7.9c-0.1-0.1-0.4-0.1-0.5-0.1
			c-0.2,0.1-0.3,0.3-0.3,0.5v8.6c0,0.2,0.1,0.3,0.2,0.4l9.7,7.9c0.1,0.1,0.4,0.1,0.5,0.1c0.2-0.1,0.3-0.3,0.3-0.5v-8.6
			c0-0.2-0.1-0.3-0.2-0.4L190.1,73.8z"/>
		<rect x="190.1" y="60.6" class="st1" width="19.4" height="8.6"/>
		<path class="st0" d="M209.5,60.6H209v8.1h-18.4v-7.6l18.9,0V60.6H209H209.5v-0.5h-19.4c-0.1,0-0.3,0.1-0.4,0.1
			c-0.1,0.1-0.1,0.2-0.1,0.4v8.6c0,0.1,0.1,0.3,0.1,0.4c0.1,0.1,0.2,0.1,0.4,0.1h19.4c0.1,0,0.3-0.1,0.4-0.1
			c0.1-0.1,0.1-0.2,0.1-0.4v-8.6c0-0.1-0.1-0.3-0.1-0.4c-0.1-0.1-0.2-0.1-0.4-0.1V60.6z"/>
		<polygon class="st1" points="219.3,52.7 219.3,61.3 209.5,69.2 209.5,60.6 		"/>
		<path class="st0" d="M219.3,52.7h-0.5v8.4l-8.7,7.1v-7.3l9.5-7.7L219.3,52.7h-0.5H219.3l-0.3-0.4l-9.7,7.9
			c-0.1,0.1-0.2,0.2-0.2,0.4v8.6c0,0.2,0.1,0.4,0.3,0.5c0.2,0.1,0.4,0.1,0.5-0.1l9.7-7.9c0.1-0.1,0.2-0.2,0.2-0.4v-8.6
			c0-0.2-0.1-0.4-0.3-0.5c-0.2-0.1-0.4-0.1-0.5,0.1L219.3,52.7z"/>
		<polygon class="st1" points="209.5,44.8 219.3,52.7 209.5,60.6 190.1,60.6 180.4,52.7 190.1,44.8 		"/>
		<path class="st0" d="M209.5,44.8l-0.3,0.4l9.2,7.5l-9.1,7.4l-19.1,0l-9.1-7.4l9.1-7.4h19.2V44.8l-0.3,0.4L209.5,44.8v-0.5h-19.4
			c-0.1,0-0.2,0-0.3,0.1l-9.7,7.9c-0.1,0.1-0.2,0.2-0.2,0.4c0,0.2,0.1,0.3,0.2,0.4l9.7,7.9c0.1,0.1,0.2,0.1,0.3,0.1h19.4
			c0.1,0,0.2,0,0.3-0.1l9.7-7.9c0.1-0.1,0.2-0.2,0.2-0.4c0-0.2-0.1-0.3-0.2-0.4l-9.7-7.9c-0.1-0.1-0.2-0.1-0.3-0.1V44.8z"/>
		<polygon class="st2" points="190.1,60.6 190.1,69.2 180.4,61.3 180.4,52.7 		"/>
		<path class="st0" d="M190.1,60.6h-0.5v7.6l-8.7-7.1v-7.3l8.9,7.2L190.1,60.6h-0.5H190.1l0.3-0.4l-9.7-7.9
			c-0.1-0.1-0.4-0.1-0.5-0.1c-0.2,0.1-0.3,0.3-0.3,0.5v8.6c0,0.2,0.1,0.3,0.2,0.4l9.7,7.9c0.1,0.1,0.4,0.1,0.5,0.1
			c0.2-0.1,0.3-0.3,0.3-0.5v-8.6c0-0.2-0.1-0.3-0.2-0.4L190.1,60.6z"/>
		<rect x="253.8" y="25.9" class="st1" width="12.7" height="5.6"/>
		<path class="st0" d="M266.6,25.9h-0.5v5.1h-11.7l0-4.6h12.2V25.9h-0.5H266.6v-0.5h-12.7c-0.1,0-0.3,0.1-0.4,0.1
			c-0.1,0.1-0.1,0.2-0.1,0.4v5.6c0,0.1,0.1,0.3,0.1,0.4c0.1,0.1,0.2,0.1,0.4,0.1h12.7c0.1,0,0.3-0.1,0.4-0.1
			c0.1-0.1,0.1-0.2,0.1-0.4v-5.6c0-0.1-0.1-0.3-0.1-0.4c-0.1-0.1-0.2-0.1-0.4-0.1V25.9z"/>
		<polygon class="st1" points="272.9,20.8 272.9,26.4 266.6,31.6 266.6,25.9 		"/>
		<path class="st0" d="M272.9,20.8h-0.5v5.4l-5.4,4.4v-4.4l6.2-5L272.9,20.8h-0.5H272.9l-0.3-0.4l-6.4,5.2c-0.1,0.1-0.2,0.2-0.2,0.4
			v5.6c0,0.2,0.1,0.4,0.3,0.5c0.2,0.1,0.4,0.1,0.5-0.1l6.4-5.2c0.1-0.1,0.2-0.2,0.2-0.4v-5.6c0-0.2-0.1-0.4-0.3-0.5
			c-0.2-0.1-0.4-0.1-0.5,0.1L272.9,20.8z"/>
		<polygon class="st1" points="266.6,15.6 272.9,20.8 266.6,25.9 253.8,25.9 247.5,20.8 253.8,15.6 		"/>
		<path class="st0" d="M266.6,15.6l-0.3,0.4l5.9,4.8l-5.8,4.7H254l-5.8-4.7l5.8-4.7h12.6V15.6l-0.3,0.4L266.6,15.6v-0.5h-12.7
			c-0.1,0-0.2,0-0.3,0.1l-6.4,5.2c-0.1,0.1-0.2,0.2-0.2,0.4c0,0.2,0.1,0.3,0.2,0.4l6.4,5.2c0.1,0.1,0.2,0.1,0.3,0.1h12.7
			c0.1,0,0.2,0,0.3-0.1l6.4-5.2c0.1-0.1,0.2-0.2,0.2-0.4c0-0.2-0.1-0.3-0.2-0.4l-6.4-5.2c-0.1-0.1-0.2-0.1-0.3-0.1V15.6z"/>
		<polygon class="st2" points="253.8,25.9 253.8,31.6 247.5,26.4 247.5,20.8 		"/>
		<path class="st0" d="M253.8,25.9h-0.5v4.6l-5.4-4.4v-4.4l5.6,4.5L253.8,25.9h-0.5H253.8l0.3-0.4l-6.4-5.2
			c-0.1-0.1-0.4-0.1-0.5-0.1c-0.2,0.1-0.3,0.3-0.3,0.5v5.6c0,0.2,0.1,0.3,0.2,0.4l6.4,5.2c0.1,0.1,0.4,0.1,0.5,0.1
			c0.2-0.1,0.3-0.3,0.3-0.5v-5.6c0-0.2-0.1-0.3-0.2-0.4L253.8,25.9z"/>
		<rect x="351.3" y="32.6" class="st1" width="11.1" height="4.9"/>
		<path class="st0" d="M362.4,32.6h-0.5v4.4h-10.1v-3.9l10.6,0V32.6h-0.5H362.4v-0.5h-11.1c-0.1,0-0.3,0.1-0.4,0.1
			c-0.1,0.1-0.1,0.2-0.1,0.4v4.9c0,0.1,0.1,0.3,0.1,0.4c0.1,0.1,0.2,0.1,0.4,0.1h11.1c0.1,0,0.3-0.1,0.4-0.1
			c0.1-0.1,0.1-0.2,0.1-0.4v-4.9c0-0.1-0.1-0.3-0.1-0.4c-0.1-0.1-0.2-0.1-0.4-0.1V32.6z"/>
		<polygon class="st1" points="368,28.1 368,33 362.4,37.6 362.4,32.6 		"/>
		<path class="st0" d="M368,28.1h-0.5v4.7l-4.6,3.7v-3.7l5.4-4.4L368,28.1h-0.5H368l-0.3-0.4l-5.6,4.5c-0.1,0.1-0.2,0.2-0.2,0.4v4.9
			c0,0.2,0.1,0.4,0.3,0.5s0.4,0.1,0.5-0.1l5.6-4.5c0.1-0.1,0.2-0.2,0.2-0.4v-4.9c0-0.2-0.1-0.4-0.3-0.5c-0.2-0.1-0.4-0.1-0.5,0.1
			L368,28.1z"/>
		<polygon class="st1" points="362.4,23.6 368,28.1 362.4,32.6 351.3,32.6 345.7,28.1 351.3,23.6 		"/>
		<path class="st0" d="M362.4,23.6l-0.3,0.4l5.1,4.1l-5,4h-10.8l-5-4l5-4l11,0V23.6l-0.3,0.4L362.4,23.6v-0.5h-11.1
			c-0.1,0-0.2,0-0.3,0.1l-5.6,4.5c-0.1,0.1-0.2,0.2-0.2,0.4c0,0.2,0.1,0.3,0.2,0.4L351,33c0.1,0.1,0.2,0.1,0.3,0.1h11.1
			c0.1,0,0.2,0,0.3-0.1l5.6-4.5c0.1-0.1,0.2-0.2,0.2-0.4c0-0.2-0.1-0.3-0.2-0.4l-5.6-4.5c-0.1-0.1-0.2-0.1-0.3-0.1V23.6z"/>
		<polygon class="st2" points="351.3,32.6 351.3,37.6 345.7,33 345.7,28.1 		"/>
		<path class="st0" d="M351.3,32.6h-0.5v3.9l-4.6-3.7v-3.7L351,33L351.3,32.6h-0.5H351.3l0.3-0.4l-5.6-4.5c-0.1-0.1-0.4-0.1-0.5-0.1
			c-0.2,0.1-0.3,0.3-0.3,0.5V33c0,0.2,0.1,0.3,0.2,0.4L351,38c0.1,0.1,0.4,0.1,0.5,0.1s0.3-0.3,0.3-0.5v-4.9c0-0.2-0.1-0.3-0.2-0.4
			L351.3,32.6z"/>
		<rect x="340.2" y="259.7" class="st1" width="33.3" height="14.8"/>
		<path class="st0" d="M373.5,259.7H373v14.3h-32.3v-13.8h32.8V259.7H373H373.5v-0.5h-33.3c-0.1,0-0.3,0.1-0.4,0.1
			c-0.1,0.1-0.1,0.2-0.1,0.4v14.8c0,0.1,0.1,0.3,0.1,0.4c0.1,0.1,0.2,0.1,0.4,0.1h33.3c0.1,0,0.3-0.1,0.4-0.1
			c0.1-0.1,0.1-0.2,0.1-0.4v-14.8c0-0.1-0.1-0.3-0.1-0.4c-0.1-0.1-0.2-0.1-0.4-0.1V259.7z"/>
		<polygon class="st1" points="390.1,246.1 390.1,260.9 373.5,274.4 373.5,259.7 		"/>
		<path class="st0" d="M390.1,246.1h-0.5v14.5L374,273.4v-13.5l16.5-13.4L390.1,246.1h-0.5H390.1l-0.3-0.4l-16.7,13.5
			c-0.1,0.1-0.2,0.2-0.2,0.4v14.8c0,0.2,0.1,0.4,0.3,0.5c0.2,0.1,0.4,0.1,0.5-0.1l16.7-13.5c0.1-0.1,0.2-0.2,0.2-0.4v-14.8
			c0-0.2-0.1-0.4-0.3-0.5s-0.4-0.1-0.5,0.1L390.1,246.1z"/>
		<polygon class="st1" points="373.5,232.6 390.1,246.1 373.5,259.7 340.2,259.7 323.5,246.1 340.2,232.6 		"/>
		<path class="st0" d="M373.5,232.6l-0.3,0.4l16.2,13.2l-16,13h-33l-16-13l16-13l33.1,0V232.6l-0.3,0.4L373.5,232.6v-0.5h-33.3
			c-0.1,0-0.2,0-0.3,0.1l-16.7,13.5c-0.1,0.1-0.2,0.2-0.2,0.4c0,0.2,0.1,0.3,0.2,0.4l16.7,13.5c0.1,0.1,0.2,0.1,0.3,0.1h33.3
			c0.1,0,0.2,0,0.3-0.1l16.7-13.5c0.1-0.1,0.2-0.2,0.2-0.4c0-0.2-0.1-0.3-0.2-0.4l-16.7-13.5c-0.1-0.1-0.2-0.1-0.3-0.1V232.6z"/>
		<polygon class="st0" points="340.2,259.7 340.2,274.4 323.5,260.9 323.5,246.1 		"/>
		<path class="st0" d="M340.2,259.7h-0.5v13.7L324,260.7v-13.5l15.8,12.9L340.2,259.7h-0.5H340.2l0.3-0.4l-16.7-13.5
			c-0.1-0.1-0.4-0.1-0.5-0.1s-0.3,0.3-0.3,0.5v14.8c0,0.2,0.1,0.3,0.2,0.4l16.7,13.5c0.1,0.1,0.4,0.1,0.5,0.1
			c0.2-0.1,0.3-0.3,0.3-0.5v-14.8c0-0.2-0.1-0.3-0.2-0.4L340.2,259.7z"/>
		<path class="st0" d="M361.4,208.3c0,0,0,10.9-12.6,12.3c-6.6,0.7-17.2-1.8-17.2-1.8"/>
		<path class="st0" d="M360.9,208.3l0,0.1c0,0.6-0.2,3.2-1.8,5.8c-1.6,2.6-4.6,5.2-10.3,5.8c-0.8,0.1-1.7,0.1-2.6,0.1
			c-3.2,0-6.8-0.5-9.7-0.9c-1.4-0.2-2.6-0.5-3.5-0.6c-0.9-0.2-1.4-0.3-1.4-0.3l-0.2,1c0,0,8.2,1.9,14.7,1.9c0.9,0,1.8,0,2.7-0.1
			c6.5-0.7,9.8-3.9,11.4-6.9c1.6-3,1.6-5.8,1.6-5.9H360.9L360.9,208.3z"/>
		<path class="st0" d="M250.4,216.1c3,15.1,31.6-2.7,31.6-2.7l5.2-26.8L254,197.8l-3.5,16.7"/>
		<path class="st0" d="M249.9,216.2c0.5,2.3,1.6,4,3.1,5c1.5,1,3.4,1.4,5.5,1.4c4.9,0,10.8-2.2,15.5-4.4c4.7-2.2,8.3-4.4,8.3-4.4
			l0.2-0.1l5.4-27.9l-34.4,11.6l-3.6,17l1,0.2l3.5-16.5l32.2-10.8l-5,26l0.5,0.1l-0.3-0.4c0,0-0.2,0.1-0.6,0.4
			c-1.4,0.8-5,2.9-9.4,4.8c-4.3,1.9-9.3,3.5-13.3,3.5c-1.9,0-3.6-0.4-4.9-1.3c-1.3-0.9-2.2-2.3-2.7-4.4L249.9,216.2L249.9,216.2z"/>
		<polygon class="st0" points="361.9,208.3 359.9,194.3 324.1,194.4 331,219 332,218.7 325.4,195.4 359,195.3 360.9,208.4 
			361.9,208.3 		"/>
		<polyline class="st0" points="361.4,208.3 358.3,194.9 326.4,196.9 331.5,218.8 		"/>
		<polygon class="st0" points="361.8,208.2 358.7,194.4 325.8,196.5 331,218.9 332,218.7 327,197.4 357.9,195.4 360.9,208.5 
			361.8,208.2 		"/>
		<polyline class="st1" points="328.1,295.3 333.7,182.9 295.4,182.9 289.5,182.9 263.5,182.9 272,295.3 		"/>
		<polygon class="st0" points="328.6,295.3 334.2,182.4 295.4,182.4 289.5,182.4 263,182.4 271.5,295.3 272.5,295.2 264.1,183.4 
			289.5,183.4 295.4,183.4 333.2,183.4 327.6,295.2 328.6,295.3 		"/>
		<polyline class="st1" points="295.4,295.3 298.6,224.3 298,295.3 		"/>
		<polygon class="st0" points="295.9,295.3 297.9,251.3 297.5,295.2 298.5,295.3 299.1,224.3 298.1,224.2 294.9,295.2 295.9,295.3 
					"/>
		<path class="st0" d="M281.6,102.3c0,0-0.1,0.2-0.2,0.5c-1.2,2.5-6.7,13.6-14.3,24.2c-3.8,5.3-8,10.4-12.4,14.1
			c-4.4,3.8-9,6.2-13.3,6.2v1c5.1,0,10.1-2.9,14.9-7.2c7.2-6.4,13.7-16,18.5-24c4.8-8,7.8-14.3,7.8-14.4L281.6,102.3L281.6,102.3z"
			/>
		<rect x="299" y="53.7" class="st0" width="14.8" height="16.8"/>
		<path class="st0" d="M313.8,70.5V70h-14.3V54.2l13.8,0l0,16.3H313.8V70V70.5h0.5V53.7c0-0.1-0.1-0.3-0.1-0.4
			c-0.1-0.1-0.2-0.1-0.4-0.1H299c-0.1,0-0.3,0.1-0.4,0.1c-0.1,0.1-0.1,0.2-0.1,0.4v16.8c0,0.1,0.1,0.3,0.1,0.4
			c0.1,0.1,0.2,0.1,0.4,0.1h14.8c0.1,0,0.3-0.1,0.4-0.1c0.1-0.1,0.1-0.2,0.1-0.4H313.8z"/>
		<path class="st1" d="M321.1,34.7c0,0-4.7,23.7-14.3,23.7c-13.4,0-16.9-28.9-16.9-28.9"/>
		<path class="st0" d="M320.6,34.6c0,0-0.1,0.4-0.2,1c-0.5,2.2-1.9,7.9-4.2,12.9c-1.2,2.5-2.5,4.9-4.1,6.6c-1.6,1.7-3.3,2.7-5.2,2.7
			c-3.2,0-5.7-1.7-7.9-4.3c-3.2-4-5.4-10-6.7-15c-0.7-2.5-1.1-4.8-1.4-6.4c-0.1-0.8-0.2-1.5-0.3-1.9c-0.1-0.5-0.1-0.7-0.1-0.7
			c0-0.3-0.3-0.5-0.6-0.4c-0.3,0-0.5,0.3-0.4,0.6c0,0,0.9,7.3,3.5,14.5c1.3,3.6,3,7.3,5.3,10.1c2.3,2.8,5.1,4.7,8.7,4.7
			c1.3,0,2.5-0.4,3.6-1.1c1.9-1.2,3.6-3.3,5-5.6c4.2-7.1,6.2-17.3,6.2-17.4c0.1-0.3-0.1-0.5-0.4-0.6
			C320.9,34.2,320.7,34.3,320.6,34.6L320.6,34.6z"/>
		<path class="st0" d="M291.8,39c0,0-3.7-13.4-2.3-18.1c1.4-4.8,10.3-13.9,16-14c6.9,0,18.7,3.9,18,12.4c-0.5,5.8-3.2,18.9-3.2,18.9
			l-1.4-11.5l-26.7-2.8L291.8,39z"/>
		<path class="st0" d="M291.8,39l0.5-0.1c0,0-0.2-0.6-0.4-1.6c-0.7-2.9-2.2-9.3-2.2-13.6c0-1.1,0.1-2,0.3-2.7
			c0.3-1.1,1.1-2.6,2.2-4.1c1.6-2.3,4-4.7,6.4-6.5c2.4-1.8,4.9-3.1,6.9-3.1l0.1,0c3.3,0,7.7,0.9,11.2,2.8c1.8,0.9,3.3,2.1,4.4,3.5
			c1.1,1.4,1.7,3,1.8,4.9c0,0.2,0,0.5,0,0.7c-0.2,2.9-1,7.6-1.8,11.6c-0.4,2-0.7,3.8-1,5.1c-0.3,1.3-0.4,2.1-0.4,2.1l0.5,0.1
			l0.5-0.1l-1.4-11.5c0-0.2-0.2-0.4-0.4-0.4l-26.7-2.8c-0.1,0-0.3,0-0.4,0.1s-0.2,0.2-0.2,0.4L291.3,39L291.8,39l0.5-0.1L291.8,39
			l0.5,0l0.4-14.6l25.7,2.7l1.3,11.1c0,0.2,0.2,0.4,0.5,0.4c0.2,0,0.5-0.2,0.5-0.4c0,0,2.7-13.1,3.2-18.9c0-0.3,0-0.5,0-0.8
			c0-2.1-0.8-4-2-5.5c-1.8-2.3-4.7-4-7.7-5.1c-3-1.1-6.2-1.6-8.8-1.6l-0.1,0c-1.5,0-3.2,0.6-4.9,1.6c-2.5,1.4-5.1,3.7-7.2,6
			c-2.1,2.4-3.7,4.8-4.3,6.7c-0.2,0.8-0.3,1.8-0.3,3c0,3,0.7,6.8,1.3,9.9c0.6,3.1,1.3,5.5,1.3,5.5c0.1,0.2,0.3,0.4,0.5,0.4
			s0.4-0.2,0.4-0.5L291.8,39z"/>
		<path class="st1" d="M331.5,182.9h-32.9L299,62.7l0.2,0.3c3.9,4.5,10.9,4.4,14.6-0.3h13.8L331.5,182.9z"/>
		<path class="st0" d="M331.5,182.9v-0.5h-32.4l0.4-119.7l-0.5,0l-0.4,0.3l0.2,0.3c2,2.3,4.8,3.5,7.5,3.5c2.9,0,5.8-1.2,7.8-3.7
			l-0.4-0.3v0.5H327l4,119.7L331.5,182.9v-0.5V182.9l0.5,0l-4-120.2c0-0.3-0.2-0.5-0.5-0.5h-13.8c-0.2,0-0.3,0.1-0.4,0.2
			c-1.8,2.2-4.4,3.4-7,3.4c-2.5,0-5-1-6.8-3.1l-0.2-0.3c-0.1-0.2-0.4-0.2-0.6-0.1s-0.3,0.3-0.3,0.5l-0.4,120.2
			c0,0.1,0.1,0.3,0.1,0.4c0.1,0.1,0.2,0.1,0.4,0.1h32.9c0.1,0,0.3-0.1,0.4-0.2c0.1-0.1,0.1-0.2,0.1-0.4L331.5,182.9z"/>
		<path class="st0" d="M317.8,180.2c0,0,9.8-7,14,14.1c0.8,4.1,8.5-14.4,8.5-14.4l-13.7-11.5L317.8,180.2z"/>
		<path class="st0" d="M317.8,180.2l0.3,0.4l0,0c0.1-0.1,1.6-1,3.4-1c1.5,0,3.3,0.6,5,2.7c1.8,2.1,3.5,5.8,4.8,12.1
			c0.1,0.2,0.1,0.5,0.3,0.7c0.1,0.2,0.4,0.4,0.7,0.3c0.3,0,0.5-0.1,0.7-0.3c0.4-0.3,0.7-0.7,1.1-1.2c1.3-1.9,3-5.3,4.4-8.3
			c1.4-3,2.4-5.5,2.4-5.5c0.1-0.2,0-0.4-0.1-0.6l-13.7-11.5c-0.1-0.1-0.2-0.1-0.4-0.1c-0.1,0-0.3,0.1-0.3,0.2l-8.8,11.9
			c-0.1,0.2-0.1,0.5,0,0.6c0.2,0.2,0.4,0.2,0.6,0.1L317.8,180.2l0.4,0.3l8.5-11.4l13.3,11.2l0.3-0.4l-0.5-0.2c0,0-0.4,0.9-1,2.3
			c-0.9,2.1-2.3,5.3-3.7,7.9c-0.7,1.3-1.3,2.5-1.9,3.3c-0.3,0.4-0.5,0.7-0.7,0.9c-0.1,0.1-0.2,0.2-0.2,0.2l-0.1,0l0,0l0,0l0,0l0,0
			l0,0l0,0.1v-0.1l0,0l0,0.1v-0.1v0.2l0.1-0.2l-0.1,0v0.2l0.1-0.2l-0.1,0.1l0.1-0.1l0,0l-0.1,0.1l0.1-0.1l0,0l0,0l0,0l0,0l0,0
			c0,0-0.1-0.1-0.1-0.2c-1.3-6.4-3-10.2-5-12.6c-1.9-2.3-4.1-3-5.8-3c-2.3,0-3.9,1.2-4,1.2L317.8,180.2l0.4,0.3L317.8,180.2z"/>
		<path class="st0" d="M285.1,197.6c-7.5-1.5-16.8,3.6-16.8,3.6l8.5-11.6C276.7,189.6,287.9,198.2,285.1,197.6z"/>
		<path class="st0" d="M285.1,197.6l0.1-0.5c-1-0.2-2-0.3-3-0.3c-7,0-14.1,3.9-14.1,4l0.2,0.4l0.4,0.3l8.5-11.6l-0.4-0.3l-0.3,0.4
			c0,0,0.5,0.4,1.4,1.1c1.2,1,3.1,2.4,4.6,3.8c0.8,0.7,1.5,1.3,1.9,1.8c0.2,0.3,0.4,0.5,0.6,0.6L285.1,197.6L285.1,197.6l0.2-0.1
			l-0.2,0L285.1,197.6l0.2-0.1l-0.2,0h0.4l-0.2-0.3c-0.1,0.1-0.2,0.2-0.2,0.3h0.4l-0.2-0.3l0.2,0.2l-0.1-0.3l-0.1,0l0.2,0.2
			l-0.1-0.3l0,0.1l0-0.1l0,0l0,0.1l0-0.1l0,0l-0.1,0L285.1,197.6l-0.1,0.5c0.1,0,0.2,0,0.3,0c0.1,0,0.3,0,0.5-0.1
			c0.2-0.1,0.3-0.4,0.3-0.5c0-0.2-0.1-0.4-0.2-0.5c-0.2-0.3-0.4-0.6-0.7-0.9c-1.1-1.2-3.1-2.8-4.9-4.3c-1.8-1.4-3.2-2.5-3.3-2.6
			c-0.1-0.1-0.2-0.1-0.4-0.1c-0.1,0-0.3,0.1-0.3,0.2l-8.5,11.6c-0.1,0.2-0.1,0.4,0,0.6c0.2,0.2,0.4,0.2,0.6,0.1c0,0,0.1-0.1,0.3-0.2
			c1.4-0.7,7.6-3.7,13.3-3.7c1,0,1.9,0.1,2.9,0.3L285.1,197.6z"/>
		<path class="st2" d="M325.2,62.3c17.4,0,30.5,28.1,30.5,28.1l5.6,117.9c-1.4-14.7-19.8,1.5-28.8-10.5c-3.6-4.8,6-20.3,1.1-23.7
			c-3.5-2.5-15.9,6.1-15.9,6.1l-4-117.5L325.2,62.3"/>
		<path class="st0" d="M325.2,62.8c4.2,0,8.2,1.7,11.8,4.3c5.4,3.9,10,9.8,13.2,14.7c1.6,2.5,2.9,4.7,3.7,6.3c0.4,0.8,0.8,1.4,1,1.9
			c0.2,0.4,0.3,0.7,0.3,0.7l0.5-0.2l-0.5,0l5.6,117.9l0.5,0l0.5,0c-0.3-2.8-1.1-4.6-2.5-5.7c-1.4-1.1-3.1-1.4-5.1-1.4
			c-3.3,0-7.2,0.9-11,0.9c-1.9,0-3.8-0.2-5.6-0.9c-1.7-0.7-3.4-1.8-4.8-3.7c-0.5-0.7-0.7-1.6-0.7-2.8c0-2.3,0.8-5.4,1.7-8.4
			c0.8-3.1,1.7-6.2,1.7-8.6c0-0.8-0.1-1.6-0.3-2.3c-0.2-0.7-0.7-1.3-1.3-1.7c-0.6-0.4-1.2-0.5-2-0.6c-1.3,0-2.8,0.4-4.4,1.1
			c-4.7,1.9-10.1,5.6-10.1,5.6l0.3,0.4l0.5,0l-4-117L325.2,62.8l0-1l-12,0.4l4,118.9l0.8-0.5c0,0,0.1-0.1,0.4-0.3
			c0.9-0.6,3.3-2.2,6-3.6c1.3-0.7,2.7-1.4,4-1.8c1.3-0.5,2.5-0.8,3.5-0.8c0.6,0,1.1,0.1,1.4,0.4c0.4,0.3,0.7,0.7,0.9,1.2
			c0.2,0.5,0.3,1.2,0.3,1.9c0,2.2-0.8,5.3-1.7,8.4c-0.8,3.1-1.7,6.2-1.7,8.7c0,1.3,0.2,2.5,0.9,3.4c1.5,2,3.3,3.3,5.2,4
			c1.9,0.8,3.9,1,5.9,1c3.9,0,7.9-0.9,11-0.9c1.8,0,3.3,0.3,4.4,1.2c1.1,0.9,1.9,2.4,2.1,5l1-0.1l-5.6-118l0-0.1
			c0,0-3.3-7.1-8.8-14.2c-2.7-3.5-6-7.1-9.8-9.8c-3.7-2.7-7.9-4.5-12.4-4.5V62.8L325.2,62.8z"/>
		<path class="st3" d="M261.7,71.5c-17.4,0-9.1,31.9-9.1,31.9l-2.2,112.7c1-10.6,3.8-13.6,13.1-13.6c8.9,0,8.9-10.9,13.2-10.9
			c5.3,0,5.3,6.1,9.6,6.1c14.9,0,13.1-18.3,13.1-18.3L299,62.7l-9.1,0.2C278.6,63.1,271.6,66.1,261.7,71.5"/>
		<path class="st0" d="M261.7,71c-2.3,0-4.2,0.5-5.7,1.5c-2.3,1.4-3.8,3.8-4.6,6.5c-0.9,2.7-1.2,5.9-1.2,9c0,7.9,2,15.5,2,15.5
			l0.5-0.1l-0.5,0l-2.2,112.7l1,0.1c0.5-5.3,1.5-8.5,3.3-10.4c0.9-1,2.1-1.6,3.6-2.1c1.5-0.4,3.4-0.6,5.7-0.6c2.3,0,4.1-0.7,5.5-1.8
			c2.1-1.6,3.3-4,4.4-5.9c0.5-0.9,1.1-1.8,1.6-2.3c0.5-0.6,1-0.8,1.7-0.8c1.2,0,2.1,0.3,2.9,0.9c1.1,0.8,1.9,2,2.9,3.1
			c0.5,0.6,1,1.1,1.6,1.5c0.6,0.4,1.4,0.6,2.3,0.6c3.1,0,5.5-0.8,7.4-2c2.8-1.9,4.4-4.8,5.3-7.6c0.9-2.8,1-5.6,1-7.4
			c0-1.1-0.1-1.9-0.1-1.9l-0.5,0l0.5,0l-0.5-117.3l-9.6,0.2c-11.4,0.2-18.5,3.3-28.4,8.7l0.5,0.9c9.9-5.4,16.8-8.4,27.9-8.6l8.6-0.2
			l0.5,116.3l0,0l0,0.1c0,0.2,0.1,0.8,0.1,1.7c0,2.3-0.3,6.3-2,9.8c-0.9,1.7-2.1,3.3-3.8,4.4c-1.7,1.1-3.9,1.8-6.9,1.8
			c-1,0-1.6-0.3-2.2-0.8c-0.9-0.8-1.7-2-2.8-3.2c-0.5-0.6-1.1-1.1-1.9-1.5c-0.8-0.4-1.7-0.6-2.7-0.6c-0.6,0-1.2,0.2-1.7,0.6
			c-0.9,0.6-1.5,1.6-2.1,2.7c-1,1.6-1.9,3.6-3.3,5.1c-1.4,1.5-3.2,2.6-6,2.6c-2.3,0-4.3,0.2-6,0.7c-2.5,0.7-4.3,2.1-5.5,4.2
			c-1.2,2.2-1.8,5.1-2.2,9.1l0.5,0l0.5,0l2.2-112.8l0-0.1c0,0,0-0.1-0.1-0.3c-0.4-1.5-1.9-8.2-1.9-14.9c0-4,0.5-8.1,2.1-11.1
			c0.8-1.5,1.8-2.7,3.2-3.6c1.4-0.9,3.1-1.4,5.2-1.4V71L261.7,71z"/>
		<path class="st2" d="M319.9,62.3c3.7,0,14.9,0,24-0.1c32.4-0.3,88.1-0.9,88.1-0.9s3.6,1.9,3.6,7.9c0,12.6-3.6,12.6-3.6,12.6
			l-78.8,15.9"/>
		<path class="st0" d="M319.9,62.8c3.7,0,14.9,0,24-0.1c32.4-0.3,88.1-0.9,88.1-0.9l0-0.5l-0.2,0.4l0,0c0.1,0,0.9,0.5,1.7,1.7
			c0.8,1.1,1.6,3,1.6,5.8c0,6.3-0.9,9.4-1.7,10.8c-0.4,0.7-0.8,1-1.1,1.2c-0.1,0.1-0.2,0.1-0.3,0.1l-0.1,0l0,0l0,0.3v-0.3l0,0l0,0.3
			v-0.3h-0.1L353,97.2l0.2,1L432,82.3l-0.1-0.5v0.5c0.1,0,0.4,0,0.8-0.3c0.6-0.4,1.5-1.2,2.1-3.2c0.7-1.9,1.2-4.9,1.2-9.7
			c0-3.1-0.9-5.2-1.9-6.5c-1-1.3-1.9-1.8-2-1.8l-0.1-0.1l-0.1,0c0,0-0.9,0-2.5,0c-11.1,0.1-57.3,0.6-85.6,0.8
			c-9.1,0.1-20.3,0.1-24,0.1V62.8L319.9,62.8z"/>
		<path class="st1" d="M428.8,65.3l20.9-1.8l13.7,6.4l11.7-1.6l1.6-5.3c0.6-1.9,2.3-3.3,4.3-3.4c0.7,0,1.2,0.2,1,0.9
			c-0.7,1.9,0.4,7.7-1.8,10c-3.4,3.5-14.4,5.6-14.4,5.6h-14.9l-5.2-5.7L428,76.2"/>
		<path class="st0" d="M428.9,65.8l20.8-1.8l13.8,6.4l12.1-1.7l1.7-5.6c0.5-1.7,2.1-3,3.8-3l0.1,0c0.2,0,0.4,0,0.4,0.1l0,0l0-0.1
			l-0.1,0l0,0l0-0.1l-0.1,0l0,0l-0.1,0l0,0l0,0l-0.1,0l0,0l0,0.2c-0.2,0.6-0.3,1.3-0.3,2.2c0,1.3,0,2.8-0.2,4.3
			c-0.2,1.4-0.5,2.7-1.3,3.4c-0.8,0.8-2,1.6-3.5,2.2c-2.2,1-4.9,1.8-7,2.4c-1.1,0.3-2,0.5-2.6,0.6c-0.6,0.1-1,0.2-1,0.2l0.1,0.5
			v-0.5h-14.7l-5.2-5.8l-18.1,5.8l0.3,1l17.5-5.6l5.1,5.6h15.2l0,0c0,0,2.8-0.6,6-1.5c1.6-0.5,3.3-1.1,4.9-1.8
			c1.5-0.7,2.9-1.5,3.8-2.4c0.7-0.7,1-1.5,1.3-2.5c0.4-1.4,0.4-3,0.4-4.5c0-0.7,0-1.4,0.1-1.9c0-0.6,0.1-1,0.2-1.3
			c0.1-0.2,0.1-0.3,0.1-0.5c0-0.2,0-0.4-0.1-0.5c-0.1-0.2-0.4-0.4-0.6-0.4c-0.2-0.1-0.4-0.1-0.7-0.1l-0.1,0
			c-2.2,0.1-4.1,1.7-4.7,3.8l-1.5,5l-11.2,1.5L449.8,63l-21.1,1.8L428.9,65.8L428.9,65.8z"/>
		<path class="st1" d="M449.8,63.5l18.6-5.8c-0.7,3.7-3.1,6.8-6.4,8.6l-8.2,4.2"/>
		<path class="st0" d="M449.9,64l18.6-5.8l-0.1-0.5l-0.5-0.1c-0.7,3.5-3,6.6-6.2,8.2l-8.2,4.2l0.5,0.9l8.2-4.2
			c3.5-1.8,5.9-5.1,6.7-8.9L469,57l-19.4,6.1L449.9,64L449.9,64z"/>
		
			<ellipse transform="matrix(0.2157 -0.9765 0.9765 0.2157 259.4698 548.6039)" class="st2" cx="471.3" cy="112.8" rx="18.2" ry="18.2"/>
		<path class="st0" d="M495.6,114.7l0.5,0c0-13.7-11.1-24.8-24.8-24.8l0,0c-13.7,0-24.8,11.1-24.8,24.8l0,0l0.5,0l-0.5,0
			c0,11,7.2,20.3,17.1,23.5l0.2-0.5l-0.5-0.1c-0.2,0.7-0.3,1.4-0.3,2.1l0,5.5l0,2.7c0,0.1,0,0.2,0.1,0.3l4.8,5.1l-4.8,5.1
			c-0.2,0.2-0.2,0.5,0,0.7l4.8,5.1l-4.8,5.1c-0.2,0.2-0.2,0.5,0,0.7l4.6,5l-4.5,2.4c-0.2,0.1-0.3,0.3-0.3,0.4l0,3.8
			c0,4.6,3.7,8.3,8.3,8.3h0v-0.3l0,0.3l0,0v-0.3l0,0.3l0,0c4.6,0,8.3-3.7,8.3-8.3v0h-0.4l0.4,0l0,0h-0.4l0.4,0l0,0l-0.1-42
			c0-0.7-0.1-1.5-0.3-2.1l-0.5,0.1l0.2,0.5c9.9-3.3,17.1-12.6,17.1-23.6v0l0,0L495.6,114.7l-0.5,0l0,0c0,10.5-6.9,19.5-16.4,22.6
			c-0.3,0.1-0.4,0.3-0.3,0.6c0.2,0.6,0.3,1.2,0.3,1.9l0.1,42l0.5,0l-0.5,0l0,0l0,0c0,4.1-3.3,7.3-7.3,7.3l0,0.5l0-0.5l0,0
			c-4.1,0-7.3-3.3-7.3-7.3l0-3.5l4.8-2.6c0.1-0.1,0.2-0.2,0.3-0.4s0-0.3-0.1-0.4l-4.8-5.1l4.8-5.1c0.2-0.2,0.2-0.5,0-0.7l-4.8-5.1
			l4.8-5.1c0.2-0.2,0.2-0.5,0-0.7l-5-5.3l0-2.5l0-5.5c0-0.6,0.1-1.2,0.3-1.9c0.1-0.3-0.1-0.5-0.3-0.6c-9.5-3.1-16.4-12-16.4-22.6
			l0,0v0c0-13.1,10.6-23.8,23.8-23.8l0,0c13.1,0,23.8,10.6,23.8,23.8L495.6,114.7l-0.5,0L495.6,114.7z"/>
		<path class="st1" d="M477,103.4c0,3.2-2.6,5.7-5.7,5.7s-5.7-2.6-5.7-5.7s2.6-5.7,5.7-5.7C474.4,97.7,477,100.3,477,103.4z"/>
		<path class="st0" d="M477,103.4h-0.5h0.4l-0.4,0v0h0.4l-0.4,0l0,0c0,2.9-2.3,5.2-5.2,5.2l0,0c-2.9,0-5.2-2.3-5.2-5.2l0,0l-0.4,0
			h0.4l0,0l-0.4,0h0.4c0-2.9,2.3-5.2,5.2-5.2l0,0l0,0c2.9,0,5.2,2.3,5.2,5.2L477,103.4l0.5,0c0-3.4-2.8-6.2-6.2-6.2l0,0l0,0.5l0-0.5
			c-3.4,0-6.2,2.8-6.2,6.2l0,0l0.5,0l-0.5,0c0,3.4,2.8,6.2,6.2,6.2l0,0c3.4,0,6.2-2.8,6.2-6.2h-0.4l0.4,0v0h-0.4l0.4,0l0,0H477z"/>
		<path class="st0" d="M474.9,183.1l-0.1-47.5c0-0.3-0.2-0.5-0.5-0.5c-0.3,0-0.5,0.2-0.5,0.5l0.1,47.5c0,0.3,0.2,0.5,0.5,0.5
			C474.7,183.6,474.9,183.4,474.9,183.1"/>
		<path class="st0" d="M474.5,64.6c-0.5-0.1-1-0.2-1.5-0.2c-1,0-2.1,0.2-3,0.7c-2.2,1-3.6,3.1-3.9,5.5l-2.7,25.4c0,0.2,0,0.4,0,0.6
			c0,2,1,4,2.7,5.1l0.3,0.2c1,0.7,2.2,1,3.4,1c2,0,3.9-0.9,5.1-2.7c0.2-0.2,0.1-0.5-0.1-0.7c-0.2-0.2-0.5-0.1-0.7,0.1
			c-1,1.5-2.6,2.2-4.2,2.2c-1,0-2-0.3-2.8-0.9l-0.3-0.2c-1.4-1-2.3-2.6-2.3-4.3c0-0.2,0-0.4,0-0.5l2.7-25.4c0.2-2,1.5-3.8,3.3-4.7
			c0.8-0.4,1.7-0.6,2.6-0.6c0.4,0,0.9,0,1.3,0.1c0.3,0.1,0.5-0.1,0.6-0.4C474.9,64.9,474.7,64.7,474.5,64.6L474.5,64.6z"/>
		<path class="st0" d="M477.3,73.1l-0.9,18c0,0.3,0.2,0.5,0.5,0.5c0.3,0,0.5-0.2,0.5-0.5l0.9-18c0-0.3-0.2-0.5-0.5-0.5
			C477.6,72.6,477.3,72.9,477.3,73.1"/>
		<path class="st0" d="M432.2,60.9c0,0-0.3-0.2-0.7-0.2c-0.4,0-0.9,0.1-1.3,0.6c-0.7,0.6-1.3,1.8-1.8,4c-0.5,2.2-0.8,5.5-0.8,10.5
			c0,0.1,0,0.3,0,0.4c0,0.6,0.3,1.2,0.7,1.9c1.2,1.9,3.4,4.1,3.4,4.1l0.7-0.7c0,0-0.1-0.1-0.2-0.2c-0.4-0.4-1.3-1.4-2.1-2.4
			c-0.4-0.5-0.8-1.1-1.1-1.6c-0.3-0.5-0.4-0.9-0.4-1.1c0-0.1,0-0.3,0-0.4c0-6.5,0.6-10.1,1.3-12c0.4-0.9,0.7-1.5,1-1.7
			c0.3-0.3,0.5-0.3,0.7-0.3l0.2,0l0,0l0,0l0.1-0.3l-0.1,0.2l0,0l0.1-0.3l-0.1,0.2L432.2,60.9L432.2,60.9z"/>
		<path class="st0" d="M335.6,178c0,0-0.1-0.6-0.2-1.6c-0.4-3.6-1.5-12.9-2.4-22.6c-0.9-9.7-1.8-19.8-1.8-25.2h-1
			c0,6.3,1.1,18.6,2.2,29.4c1.1,10.8,2.2,20.1,2.2,20.1L335.6,178L335.6,178z"/>
		<path class="st0" d="M273.6,195c0,0,2.2-9.6,4.4-20.7c2.2-11.2,4.4-24,4.4-30.5h-1c0,6.4-2.2,19.2-4.4,30.4
			c-1.1,5.6-2.2,10.8-3,14.5c-0.4,1.9-0.8,3.4-1,4.5c-0.2,1.1-0.4,1.7-0.4,1.7L273.6,195L273.6,195z"/>
		<path class="st3" d="M241.4,162.9c-11.3,0-8-25.6-8-25.6l24.2,6.5C257.6,143.7,254,162.9,241.4,162.9z"/>
		<path class="st0" d="M241.4,162.9v-0.5c-1.7,0-2.9-0.6-4-1.6c-1.6-1.5-2.6-4-3.2-6.8c-0.6-2.8-0.8-6-0.8-8.8
			c0-2.2,0.1-4.2,0.2-5.6c0.1-0.7,0.1-1.3,0.2-1.7s0.1-0.6,0.1-0.6l-0.5-0.1l-0.1,0.5l24.2,6.5l0.1-0.5l-0.5-0.1c0,0,0,0.1,0,0.2
			c-0.2,1-1.3,5.7-3.8,10.1c-1.2,2.2-2.8,4.3-4.8,5.9c-2,1.6-4.3,2.5-7.1,2.5V162.9v0.5c3.3,0,6-1.3,8.2-3.1
			c3.3-2.8,5.4-6.9,6.7-10.3c1.3-3.4,1.8-6.1,1.8-6.1l0.1-0.5l-25.2-6.8l-0.1,0.6c0,0-0.5,3.6-0.5,8c0,3.8,0.3,8.2,1.6,11.8
			c0.6,1.8,1.5,3.4,2.7,4.5c1.2,1.1,2.8,1.8,4.7,1.8V162.9z"/>
		<path class="st0" d="M257.6,141c0,12.7-25.9,18.5-24.4-2.3c0.5-7.1,6.6-17.1,13-17.1C254.7,121.6,257.6,133.2,257.6,141z"/>
		<path class="st0" d="M257.6,141h-0.5c0,3.1-1.7,5.9-4.2,7.8c-2.5,2-5.9,3.1-9.1,3.1c-2.7,0-5.2-0.8-7.1-2.6
			c-1.9-1.8-3.1-4.7-3.1-8.9c0-0.5,0-1.1,0.1-1.6c0.2-3.4,1.9-7.6,4.2-11c1.2-1.7,2.5-3.1,3.9-4.1c1.4-1,2.9-1.6,4.3-1.6
			c2,0,3.7,0.7,5.1,1.8c2.1,1.7,3.6,4.5,4.5,7.7c0.9,3.1,1.3,6.5,1.3,9.4H257.6h0.5c0-3.9-0.7-8.8-2.6-12.8c-0.9-2-2.1-3.8-3.7-5
			c-1.6-1.3-3.5-2.1-5.7-2.1c-1.7,0-3.4,0.7-4.9,1.8c-2.3,1.6-4.3,4.2-5.8,7.1c-1.5,2.9-2.5,6-2.7,8.7c0,0.6-0.1,1.2-0.1,1.7
			c0,4.4,1.3,7.6,3.4,9.6c2.1,2,4.9,2.9,7.8,2.9c3.4,0,7-1.2,9.7-3.3c2.7-2.1,4.6-5.1,4.6-8.6H257.6z"/>
		<path class="st1" d="M241,117.2l-3.7,24.6c0,0,0,7.1,7.6,5.9c11.2-1.8,8.9-11.3,8.9-11.3l-1.9-19.3"/>
		<path class="st0" d="M240.5,117.1l-3.7,24.7v0c0,0,0,1.6,0.8,3.3c0.4,0.8,1,1.7,1.9,2.3c0.9,0.6,2.1,1,3.7,1c0.5,0,1.1,0,1.7-0.1
			c4.1-0.7,6.5-2.3,7.9-4.3c1.4-1.9,1.7-4,1.7-5.5c0-1.2-0.2-2.1-0.2-2.1l-0.5,0.1l0.5,0l-1.9-19.3l-1,0.1l1.9,19.3l0,0l0,0
			c0,0.1,0.2,0.9,0.2,1.9c0,1.4-0.3,3.3-1.5,5c-1.2,1.7-3.3,3.2-7.2,3.8c-0.6,0.1-1.1,0.1-1.6,0.1c-1.4,0-2.4-0.4-3.1-0.9
			c-1.1-0.8-1.7-1.9-2-2.9c-0.1-0.5-0.2-1-0.3-1.3c0-0.2,0-0.3,0-0.4l0-0.1l0,0h-0.5l0.5,0.1l3.7-24.6L240.5,117.1L240.5,117.1z"/>
		<path class="st1" d="M249.3,122.7c18.9-9.3,22-20,24.5-29.3C275.2,88.1,282,73,282,73c-4.4,0-8.5,2.6-10.3,6.7l-7.9,17.5l0.2-42.7
			c0-4.1-3.2-7.4-7.2-7.6l0.2-5.6c0.1-2.2-1.7-3.9-3.8-3.9c-2.1,0-3.9,1.7-3.8,3.9l0.1,4.3l-0.1-8.1c0-2.1-1.8-3.8-3.9-3.8
			c-2.1,0-3.8,1.7-3.9,3.8L241.4,52l0.1-8.8c0-2.2-1.7-3.9-3.9-3.9c-2.2,0-3.9,1.8-3.9,3.9v11.5c-2.5,0-4.6,2-4.6,4.6v36.2
			c0,14.2,8.3,25.8,13.1,27"/>
		<path class="st0" d="M249.5,123.2c9.5-4.7,15.1-9.7,18.6-14.8c3.5-5.1,4.9-10.1,6.2-14.8c0.7-2.6,2.8-7.7,4.6-12.2
			c0.9-2.2,1.8-4.3,2.5-5.8c0.7-1.5,1.1-2.4,1.1-2.4l0.3-0.7H282c-4.6,0-8.9,2.7-10.8,6.9l-7,15.3l0.2-40.4v0v0
			c0-4.3-3.4-7.9-7.7-8.1l0,0.5l0.5,0l0.2-5.6l0,0l0-0.1c0-2.4-1.9-4.3-4.3-4.3c-2.4,0-4.3,1.9-4.3,4.3l0,0.1l0.1,4.3l1,0l-0.1-8.1
			c0-2.4-2-4.3-4.4-4.3c-2.4,0-4.3,1.9-4.4,4.3L240.9,52l1,0l0.1-8.8v0l0,0c0-2.4-2-4.4-4.4-4.4c-2.4,0-4.4,2-4.4,4.4v11.5h0.5v-0.5
			c-2.8,0-5.1,2.3-5.1,5.1v36.2c0,7.2,2.1,13.7,4.8,18.6c1.4,2.4,2.9,4.5,4.3,6c1.5,1.5,3,2.5,4.3,2.9l0.2-1
			c-1.1-0.3-2.4-1.2-3.8-2.6c-4.2-4.3-8.9-13.4-8.8-23.9V59.2c0-1.1,0.5-2.1,1.2-2.9c0.7-0.7,1.8-1.2,2.9-1.2h0.5v-12
			c0-1.9,1.5-3.4,3.4-3.4c1.9,0,3.4,1.5,3.4,3.4l0,0l-0.1,8.8l1,0l0.1-14.6c0-1.8,1.5-3.3,3.4-3.3c1.8,0,3.3,1.5,3.4,3.3l0.1,8.1
			l1,0l-0.1-4.3l0,0c0-1.8,1.5-3.3,3.3-3.3c1.8,0,3.3,1.5,3.3,3.3l0,0.1l0,0l-0.2,6.1l0.5,0c3.8,0.2,6.8,3.3,6.8,7.1v0l-0.2,45
			l8.9-19.6c1.8-3.9,5.6-6.4,9.9-6.4V73l-0.5-0.2c0,0-1.7,3.8-3.6,8.2c-1.9,4.5-3.9,9.6-4.7,12.3c-1.2,4.7-2.6,9.6-6,14.5
			c-3.4,4.9-8.8,9.8-18.2,14.5L249.5,123.2L249.5,123.2z"/>
		<polyline class="st0" points="248.8,45.5 248.8,79.9 249.8,79.9 249.8,45.5 		"/>
		<polyline class="st0" points="256.2,46.8 256.2,84.8 257.2,84.8 257.2,46.8 		"/>
		<polyline class="st0" points="240.9,52 240.9,78.2 241.9,78.2 241.9,52 		"/>
		<polyline class="st0" points="233.1,54.6 233.1,81.8 234.1,81.8 234.1,54.6 		"/>
		<rect x="176" y="291.5" class="st1" width="50.9" height="22.6"/>
		<path class="st0" d="M226.9,291.5h-0.5v22.1h-49.9V292h50.4V291.5h-0.5H226.9V291H176c-0.1,0-0.3,0.1-0.4,0.1
			c-0.1,0.1-0.1,0.2-0.1,0.4v22.6c0,0.1,0.1,0.3,0.1,0.4c0.1,0.1,0.2,0.1,0.4,0.1h50.9c0.1,0,0.3-0.1,0.4-0.1
			c0.1-0.1,0.1-0.2,0.1-0.4v-22.6c0-0.1-0.1-0.3-0.1-0.4c-0.1-0.1-0.2-0.1-0.4-0.1V291.5z"/>
		<polygon class="st1" points="252.3,270.8 252.3,293.4 226.9,314.1 226.9,291.5 		"/>
		<path class="st0" d="M252.3,270.8h-0.5v22.3L227.4,313v-21.3l25.3-20.5L252.3,270.8h-0.5H252.3l-0.3-0.4l-25.4,20.7
			c-0.1,0.1-0.2,0.2-0.2,0.4v22.6c0,0.2,0.1,0.4,0.3,0.5c0.2,0.1,0.4,0.1,0.5-0.1l25.4-20.7c0.1-0.1,0.2-0.2,0.2-0.4v-22.6
			c0-0.2-0.1-0.4-0.3-0.5s-0.4-0.1-0.5,0.1L252.3,270.8z"/>
		<polygon class="st1" points="226.9,250.2 252.3,270.8 226.9,291.5 176,291.5 150.6,270.8 176,250.2 		"/>
		<path class="st0" d="M226.9,250.2l-0.3,0.4l25,20.3L226.7,291h-50.5l-24.8-20.2l24.8-20.2l50.7,0V250.2l-0.3,0.4L226.9,250.2v-0.5
			H176c-0.1,0-0.2,0-0.3,0.1l-25.4,20.7c-0.1,0.1-0.2,0.2-0.2,0.4c0,0.2,0.1,0.3,0.2,0.4l25.4,20.7c0.1,0.1,0.2,0.1,0.3,0.1h50.9
			c0.1,0,0.2,0,0.3-0.1l25.4-20.7c0.1-0.1,0.2-0.2,0.2-0.4c0-0.2-0.1-0.3-0.2-0.4l-25.4-20.7c-0.1-0.1-0.2-0.1-0.3-0.1V250.2z"/>
		<polygon class="st0" points="176,291.5 176,314.1 150.6,293.4 150.6,270.8 		"/>
		<path class="st0" d="M176,291.5h-0.5V313l-24.4-19.9l0-21.3l24.6,20L176,291.5h-0.5H176l0.3-0.4l-25.4-20.7
			c-0.1-0.1-0.4-0.1-0.5-0.1s-0.3,0.3-0.3,0.5v22.6c0,0.2,0.1,0.3,0.2,0.4l25.4,20.7c0.1,0.1,0.4,0.1,0.5,0.1
			c0.2-0.1,0.3-0.3,0.3-0.5v-22.6c0-0.2-0.1-0.3-0.2-0.4L176,291.5z"/>
		<rect x="112.1" y="265.6" class="st1" width="50.9" height="22.6"/>
		<path class="st0" d="M163,265.6h-0.5v22.1h-49.9v-21.6H163V265.6h-0.5H163v-0.5h-50.9c-0.1,0-0.3,0.1-0.4,0.1
			c-0.1,0.1-0.1,0.2-0.1,0.4v22.6c0,0.1,0.1,0.3,0.1,0.4c0.1,0.1,0.2,0.1,0.4,0.1H163c0.1,0,0.3-0.1,0.4-0.1
			c0.1-0.1,0.1-0.2,0.1-0.4v-22.6c0-0.1-0.1-0.3-0.1-0.4c-0.1-0.1-0.2-0.1-0.4-0.1V265.6z"/>
		<polygon class="st1" points="188.4,244.9 188.4,267.5 163,288.2 163,265.6 		"/>
		<path class="st0" d="M188.4,244.9h-0.5v22.3l-24.4,19.9v-21.3l25.3-20.5L188.4,244.9h-0.5H188.4l-0.3-0.4l-25.4,20.7
			c-0.1,0.1-0.2,0.2-0.2,0.4v22.6c0,0.2,0.1,0.4,0.3,0.5c0.2,0.1,0.4,0.1,0.5-0.1l25.4-20.7c0.1-0.1,0.2-0.2,0.2-0.4v-22.6
			c0-0.2-0.1-0.4-0.3-0.5s-0.4-0.1-0.5,0.1L188.4,244.9z"/>
		<polygon class="st1" points="163,224.3 188.4,244.9 163,265.6 112.1,265.6 86.6,244.9 112.1,224.3 		"/>
		<path class="st0" d="M163,224.3l-0.3,0.4l25,20.3l-24.8,20.2h-50.5l-24.8-20.2l24.8-20.2l50.7,0V224.3l-0.3,0.4L163,224.3v-0.5
			h-50.9c-0.1,0-0.2,0-0.3,0.1l-25.4,20.7c-0.1,0.1-0.2,0.2-0.2,0.4c0,0.2,0.1,0.3,0.2,0.4l25.4,20.7c0.1,0.1,0.2,0.1,0.3,0.1H163
			c0.1,0,0.2,0,0.3-0.1l25.4-20.7c0.1-0.1,0.2-0.2,0.2-0.4c0-0.2-0.1-0.3-0.2-0.4l-25.4-20.7c-0.1-0.1-0.2-0.1-0.3-0.1V224.3z"/>
		<polygon class="st0" points="112.1,265.6 112.1,288.2 86.6,267.5 86.6,244.9 		"/>
		<path class="st0" d="M112.1,265.6h-0.5v21.5l-24.4-19.9V246l24.6,20L112.1,265.6h-0.5H112.1l0.3-0.4L87,244.6
			c-0.1-0.1-0.4-0.1-0.5-0.1s-0.3,0.3-0.3,0.5v22.6c0,0.2,0.1,0.3,0.2,0.4l25.4,20.7c0.1,0.1,0.4,0.1,0.5,0.1
			c0.2-0.1,0.3-0.3,0.3-0.5v-22.6c0-0.2-0.1-0.3-0.2-0.4L112.1,265.6z"/>
		<rect x="265.8" y="319.1" class="st1" width="60.5" height="26.8"/>
		<path class="st0" d="M326.3,319.1h-0.5v26.3h-59.5v-25.8l60,0V319.1h-0.5H326.3v-0.5h-60.5c-0.1,0-0.3,0.1-0.4,0.1
			c-0.1,0.1-0.1,0.2-0.1,0.4V346c0,0.1,0.1,0.3,0.1,0.4c0.1,0.1,0.2,0.1,0.4,0.1h60.5c0.1,0,0.3-0.1,0.4-0.1
			c0.1-0.1,0.1-0.2,0.1-0.4v-26.8c0-0.1-0.1-0.3-0.1-0.4c-0.1-0.1-0.2-0.1-0.4-0.1V319.1z"/>
		<polygon class="st1" points="356.5,294.5 356.5,321.4 326.3,346 326.3,319.1 		"/>
		<path class="st0" d="M356.5,294.5H356v26.6l-29.2,23.8l0-25.5l30.1-24.4L356.5,294.5H356H356.5l-0.3-0.4l-30.2,24.6
			c-0.1,0.1-0.2,0.2-0.2,0.4V346c0,0.2,0.1,0.4,0.3,0.5c0.2,0.1,0.4,0.1,0.5-0.1l30.2-24.6c0.1-0.1,0.2-0.2,0.2-0.4v-26.8
			c0-0.2-0.1-0.4-0.3-0.5s-0.4-0.1-0.5,0.1L356.5,294.5z"/>
		<polygon class="st1" points="326.3,270 356.5,294.5 326.3,319.1 265.8,319.1 235.5,294.5 265.8,270 		"/>
		<path class="st0" d="M326.3,270l-0.3,0.4l29.8,24.2l-29.6,24.1H266l-29.6-24.1l29.6-24.1l60.3,0V270l-0.3,0.4L326.3,270v-0.5
			h-60.5c-0.1,0-0.2,0-0.3,0.1l-30.2,24.6c-0.1,0.1-0.2,0.2-0.2,0.4c0,0.2,0.1,0.3,0.2,0.4l30.2,24.6c0.1,0.1,0.2,0.1,0.3,0.1h60.5
			c0.1,0,0.2,0,0.3-0.1l30.2-24.6c0.1-0.1,0.2-0.2,0.2-0.4c0-0.2-0.1-0.3-0.2-0.4l-30.2-24.6c-0.1-0.1-0.2-0.1-0.3-0.1V270z"/>
		<polygon class="st0" points="265.8,319.1 265.8,346 235.5,321.4 235.5,294.5 		"/>
		<path class="st0" d="M265.8,319.1h-0.5v25.8L236,321.1v-25.5l29.4,23.9L265.8,319.1h-0.5H265.8l0.3-0.4l-30.2-24.6
			c-0.1-0.1-0.4-0.1-0.5-0.1s-0.3,0.3-0.3,0.5v26.8c0,0.2,0.1,0.3,0.2,0.4l30.2,24.6c0.1,0.1,0.4,0.1,0.5,0.1
			c0.2-0.1,0.3-0.3,0.3-0.5v-26.8c0-0.2-0.1-0.3-0.2-0.4L265.8,319.1z"/>
		<polyline class="st1" points="103.8,206.8 103.8,238.7 76.5,222.8 76.5,190.9 		"/>
		<path class="st0" d="M103.3,206.8v31L77,222.5l0-31.6c0-0.3-0.2-0.5-0.5-0.5c-0.3,0-0.5,0.2-0.5,0.5l0,31.9c0,0.2,0.1,0.3,0.2,0.4
			l27.2,15.9c0.2,0.1,0.3,0.1,0.5,0c0.2-0.1,0.3-0.3,0.3-0.4v-31.9c0-0.3-0.2-0.5-0.5-0.5C103.5,206.3,103.3,206.6,103.3,206.8
			L103.3,206.8z"/>
		<polygon class="st1" points="103.8,238.7 131.4,222.8 131.4,190.9 103.8,206.8 		"/>
		<path class="st0" d="M103.8,238.7l0.3,0.4l27.6-15.9c0.2-0.1,0.2-0.3,0.2-0.4v-31.9c0-0.2-0.1-0.3-0.3-0.4s-0.3-0.1-0.5,0
			l-27.6,15.9c-0.2,0.1-0.2,0.3-0.2,0.4v31.9c0,0.2,0.1,0.3,0.3,0.4c0.2,0.1,0.3,0.1,0.5,0L103.8,238.7h0.5v-31.6l26.6-15.4v30.7
			l-27.3,15.8L103.8,238.7h0.5H103.8z"/>
		<polygon class="st1" points="103.8,206.8 131.4,190.9 104.1,175 76.5,190.9 		"/>
		<path class="st0" d="M103.8,206.8l0.3,0.4l27.6-15.9c0.2-0.1,0.2-0.3,0.2-0.4c0-0.2-0.1-0.3-0.2-0.4l-27.2-15.9
			c-0.2-0.1-0.3-0.1-0.5,0l-27.6,15.9c-0.2,0.1-0.2,0.3-0.2,0.4c0,0.2,0.1,0.3,0.2,0.4l27.2,15.9c0.2,0.1,0.3,0.1,0.5,0L103.8,206.8
			l0.3-0.4l-26.5-15.5l26.6-15.4l26.3,15.4l-26.8,15.5L103.8,206.8l0.3-0.4L103.8,206.8z"/>
		<polyline class="st0" points="95.9,166.4 95.9,185 80,175.7 80,157.2 		"/>
		<path class="st0" d="M95.4,166.4v17.7l-14.9-8.7v-18.3c0-0.3-0.2-0.5-0.5-0.5c-0.3,0-0.5,0.2-0.5,0.5l0,18.6
			c0,0.2,0.1,0.3,0.2,0.4l15.9,9.3c0.2,0.1,0.3,0.1,0.5,0c0.2-0.1,0.3-0.3,0.3-0.4v-18.6c0-0.3-0.2-0.5-0.5-0.5
			C95.6,165.9,95.4,166.2,95.4,166.4L95.4,166.4z"/>
		<polygon class="st1" points="95.9,185 112,175.7 112,157.2 95.9,166.4 		"/>
		<path class="st0" d="M95.9,185l0.3,0.4l16.1-9.3c0.2-0.1,0.2-0.3,0.2-0.4v-18.6c0-0.2-0.1-0.3-0.3-0.4s-0.3-0.1-0.5,0L95.7,166
			c-0.2,0.1-0.2,0.3-0.2,0.4V185c0,0.2,0.1,0.3,0.3,0.4c0.2,0.1,0.3,0.1,0.5,0L95.9,185h0.5v-18.3l15.1-8.7v17.4l-15.8,9.1L95.9,185
			h0.5H95.9z"/>
		<polygon class="st1" points="95.9,166.4 112,157.2 96.1,147.9 80,157.2 		"/>
		<path class="st0" d="M95.9,166.4l0.3,0.4l16.1-9.3c0.2-0.1,0.2-0.3,0.2-0.4c0-0.2-0.1-0.3-0.2-0.4l-15.9-9.3
			c-0.2-0.1-0.3-0.1-0.5,0l-16.1,9.3c-0.2,0.1-0.2,0.3-0.2,0.4c0,0.2,0.1,0.3,0.2,0.4l15.9,9.3c0.2,0.1,0.3,0.1,0.5,0L95.9,166.4
			l0.3-0.4L81,157.2l15.1-8.7l14.9,8.7L95.7,166L95.9,166.4l0.3-0.4L95.9,166.4z"/>
		<polyline class="st0" points="160.7,216.4 160.7,234.9 144.8,225.6 144.8,207.1 		"/>
		<path class="st0" d="M160.2,216.4V234l-14.9-8.7l0-18.3c0-0.3-0.2-0.5-0.5-0.5c-0.3,0-0.5,0.2-0.5,0.5l0,18.6
			c0,0.2,0.1,0.3,0.2,0.4l15.9,9.3c0.2,0.1,0.3,0.1,0.5,0c0.2-0.1,0.3-0.3,0.3-0.4v-18.6c0-0.3-0.2-0.5-0.5-0.5
			C160.4,215.9,160.2,216.1,160.2,216.4L160.2,216.4z"/>
		<polygon class="st1" points="160.7,234.9 176.7,225.6 176.7,207.1 160.7,216.4 		"/>
		<path class="st0" d="M160.7,234.9l0.3,0.4l16.1-9.3c0.2-0.1,0.2-0.3,0.2-0.4v-18.6c0-0.2-0.1-0.3-0.3-0.4s-0.3-0.1-0.5,0
			l-16.1,9.3c-0.2,0.1-0.2,0.3-0.2,0.4v18.6c0,0.2,0.1,0.3,0.3,0.4s0.3,0.1,0.5,0L160.7,234.9h0.5v-18.3l15.1-8.7v17.4l-15.8,9.1
			L160.7,234.9h0.5H160.7z"/>
		<polygon class="st1" points="160.7,216.4 176.7,207.1 160.9,197.8 144.8,207.1 		"/>
		<path class="st0" d="M160.7,216.4l0.3,0.4l16.1-9.3c0.2-0.1,0.2-0.3,0.2-0.4c0-0.2-0.1-0.3-0.2-0.4l-15.9-9.3
			c-0.2-0.1-0.3-0.1-0.5,0l-16.1,9.3c-0.2,0.1-0.2,0.3-0.2,0.4c0,0.2,0.1,0.3,0.2,0.4l15.9,9.3c0.2,0.1,0.3,0.1,0.5,0L160.7,216.4
			l0.3-0.4l-15.1-8.8l15.1-8.7l14.9,8.7l-15.3,8.8L160.7,216.4l0.3-0.4L160.7,216.4z"/>
	</g>
</g>
</svg>
