<?xml version="1.0" encoding="utf-8"?>
<!-- Generator: Adobe Illustrator 23.0.3, SVG Export Plug-In . SVG Version: 6.00 Build 0)  -->
<svg version="1.1" xmlns="http://www.w3.org/2000/svg" xmlns:xlink="http://www.w3.org/1999/xlink" x="0px" y="0px"
	 viewBox="0 0 443.4 534.7" style="enable-background:new 0 0 443.4 534.7;" xml:space="preserve">
<style type="text/css">
	.st0{fill:none;stroke:#0031E2;stroke-linecap:round;stroke-linejoin:round;stroke-miterlimit:10;}
	.st1{fill:#1BC263;}
	.st2{fill:none;stroke:#99ADF3;stroke-linecap:round;stroke-linejoin:round;stroke-miterlimit:10;stroke-dasharray:4,20,10;}
	.st3{fill:none;stroke:#99ADF3;stroke-linecap:round;stroke-linejoin:round;stroke-miterlimit:10;stroke-dasharray:10,4,5;}
	.st4{fill:none;stroke:#99ADF3;stroke-linecap:round;stroke-linejoin:round;stroke-miterlimit:10;stroke-dasharray:2,4,10,1,20;}
	.st5{fill:none;stroke:#99ADF3;stroke-linecap:round;stroke-linejoin:round;stroke-miterlimit:10;stroke-dasharray:10,4,5,20;}
	.st6{fill:none;stroke:#1BC263;stroke-linecap:round;stroke-linejoin:round;stroke-miterlimit:10;stroke-dasharray:4,20,10;}
	.st7{fill:none;stroke:#1BC263;stroke-linecap:round;stroke-linejoin:round;stroke-miterlimit:10;stroke-dasharray:10,4,5;}
	.st8{fill:none;stroke:#1BC263;stroke-linecap:round;stroke-linejoin:round;stroke-miterlimit:10;stroke-dasharray:2,4,10,1,20;}
	.st9{fill:#0031E2;stroke:#0031E2;stroke-miterlimit:10;}
	.st10{fill:#FFFFFF;stroke:#0031E2;stroke-miterlimit:10;}
	.st11{fill:#1BC263;stroke:#0031E2;stroke-miterlimit:10;}
	.st12{fill:#18A175;stroke:#0031E2;stroke-miterlimit:10;}
	.st13{fill:none;stroke:#0031E2;stroke-miterlimit:10;}
	.st14{fill:#FFFFFF;stroke:#0031E2;stroke-linecap:round;stroke-linejoin:round;stroke-miterlimit:10;}
	.st15{fill:#0031E2;stroke:#0031E2;stroke-linecap:round;stroke-linejoin:round;stroke-miterlimit:10;}
	.st16{fill:#0031E2;}
	.st17{fill:#222C33;stroke:#0031E2;stroke-miterlimit:10;}
	.st18{fill:#0031E2;stroke:#0031E2;stroke-linejoin:round;stroke-miterlimit:10;}
	.st19{fill:#FFFFFF;stroke:#0031E2;stroke-linejoin:round;stroke-miterlimit:10;}
	.st20{fill:#1BC263;stroke:#0031E2;stroke-linecap:round;stroke-linejoin:round;stroke-miterlimit:10;}
	.st21{fill:#FFFFFF;}
	.st22{fill:#0031E2;stroke:#FFFFFF;stroke-linejoin:round;stroke-miterlimit:10;}
	.st23{fill:none;stroke:#0031E2;stroke-linejoin:round;stroke-miterlimit:10;}
	.st24{fill:#FFFFFF;stroke:#CCD6F9;stroke-linecap:round;stroke-linejoin:round;stroke-miterlimit:10;}
</style>
<g id="Layer_13">
	<rect x="290.1" y="387.4" class="st0" width="57.1" height="41.2"/>
	<line class="st0" x1="290.1" y1="422.4" x2="321.7" y2="422.4"/>
	<line class="st0" x1="347.2" y1="393.2" x2="290.1" y2="393.2"/>
	<line class="st0" x1="345" y1="389.9" x2="340.8" y2="389.9"/>
	<polygon class="st1" points="305.9,398.7 317.8,398.7 311.9,409 305.9,419.3 299.9,409 294,398.7 	"/>
	<line class="st0" x1="321.7" y1="403.5" x2="342.9" y2="403.5"/>
	<line class="st0" x1="321.7" y1="407.1" x2="342.9" y2="407.1"/>
	<path class="st0" d="M118,192.6l0.5-2.8c0.3-1.6,1.6-2.7,3.2-2.7h98.1c2.2,0,4.2,0,5.3-1.9l1-2.1l1,2.1c1.1,1.9,3.1,1.9,5.3,1.9
		h98.1c1.6,0,2.9,1.1,3.2,2.7l0.5,2.8"/>
	<path class="st0" d="M328.8,372l-0.4,2.4c-0.2,1.4-1.4,2.4-2.8,2.4h-2.5c-1.9,0-3.7,0-4.7,1.7l-0.9,1.8l-0.9-1.8
		c-1-1.7-2.8-1.7-4.7-1.7h-2.5c-1.4,0-2.6-1-2.8-2.4l-0.4-2.4"/>
	<line class="st2" x1="310.4" y1="197.9" x2="310.4" y2="370.4"/>
	<line class="st3" x1="314.7" y1="201.5" x2="314.7" y2="333.5"/>
	<line class="st4" x1="320.4" y1="194.3" x2="320.4" y2="365.8"/>
	<line class="st5" x1="323.9" y1="211" x2="323.9" y2="308.2"/>
	<line class="st4" x1="326.4" y1="269.2" x2="326.4" y2="363.9"/>
	<path class="st0" d="M157.2,328.3l-0.4,2.4c-0.2,1.4-1.4,2.4-2.8,2.4h-2.5c-1.9,0-3.7,0-4.7,1.7l-0.9,1.8l-0.9-1.8
		c-1-1.7-2.8-1.7-4.7-1.7h-2.5c-1.4,0-2.6-1-2.8-2.4l-0.4-2.4"/>
	<line class="st2" x1="138.9" y1="220.8" x2="138.9" y2="326.7"/>
	<line class="st3" x1="143.2" y1="223.6" x2="143.2" y2="305.7"/>
	<line class="st4" x1="148.8" y1="217.9" x2="148.8" y2="323.1"/>
	<line class="st4" x1="154.8" y1="253.7" x2="154.8" y2="316.9"/>
	<line class="st2" x1="207.8" y1="69.2" x2="207.8" y2="123.9"/>
	<line class="st3" x1="212.1" y1="99.4" x2="212.1" y2="141.7"/>
	<line class="st4" x1="217.8" y1="93.4" x2="217.8" y2="147.7"/>
	<line class="st4" x1="226.6" y1="91.3" x2="226.6" y2="123.9"/>
	<line class="st2" x1="232.1" y1="80.2" x2="232.1" y2="135"/>
	<line class="st3" x1="236.4" y1="99.4" x2="236.4" y2="141.7"/>
	<line class="st4" x1="242.1" y1="93.4" x2="242.1" y2="147.7"/>
	<line class="st4" x1="248" y1="104.2" x2="248" y2="136.9"/>
	<path class="st0" d="M254.9,286.2l-0.4,2.4c-0.2,1.4-1.4,2.4-2.8,2.4h-2.5c-1.9,0-3.7,0-4.7,1.7l-0.9,1.8l-0.9-1.8
		c-1-1.7-2.8-1.7-4.7-1.7h-2.5c-1.4,0-2.6-1-2.8-2.4l-0.4-2.4"/>
	<line class="st6" x1="249.2" y1="209" x2="249.2" y2="284.6"/>
	<line class="st7" x1="246.1" y1="210.1" x2="246.1" y2="269.9"/>
	<line class="st8" x1="236.6" y1="207.2" x2="236.6" y2="282.3"/>
	<line class="st8" x1="242.9" y1="200.3" x2="242.9" y2="247.7"/>
</g>
<g id="Layer_7">
	<g>
		<polygon class="st9" points="224.8,391.2 220.1,400.6 215.4,400.6 219.6,391.2 		"/>
		<polyline class="st9" points="243.6,394 244.5,400.6 249.2,400.6 249.2,391.2 		"/>
		<polygon class="st10" points="222.2,399.2 221.5,405 213,406.7 214.3,399.2 		"/>
		<path class="st10" d="M213.6,403l8.2-0.6c0,0,3,3.7,4.2,4.4c1.5,1,5.6,0.2,7.2,1.2c0.4,0.2,0.9,1.6,0.9,1.6h-20.8
			c-0.6,0-1.1-0.6-0.9-1.2L213.6,403z"/>
		<polygon class="st10" points="252.1,399.2 251.4,405 242.9,406.7 244.2,399.2 		"/>
		<path class="st10" d="M243.6,403l8.2-0.6c0,0,3,3.7,4.2,4.4c1.5,1,5.6,0.2,7.2,1.2c0.4,0.2,0.9,1.6,0.9,1.6h-20.8
			c-0.6,0-1.1-0.6-0.9-1.2L243.6,403z"/>
		<polyline class="st11" points="248.8,352.9 252,396.8 242.6,395 234.2,346.3 		"/>
		<g>
			<path class="st11" d="M236,355.7L216.3,395l10.3,1.9c0,0,27-38.5,21.6-48.7c-4.2-7.9-26.3-8.5-26.3-8.5l-24.1,4.8
				c0,9.3,5.9,12.7,5.9,12.7l31.4,0.2"/>
		</g>
		<g>
			<path class="st12" d="M202.1,287.8"/>
			<path class="st13" d="M208.6,297.6"/>
			<path class="st10" d="M197.4,347.5c-3-5.4-1.3-36.4,9.5-48.5c2.1-2.4,8.2,1.6,8.2,1.6s8,32,9.7,38.8
				C215.6,340.9,206.5,347.2,197.4,347.5"/>
			<g>
				<path class="st14" d="M213.4,293.8c0.6,2.2,1.3,4.4,1.7,6.7c-2.9-0.3-5.5-0.6-8.2-1.6c0.9-2.1,1.8-3.8,1.7-6.3
					c-0.3-5.2-4.2-8.4-5.9-13c3-2.6,5.5-5.8,8.6-8.4c2.7,0.5,4.5,2.9,5.9,4.9c1.4,2,2.6,3.4,3.9,5.1c0.5,0.7,0.3,1,0,1.6
					c-0.1,0.2-0.3,0.2-0.4,0.4c-0.1,0.2-0.3,0.2-0.1,0.7c1.1,2.6,1.8,5.1-0.5,7.6c-2.3,2.4-5.9,2.9-9.1,1.9"/>
				<path class="st9" d="M208.9,290.6c-0.2,0.8-0.6,0.8-1,0.3c-0.7-0.8-1-1.4-2.3-1.9c-1.3-0.4-2.9-1.9-3.7-3.1
					c-4.4-6,4-14.2,8.3-15.8c4.3-1.5,4.2,1,6.9,2.3c-2.4,1.7-4.5,3.3-5.7,5.8c-0.9,1.7-0.2,3.5-0.2,5.2c0,0.9-0.3,1.5-1.2,1.7
					c0,0,0,0,0,0c-0.4-0.5-0.6-1.5-1.1-1.9c-3.3-2.1-3.5,2.4-1.7,2.9c1.5,0.5,1.5,0,2.3,1C209.2,288.2,209.1,289.8,208.9,290.6z"/>
				<path class="st15" d="M210.9,293.4C210.9,293.4,210.9,293.4,210.9,293.4c0.2,1.1,0,2.8,1.5,2.8c0.4,0,1.2-0.2,1.6-0.2
					c-0.2-0.7-0.4-1.4-0.6-2.2C212.6,293.7,211.7,293.5,210.9,293.4z"/>
			</g>
		</g>
		<polyline class="st10" points="252,331.6 254.6,331.6 263,335.9 252,336.9 		"/>
		<path class="st10" d="M208.8,311.5l19.8,24.4H252v-6.6l-19.8-0.5l-11.5-18.3c-2-3.2-4.9-5.9-8.4-7.6h0"/>
		<line class="st13" x1="228.5" y1="336.9" x2="300.4" y2="336.9"/>
		<line class="st13" x1="256.7" y1="336.9" x2="256.7" y2="393.5"/>
		<path class="st14" d="M270.8,282.4l-11.3,45.1v0c8.5-10.3,12.7-23.4,11.8-36.6L270.8,282.4z"/>
		<path class="st0" d="M268.7,311l3.2,12.7c1,4-0.5,8.2-3.9,10.5l0,0c-1.6,1.1-3.6,1.7-5.6,1.7h-6.8"/>
		<line class="st0" x1="246.4" y1="329.2" x2="246.4" y2="335.4"/>
		<polygon class="st16" points="208.8,311.5 222.7,328.7 224.4,337.4 		"/>
		<line class="st17" x1="199.6" y1="357.4" x2="226.4" y2="357.4"/>
	</g>
</g>
<g id="Layer_14">
</g>
<g id="Layer_8">
</g>
<g id="Layer_1">
	<rect x="108" y="344.1" class="st14" width="75.8" height="56.5"/>
	<line class="st0" x1="184.2" y1="395" x2="117.1" y2="395"/>
	<polygon class="st0" points="160.8,364.9 160.8,384.2 179.4,384.2 	"/>
	<line class="st0" x1="175.6" y1="374.6" x2="158.1" y2="357.2"/>
	<line class="st0" x1="117.1" y1="358.4" x2="153.7" y2="358.4"/>
	<line class="st0" x1="117.1" y1="361.8" x2="144.2" y2="361.8"/>
	<line class="st0" x1="117.1" y1="364.9" x2="130.7" y2="364.9"/>
</g>
<g id="Layer_9">
	<g>
		<path class="st9" d="M56.4,444.5h33.2c2.2,0,4-1.8,4-4l0,0c0-2.2-1.8-4-4-4H56.4c-2.2,0-4,1.8-4,4l0,0
			C52.4,442.7,54.2,444.5,56.4,444.5z"/>
		<line class="st13" x1="73" y1="444.5" x2="73" y2="480.1"/>
		<polyline class="st13" points="73,453 68.2,457.8 62.1,457.8 		"/>
		<path class="st9" d="M53.9,459.5h8c0.9,0,1.6-0.7,1.6-1.6l0,0c0-0.9-0.7-1.6-1.6-1.6h-8c-0.9,0-1.6,0.7-1.6,1.6l0,0
			C52.4,458.8,53.1,459.5,53.9,459.5z"/>
		<path class="st13" d="M62.1,442L62.1,442c-6.3,0-11.9-3.4-14.9-8.7c-0.9-1.5-1.5-3.2-1.9-5l-7.7-37.3"/>
		<path class="st18" d="M37.7,391.1l7.7,37.3h0c4.3-11.7,2.3-24.8-5.5-34.5L37.7,391.1z"/>
		<path class="st13" d="M62.1,442"/>
	</g>
	<polyline class="st19" points="123.9,378.1 128.1,374.9 137.3,376.5 141.5,374.9 138.6,373.3 135.4,373.3 127.4,371.1 122.3,374.6 
			"/>
	<path class="st14" d="M91.5,488.5c0,0-1.1,1.1-1.5,5.2c-0.1,0.8,0.2,3,0.2,3l-6.9,1.3l2-9.5H91.5z"/>
	<path class="st14" d="M90.3,496.7c0,0,0.4,1.7,0.9,2.3c1,1.2,9.1,2.4,9.1,2.4c1.2,0.6,2.1,1.6,2.6,2.9l0,0L80.5,504
		c0,0-0.2-0.7-0.2-1.4c-0.1-2.5,3.3-7.2,3.3-7.2L90.3,496.7z"/>
	<path class="st14" d="M109.3,488.5c0,0-1.1,1.1-1.5,5.2c-0.1,0.8,0.2,3,0.2,3l-6.9,1.3l2-9.5H109.3z"/>
	<path class="st14" d="M108,496.7c0,0,0.4,1.7,0.9,2.3c1,1.2,9.1,2.4,9.1,2.4c1.2,0.6,2.1,1.6,2.6,2.9l0,0L98.2,504
		c0,0-0.2-0.7-0.2-1.4c-0.1-2.5,3.3-7.2,3.3-7.2L108,496.7z"/>
	<path class="st13" d="M117.1,421.1"/>
	<path class="st20" d="M66.4,417c0,0,22.6-5,34.4,0.9c12.7,6.3,10.7,72.8,10.7,72.8l-32.8,4l26.2-64.1c0,0-33.1,13.8-52.4-15.2"/>
	<path class="st10" d="M76.7,340.1l-11,6.4l1.2,6.1l3.5,5.4l-0.3,6.8l5.3,2l0.9-7.3c1.5-0.5,6.6-2.2,7.1-3.7
		C84.9,351.8,76.7,340.1,76.7,340.1z"/>
	<polygon class="st15" points="108,431.5 104.8,433.9 93.1,492.9 99.6,492.1 	"/>
	<path class="st20" d="M74,408.7c0,0,30,6.5,41.8,12.4c12.7,6.3,16.1,69.6,16.1,69.6l-32.8,4l8.9-63.1c0,0-52.5,20-55.5-16.2"/>
	<path class="st14" d="M81.2,383.3c0,0,0.8,5.5,0,7.1c-1.3,2.7-6.6,5.9-8.7,8.1c-5.6,5.8,1.5,10.2,1.5,10.2l-21.5,6.7
		c-2.9-11.4,11.3-49.4,18-51.4c7.9-2.3,31.2,28.4,31.2,28.4l19.5-19.8l1.6,5.1c0,0-16.1,26.8-21.6,23.5
		c-5.5-3.3-23.1-20.7-23.1-20.7"/>
	<polygon class="st15" points="78.2,380.4 81.2,383.3 81.6,388.3 	"/>
	<path class="st16" d="M57.1,388.3c0,0-7.5-46.6,19.5-49h0l0,0l-6.5,39.2"/>
	<path class="st10" d="M74.8,349.8c-1.1,0-3,0.9-3,1.9s2.2,2.3,3.3,2.3"/>
	<line class="st0" x1="143.2" y1="504.4" x2="48.6" y2="504.4"/>
	<line class="st0" x1="376.5" y1="530.1" x2="281.9" y2="530.1"/>
</g>
<g id="Layer_4">
	<g id="Layer_5">
	</g>
</g>
<g id="Layer_10">
	<path class="st21" d="M362.4,459.8l3-3.7c0,0,5.8-10.9,7-11.6c1.1-0.7,4.9-12.8,4.9-12.8l2.8-9.4l10.9,2.9l0.8,0.7l0.9,6.3
		l0.8,14.4l-0.9,13.2l-1.3,7"/>
	<polygon class="st10" points="324.7,514.9 320,522.6 312.5,522.6 318.6,513.2 	"/>
	<polygon class="st18" points="312.5,517.8 330.8,462 369,465.9 369,475.2 344.8,476.2 323.1,517.9 	"/>
	<polygon class="st10" points="363.3,517.6 366.1,522.6 357.2,522.6 350.5,513.2 	"/>
	<path class="st22" d="M392.5,458.8l-0.8,4.8l-0.7,4c0,0-60.6-23.4-74.8-7.5c-11.8,13.2,35.3,57.7,35.3,57.7l13.9-0.2l-25.6-38.9
		c0,0,4.9,0,28.9,0c16.1,0,20.2-5.4,22-11.3"/>
	<path class="st10" d="M365.5,519.9c0,0,5,10.3,2.2,10.3c-5,0-30.6,0-30.6,0s0-3.6,3.3-3.6c5.6,0,11.9,0.7,15-2.8
		c0.8-0.9,0-2.8,0-2.8L365.5,519.9z"/>
	<path class="st10" d="M321.7,519.9l-3.3,10.3h-29.5c0,0,0-3.6,3.3-3.6c5.6,0,17.2-2.8,17.2-2.8l3.3-2.8L321.7,519.9z"/>
	<polyline class="st21" points="380,401.4 378.1,398.6 375.5,387.5 364.3,388.3 366.5,402.9 367.4,405.2 370.1,404.2 372.1,403 
		373.6,401.4 376.6,408 380,404.6 	"/>
	<path class="st19" d="M363.6,386.8c0,0-1,19.4,3.8,18.4c4-0.8,6-3.2,7-5.2"/>
	<line class="st19" x1="380" y1="401.4" x2="377.8" y2="398.1"/>
	<line class="st23" x1="375.5" y1="405.3" x2="373.3" y2="402"/>
	<path class="st18" d="M379.2,399.6c0,0,5.2-14.2,0.5-17.5c-13-9.1-18.9,5.7-17.9,5.7c5.7,0,9.9,7.1,9.9,7.1s1.7-1.6,2.4-1.4
		c2.8,0.9,1.4,3.8,1.4,3.8L379.2,399.6z"/>
	<path class="st23" d="M375.5,397c0,0.5-1.7,1.1-1.7,1.1"/>
	<path class="st18" d="M363.5,459.2c0,0,7.7-11.1,9.9-27.3l6.6-6l-4.2,12.2C373,445.8,368.9,453,363.5,459.2L363.5,459.2"/>
	<path class="st19" d="M390.8,467.6c0-0.1,0-0.1,0-0.2"/>
	<path class="st23" d="M363.5,459.2c0,0,15.4-22.2,9-49.9"/>
	<line class="st13" x1="395.6" y1="461.8" x2="395.6" y2="461.8"/>
	<g>
		<path class="st9" d="M385.3,486.8h-33.2c-2.2,0-4-1.8-4-4l0,0c0-2.2,1.8-4,4-4h33.2c2.2,0,4,1.8,4,4l0,0
			C389.3,485,387.5,486.8,385.3,486.8z"/>
		<line class="st13" x1="368.7" y1="486.8" x2="368.7" y2="522.4"/>
		<polyline class="st13" points="368.7,495.3 373.5,500.1 379.5,500.1 		"/>
		<path class="st9" d="M387.7,501.8h-8c-0.9,0-1.6-0.7-1.6-1.6l0,0c0-0.9,0.7-1.6,1.6-1.6h8c0.9,0,1.6,0.7,1.6,1.6l0,0
			C389.3,501.1,388.6,501.8,387.7,501.8z"/>
		<path class="st13" d="M379.5,484.3L379.5,484.3c6.3,0,11.9-3.4,14.9-8.7c0.9-1.5,1.5-3.2,1.9-5l7.7-37.3"/>
		<path class="st18" d="M404,433.3l-7.7,37.3v0c-4.3-11.7-2.3-24.8,5.5-34.5L404,433.3z"/>
		<path class="st13" d="M379.5,484.3"/>
	</g>
	<polyline class="st19" points="329.2,420.1 324.7,416.6 314.5,418.4 310,416.6 313.1,414.9 316.6,414.9 325.4,412.4 330.9,416.3 	
		"/>
	<path class="st19" d="M379.8,425.7c0,0-17.3,17.4-24.8,17.1c-6.5-0.2-25.8-21.6-25.8-21.6l1.7-5.2l24.4,12.9l20.3-23.4l4.4-4
		l-0.2-0.2c14.7,10.6,15.6,50.7,11,66.2"/>
	<g>
		<polygon class="st16" points="220.4,157.3 226,162.9 231.7,157.3 226,151.7 		"/>
		<path class="st16" d="M226.1,133l-27.2,28.4l2.1,2c0.5,0.4,11.3,10.6,25.1,10.6c13.8,0,24.6-10.2,25.1-10.6l2.1-2L226.1,133z
			 M226.1,168.3c-8.1,0-15.4-4.6-18.8-7.2l18.8-19.7l18.8,19.7C241.4,163.7,234.2,168.3,226.1,168.3z"/>
	</g>
	<g>
		<g>
			<path class="st21" d="M666.9,231.1c-0.3-1.8-1.9-3.1-3.7-3.1c-1.8,0-3.4,1.3-3.7,3.1l-0.1,0.5l-0.5-0.1c-1.8-0.4-3.5-1.1-5-2.1
				l-0.5-0.3l0.3-0.4c1-1.5,0.9-3.5-0.4-4.8c-0.7-0.7-1.7-1.1-2.7-1.1c-0.8,0-1.5,0.2-2.1,0.7l-0.4,0.3l-0.3-0.5
				c-0.9-1.6-1.6-3.2-2.1-5l-0.1-0.5l0.5-0.1c1.8-0.3,3.1-1.9,3.1-3.7s-1.3-3.4-3.1-3.7l-0.5-0.1l0.1-0.5c0.4-1.8,1.1-3.5,2.1-5
				l0.3-0.5l0.4,0.3c0.6,0.4,1.4,0.7,2.1,0.7c1,0,1.9-0.4,2.7-1.1c1.3-1.3,1.5-3.3,0.4-4.8l-0.3-0.4l0.5-0.3c1.6-0.9,3.2-1.6,5-2.1
				l0.5-0.1l0.1,0.5c0.3,1.8,1.9,3.1,3.7,3.1s3.4-1.3,3.7-3.1l0.1-0.5l0.5,0.1c1.8,0.4,3.5,1.1,5,2.1l0.5,0.3l-0.3,0.4
				c-1,1.5-0.9,3.5,0.4,4.8c0.7,0.7,1.7,1.1,2.7,1.1c0.8,0,1.5-0.2,2.1-0.7l0.4-0.3l0.3,0.5c0.9,1.6,1.6,3.2,2.1,5l0.1,0.5l-0.5,0.1
				c-1.8,0.3-3.1,1.9-3.1,3.7s1.3,3.4,3.1,3.7l0.5,0.1l-0.1,0.5c-0.4,1.8-1.1,3.5-2.1,5l-0.3,0.5l-0.4-0.3c-0.6-0.4-1.4-0.7-2.1-0.7
				c-1,0-1.9,0.4-2.7,1.1c-1.3,1.3-1.5,3.3-0.4,4.8l0.3,0.4l-0.5,0.3c-1.6,0.9-3.2,1.6-5,2.1l-0.5,0.1L666.9,231.1z"/>
			<path class="st16" d="M659.1,197c0.4,2,2.1,3.5,4.2,3.5c2.1,0,3.8-1.5,4.2-3.5c1.7,0.4,3.4,1.1,4.9,2c-1.2,1.7-1,4,0.5,5.4
				c0.8,0.8,1.9,1.2,3,1.2c0.8,0,1.7-0.3,2.4-0.8c0.9,1.5,1.6,3.1,2,4.9c-2,0.4-3.5,2.1-3.5,4.2c0,2.1,1.5,3.8,3.5,4.2
				c-0.4,1.7-1.1,3.4-2,4.9c-0.7-0.5-1.6-0.8-2.4-0.8c-1.1,0-2.2,0.4-3,1.2c-1.5,1.5-1.6,3.8-0.5,5.4c-1.5,0.9-3.1,1.6-4.9,2
				c-0.4-2-2.1-3.5-4.2-3.5c-2.1,0-3.8,1.5-4.2,3.5c-1.7-0.4-3.4-1.1-4.9-2c1.2-1.7,1-4-0.5-5.4c-0.8-0.8-1.9-1.2-3-1.2
				c-0.8,0-1.7,0.3-2.4,0.8c-0.9-1.5-1.6-3.1-2-4.9c2-0.4,3.5-2.1,3.5-4.2c0-2.1-1.5-3.8-3.5-4.2c0.4-1.7,1.1-3.4,2-4.9
				c0.7,0.5,1.6,0.8,2.4,0.8c1.1,0,2.2-0.4,3-1.2c1.5-1.5,1.6-3.8,0.5-5.4C655.7,198.1,657.3,197.4,659.1,197 M659.8,195.8l-1,0.3
				c-1.8,0.4-3.6,1.2-5.2,2.1l-0.9,0.6l0.6,0.9c0.9,1.3,0.7,3-0.4,4.2c-0.6,0.6-1.4,1-2.3,1c-0.7,0-1.3-0.2-1.9-0.6l-0.9-0.6
				l-0.6,0.9c-1,1.6-1.7,3.3-2.1,5.2l-0.3,1l1,0.2c1.5,0.3,2.7,1.6,2.7,3.2c0,1.6-1.1,2.9-2.7,3.2l-1,0.2l0.3,1
				c0.4,1.8,1.2,3.6,2.1,5.2l0.6,0.9l0.9-0.6c0.5-0.4,1.2-0.6,1.9-0.6c0.9,0,1.7,0.3,2.3,1c1.1,1.1,1.3,2.9,0.4,4.2l-0.6,0.9
				l0.9,0.6c1.6,1,3.3,1.7,5.2,2.1l1,0.3l0.2-1c0.3-1.5,1.6-2.7,3.2-2.7c1.6,0,2.9,1.1,3.2,2.7l0.2,1l1-0.3c1.8-0.4,3.6-1.2,5.2-2.1
				l0.9-0.6l-0.6-0.9c-0.9-1.3-0.7-3,0.4-4.2c0.6-0.6,1.4-1,2.3-1c0.7,0,1.3,0.2,1.9,0.6l0.9,0.6l0.6-0.9c1-1.6,1.7-3.3,2.1-5.2
				l0.3-1l-1-0.2c-1.5-0.3-2.7-1.6-2.7-3.2c0-1.6,1.1-2.9,2.7-3.2l1-0.2l-0.3-1c-0.4-1.8-1.2-3.6-2.1-5.2l-0.6-0.9l-0.9,0.6
				c-0.5,0.4-1.2,0.6-1.9,0.6c-0.9,0-1.7-0.3-2.3-1c-1.1-1.1-1.3-2.9-0.4-4.2l0.6-0.9l-0.9-0.6c-1.6-1-3.3-1.7-5.2-2.1l-1-0.3
				l-0.2,1c-0.3,1.5-1.6,2.7-3.2,2.7c-1.6,0-2.9-1.1-3.2-2.7L659.8,195.8L659.8,195.8z"/>
		</g>
		<g>
			<path class="st21" d="M663.2,222.3c-4.5,0-8.2-3.7-8.2-8.2c0-4.5,3.7-8.2,8.2-8.2c4.5,0,8.2,3.7,8.2,8.2
				C671.5,218.6,667.8,222.3,663.2,222.3z"/>
			<path class="st16" d="M663.2,206.3c4.3,0,7.7,3.5,7.7,7.7s-3.5,7.7-7.7,7.7c-4.3,0-7.7-3.5-7.7-7.7S659,206.3,663.2,206.3
				 M663.2,205.3c-4.8,0-8.7,3.9-8.7,8.7s3.9,8.7,8.7,8.7c4.8,0,8.7-3.9,8.7-8.7S668.1,205.3,663.2,205.3L663.2,205.3z"/>
		</g>
	</g>
	<g>
		<polygon class="st14" points="615.6,131.2 615.6,139.1 606.6,146.4 606.6,138.5 		"/>
		<polygon class="st14" points="606.6,123.9 615.6,131.2 606.6,138.5 588.7,138.5 579.7,131.2 588.7,123.9 		"/>
		<polygon class="st24" points="589.6,136 583.6,131.2 589.6,126.4 605.7,126.4 611.7,131.2 605.7,136 		"/>
		<polygon class="st15" points="588.7,138.5 588.7,146.4 579.7,139.1 579.7,131.2 		"/>
		<rect x="588.7" y="138.5" class="st14" width="17.9" height="7.9"/>
	</g>
	
		<rect x="514.9" y="352.6" transform="matrix(-1 -4.487045e-11 4.487045e-11 -1 1179.2761 869.1238)" class="st10" width="149.5" height="164"/>
	<g>
		<g>
			<path id="path3055_3_" class="st16" d="M590,377c0.9,0.1,1.7,0.3,2.5,0.7l34.2,16.3c1.8,0.8,3.1,2.5,3.5,4.4l8.4,36.6
				c0.4,1.7,0.1,3.5-0.9,5c-0.1,0.2-0.2,0.4-0.4,0.5l-23.6,29.4c-1.2,1.5-3.1,2.4-5.1,2.4h-37.9c-2,0-3.9-0.9-5.1-2.4L542,440.5
				c-1.2-1.5-1.7-3.6-1.3-5.5l8.4-36.6c0.4-1.9,1.7-3.5,3.5-4.4l34.1-16.3C587.8,377.2,588.9,377,590,377z"/>
			<path id="path3059_3_" class="st21" d="M589.6,389.5L589.6,389.5c-1.2,0.1-2.1,1.1-2,2.3c0,0.2,0,0.4,0,0.6
				c0.1,0.7,0.2,1.3,0.3,1.9c0.2,1.2,0.3,2.5,0.2,3.7c-0.1,0.4-0.3,0.8-0.7,1c0,0.1,0,0.6,0,0.9c-6.5,0.6-12.5,3.5-17,8.2l-0.8-0.6
				c-0.4,0.1-0.8,0-1.2-0.1c-1-0.8-1.9-1.6-2.7-2.5c-0.4-0.5-0.9-1-1.3-1.4c-0.1-0.1-0.3-0.3-0.5-0.4c-0.1-0.1-0.2-0.2-0.4-0.3
				c-1-0.6-2.2-0.3-2.8,0.7c-0.6,1-0.3,2.2,0.7,2.8c0.1,0.1,0.3,0.3,0.4,0.4c0.5,0.4,1.1,0.7,1.7,1c1.1,0.6,2.1,1.3,3,2.1
				c0.3,0.3,0.4,0.7,0.4,1.2l0.7,0.7c-3.6,5.4-5.1,11.9-4.3,18.4l-0.8,0.2c-0.2,0.4-0.5,0.7-0.9,0.9c-1.2,0.3-2.4,0.5-3.7,0.6
				c-0.7,0-1.3,0.1-2,0.2c-0.2,0-0.4,0.1-0.6,0.1c-0.1,0-0.2,0-0.4,0.1c-1.1,0.4-1.7,1.5-1.3,2.6c0.4,1.1,1.5,1.7,2.6,1.3l0,0h0
				c0.2,0,0.4-0.1,0.5-0.1c0.6-0.2,1.2-0.4,1.8-0.7c1.2-0.5,2.3-0.8,3.6-1c0.4,0,0.8,0.1,1.1,0.4l0.9-0.2c2,6.2,6.1,11.5,11.7,14.8
				c-0.1,0.3-0.2,0.6-0.3,0.8c0.2,0.4,0.3,0.8,0.2,1.2c-0.5,1.1-1.1,2.2-1.8,3.2c-0.4,0.5-0.8,1.1-1.1,1.6c-0.1,0.2-0.2,0.4-0.3,0.5
				c-0.1,0.1-0.1,0.2-0.2,0.3c-0.4,1.1,0.1,2.2,1.2,2.6s2.2-0.1,2.6-1.2c0.1-0.2,0.2-0.4,0.3-0.5c0.2-0.6,0.4-1.2,0.6-1.9
				c0.4-1.2,0.8-2.3,1.4-3.4c0.3-0.3,0.6-0.6,1-0.6l0.4-0.8c6.1,2.3,12.8,2.3,18.9,0l0.5,0.8c0.3,0.1,0.6,0.2,0.9,0.4
				c0.7,0.9,1,2.3,1.6,3.7c0.2,0.6,0.4,1.3,0.6,1.9c0.1,0.2,0.2,0.4,0.3,0.5l0,0c0,0.1,0.1,0.2,0.2,0.3c0.6,1,1.8,1.3,2.8,0.7
				c1-0.6,1.3-1.8,0.7-2.8c-0.1-0.2-0.2-0.4-0.3-0.5c-0.3-0.6-0.7-1.1-1.1-1.6c-0.7-1.1-1.3-2.2-1.8-3.3c-0.1-0.4,0-0.8,0.2-1.2
				l-0.4-0.8c5.6-3.3,9.8-8.5,11.8-14.7l0.9,0.2c0.3-0.2,0.8-0.4,1.2-0.4c1.2,0.2,2.4,0.6,3.6,1c0.6,0.3,1.2,0.5,1.8,0.7l0.6,0.1h0
				l0,0c0.1,0,0.2,0.1,0.4,0.1c1.1,0.1,2.2-0.6,2.3-1.8c0.1-1.1-0.6-2.2-1.8-2.3h-0.1l-0.5-0.1c-0.7-0.1-1.3-0.1-2-0.2
				c-1.2-0.1-2.5-0.3-3.7-0.6c-0.4-0.2-0.7-0.5-0.9-0.9l-0.9-0.2c0.9-6.4-0.6-13-4.2-18.4l0.7-0.6c0-0.4,0.2-0.8,0.4-1.2
				c0.9-0.8,2-1.5,3.1-2.1c0.6-0.3,1.1-0.6,1.7-1c0.1-0.1,0.3-0.2,0.4-0.3l0,0c1-0.7,1.2-2,0.5-3c-0.4-0.5-1-0.8-1.6-0.7
				c-0.5,0-1,0.2-1.4,0.5c-0.1,0.1-0.3,0.3-0.5,0.4c-0.5,0.4-0.9,0.9-1.3,1.4c-0.8,0.9-1.8,1.7-2.8,2.5c-0.4,0.2-0.8,0.2-1.2,0.1
				l-0.7,0.5c-3.6-3.8-8.2-6.5-13.4-7.6c-1.2-0.3-2.4-0.5-3.7-0.6l0-0.9c-0.3-0.3-0.6-0.6-0.7-1.1c-0.1-1.2,0-2.5,0.2-3.7
				c0.1-0.6,0.2-1.3,0.3-1.9c0-0.1,0-0.4,0-0.5c0,0,0-0.1,0-0.1C591.7,390.6,590.8,389.6,589.6,389.5L589.6,389.5z M594.4,405.7
				c3.8,0.9,7.3,2.8,10.1,5.5l-8.8,6.2l0,0c-0.3,0.2-0.6,0.3-1,0.3c-1,0-1.8-0.7-1.9-1.7h0l-0.6-10.7
				C592.9,405.4,593.6,405.5,594.4,405.7z M586.5,416L586.5,416c0,0.4-0.1,0.8-0.4,1.1c-0.6,0.8-1.8,0.9-2.5,0.3l0,0l-8.7-6.2
				c3.3-3.3,7.6-5.3,12.2-5.9L586.5,416z M610.7,428.5l-10.3-3v0c-0.3-0.1-0.6-0.3-0.9-0.6c-0.7-0.7-0.6-1.9,0.2-2.5v0l8-7.2
				C610.1,419.2,611.2,423.9,610.7,428.5z M571.6,415.3L571.6,415.3l8,7.1l0,0c0.3,0.2,0.5,0.5,0.6,0.9c0.3,1-0.3,2-1.3,2.2v0
				l-10.3,3C568.1,423.9,569.2,419.2,571.6,415.3L571.6,415.3z M593.3,425.5l-0.7,3.2l-3,1.4l-3-1.4l-0.7-3.2l2-2.6h3.3L593.3,425.5
				z M580.8,431.7L580.8,431.7c0.2,0,0.4,0.1,0.6,0.1c0.9,0.4,1.3,1.5,1,2.4l0,0l-4.1,10c-4-2.5-6.9-6.3-8.5-10.7l10.6-1.8l0,0
				C580.5,431.7,580.6,431.7,580.8,431.7L580.8,431.7z M598.6,431.7L598.6,431.7c0.1,0,0.2,0,0.4,0l0,0l10.5,1.8
				c-1.6,4.4-4.6,8.1-8.5,10.6l-4.1-9.9v0c-0.1-0.2-0.1-0.4-0.1-0.7C596.8,432.5,597.6,431.7,598.6,431.7L598.6,431.7z M589.7,436.1
				c0.6,0,1.2,0.4,1.5,0.9l0,0l5.2,9.4c-3.7,1.3-7.7,1.5-11.5,0.6c-0.7-0.2-1.4-0.4-2.1-0.6l5.2-9.4h0
				C588.4,436.4,589,436,589.7,436.1L589.7,436.1z"/>
		</g>
		<line class="st13" x1="518.5" y1="359.6" x2="649.8" y2="359.6"/>
		<circle class="st16" cx="518.2" cy="342.5" r="3.3"/>
		<circle class="st16" cx="527.5" cy="342.5" r="3.3"/>
		<circle class="st16" cx="536.9" cy="342.5" r="3.3"/>
	</g>
	<g>
		<path id="path3055_2_" class="st16" d="M227.2,5.1c0.8,0,1.6,0.3,2.4,0.6L261.4,21c1.7,0.8,2.9,2.3,3.3,4.1l7.8,34.1
			c0.4,1.6,0.1,3.3-0.8,4.7c-0.1,0.2-0.2,0.3-0.3,0.5l-22,27.4c-1.2,1.4-2.9,2.3-4.8,2.2h-35.3c-1.8,0-3.6-0.8-4.8-2.3l-22-27.4
			c-1.2-1.4-1.6-3.3-1.2-5.1l7.9-34.2c0.4-1.8,1.6-3.3,3.3-4.1l31.8-15.2C225.2,5.3,226.2,5.1,227.2,5.1z"/>
		<path id="path3059_2_" class="st21" d="M226.9,16.8L226.9,16.8c-1.1,0.1-1.9,1-1.9,2.1c0,0.2,0,0.4,0,0.5c0.1,0.6,0.1,1.2,0.3,1.8
			c0.2,1.1,0.3,2.3,0.2,3.5c-0.1,0.4-0.3,0.7-0.6,0.9c0,0.1,0,0.6,0,0.8c-6,0.5-11.7,3.3-15.8,7.6l-0.7-0.5c-0.4,0.1-0.8,0-1.2-0.1
			c-0.9-0.7-1.7-1.5-2.5-2.4c-0.4-0.5-0.8-0.9-1.2-1.3c-0.1-0.1-0.3-0.2-0.4-0.3c-0.1-0.1-0.2-0.2-0.3-0.3c-0.9-0.6-2.1-0.3-2.6,0.6
			s-0.3,2.1,0.6,2.6c0.1,0.1,0.3,0.2,0.4,0.3c0.5,0.3,1,0.6,1.6,0.9c1,0.6,2,1.2,2.8,2c0.3,0.3,0.4,0.7,0.4,1.1l0.7,0.6
			c-3.4,5-4.8,11.1-4,17.1l-0.8,0.2c-0.2,0.3-0.5,0.6-0.8,0.8c-1.1,0.3-2.3,0.5-3.4,0.6c-0.6,0-1.2,0.1-1.8,0.1
			c-0.2,0-0.4,0.1-0.6,0.1c-0.1,0-0.2,0-0.3,0.1c-1,0.3-1.5,1.4-1.2,2.4c0.3,1,1.4,1.5,2.4,1.2l0,0h0c0.2,0,0.4-0.1,0.5-0.1
			c0.6-0.2,1.2-0.4,1.7-0.7c1.1-0.4,2.2-0.8,3.3-1c0.4,0,0.8,0.1,1.1,0.4l0.8-0.1c1.8,5.8,5.7,10.7,10.9,13.8
			c-0.1,0.3-0.2,0.5-0.3,0.8c0.2,0.3,0.3,0.8,0.2,1.1c-0.5,1.1-1,2.1-1.7,3c-0.4,0.5-0.7,1-1,1.5c-0.1,0.1-0.2,0.4-0.2,0.5
			c-0.1,0.1-0.1,0.2-0.1,0.3c-0.4,1,0.1,2.1,1.1,2.5c1,0.4,2.1-0.1,2.5-1.1c0.1-0.1,0.2-0.3,0.2-0.5c0.2-0.6,0.4-1.2,0.6-1.7
			c0.3-1.1,0.8-2.2,1.3-3.2c0.2-0.3,0.6-0.5,1-0.6l0.4-0.7c5.7,2.1,11.9,2.1,17.6,0l0.4,0.8c0.3,0,0.6,0.2,0.8,0.4
			c0.7,0.8,1,2.2,1.5,3.4c0.1,0.6,0.3,1.2,0.5,1.7c0.1,0.1,0.2,0.3,0.2,0.5l0,0c0,0.1,0.1,0.2,0.1,0.3c0.5,0.9,1.7,1.2,2.6,0.7
			c0.9-0.5,1.2-1.7,0.7-2.6c-0.1-0.1-0.2-0.4-0.2-0.5c-0.3-0.5-0.7-1-1-1.5c-0.7-1-1.3-2-1.7-3.1c-0.1-0.4,0-0.7,0.2-1.1l-0.3-0.7
			c5.2-3.1,9.1-8,11-13.7l0.8,0.1c0.3-0.2,0.7-0.4,1.1-0.4c1.1,0.2,2.2,0.5,3.3,1c0.6,0.2,1.1,0.4,1.7,0.6l0.5,0.1h0l0,0
			c0.1,0,0.2,0.1,0.3,0.1c1,0.1,2-0.6,2.1-1.6s-0.6-2-1.6-2.1h-0.1l-0.5-0.1c-0.6-0.1-1.2-0.1-1.8-0.1c-1.2-0.1-2.3-0.3-3.4-0.6
			c-0.3-0.2-0.6-0.5-0.8-0.8l-0.8-0.2c0.9-6-0.5-12.1-3.9-17.2l0.6-0.5c0-0.4,0.2-0.8,0.4-1.1c0.9-0.7,1.8-1.4,2.9-2
			c0.5-0.3,1.1-0.6,1.6-0.9c0.1-0.1,0.3-0.2,0.4-0.3l0,0c0.9-0.6,1.1-1.9,0.5-2.8c-0.4-0.5-0.9-0.7-1.5-0.7c-0.5,0-0.9,0.2-1.3,0.5
			c-0.1,0.1-0.3,0.2-0.4,0.3c-0.4,0.4-0.9,0.9-1.2,1.3c-0.8,0.9-1.6,1.6-2.6,2.3c-0.3,0.2-0.8,0.2-1.1,0.1l-0.7,0.5
			c-3.4-3.6-7.7-6-12.5-7.1c-1.1-0.3-2.3-0.4-3.4-0.5l0-0.8c-0.3-0.3-0.5-0.6-0.6-1c-0.1-1.2,0-2.3,0.2-3.5c0.1-0.6,0.2-1.2,0.3-1.8
			c0-0.1,0-0.3,0-0.5c0,0,0,0,0,0C228.8,17.8,228,16.9,226.9,16.8L226.9,16.8z M231.3,31.9c3.6,0.8,6.8,2.6,9.5,5.1l-8.2,5.8l0,0
			c-0.3,0.2-0.6,0.3-0.9,0.3c-0.9,0-1.7-0.7-1.8-1.6h0l-0.6-10C230,31.6,230.7,31.7,231.3,31.9z M224,41.5L224,41.5
			c0,0.4-0.1,0.7-0.4,1c-0.6,0.7-1.6,0.8-2.4,0.3l0,0l-8.1-5.8c3.1-3,7.1-5,11.4-5.5L224,41.5z M246.5,53.2l-9.6-2.8v0
			c-0.3-0.1-0.6-0.3-0.8-0.5c-0.6-0.7-0.5-1.8,0.2-2.4v0l7.5-6.7C246,44.5,247,48.9,246.5,53.2z M210.1,40.8L210.1,40.8l7.4,6.7l0,0
			c0.2,0.2,0.4,0.5,0.5,0.8c0.2,0.9-0.3,1.8-1.2,2.1v0l-9.6,2.8C206.8,48.8,207.8,44.5,210.1,40.8L210.1,40.8z M230.4,50.4l-0.6,3
			l-2.8,1.3l-2.8-1.3l-0.7-3l1.9-2.4h3.1L230.4,50.4z M218.6,56.2L218.6,56.2c0.2,0,0.4,0.1,0.6,0.1c0.9,0.4,1.3,1.4,0.9,2.2l0,0
			l-3.8,9.3c-3.7-2.4-6.5-5.9-7.9-10l9.9-1.7l0,0C218.4,56.1,218.5,56.1,218.6,56.2L218.6,56.2z M235.3,56.2L235.3,56.2
			c0.1,0,0.2,0,0.3,0l0,0l9.8,1.7c-1.5,4.1-4.2,7.5-7.9,9.9l-3.8-9.2v0c-0.1-0.2-0.1-0.4-0.1-0.6C233.6,56.9,234.4,56.2,235.3,56.2
			L235.3,56.2z M227,60.2c0.6,0,1.1,0.3,1.4,0.8l0,0l4.8,8.7c-3.5,1.2-7.2,1.4-10.8,0.6c-0.7-0.1-1.3-0.3-1.9-0.5l4.8-8.7h0
			C225.7,60.5,226.3,60.2,227,60.2L227,60.2z"/>
	</g>
	<line class="st13" x1="468.4" y1="204" x2="599.7" y2="204"/>
	<circle class="st16" cx="468.1" cy="186.9" r="3.3"/>
	<circle class="st16" cx="477.4" cy="186.9" r="3.3"/>
	<circle class="st16" cx="486.8" cy="186.9" r="3.3"/>
	<g>
		<polygon class="st14" points="680.9,333 680.9,352.9 658.4,371.2 658.4,351.3 		"/>
		<polygon class="st14" points="658.4,314.8 680.9,333 658.4,351.3 613.5,351.3 591.1,333 613.5,314.8 		"/>
		<polygon class="st24" points="615.7,345.1 600.9,333 615.7,320.9 656.2,320.9 671.1,333 656.2,345.1 		"/>
		<polygon class="st15" points="613.5,351.3 613.5,371.2 591.1,352.9 591.1,333 		"/>
		<rect x="613.5" y="351.3" class="st14" width="44.9" height="19.9"/>
	</g>
	<g>
		<polygon class="st14" points="583.9,180.2 583.9,190.4 572.3,199.9 572.3,189.6 		"/>
		<polygon class="st14" points="572.3,170.7 583.9,180.2 572.3,189.6 549.1,189.6 537.5,180.2 549.1,170.7 		"/>
		<polygon class="st24" points="550.3,186.4 542.6,180.2 550.3,173.9 571.2,173.9 578.9,180.2 571.2,186.4 		"/>
		<polygon class="st15" points="549.1,189.6 549.1,199.9 537.5,190.4 537.5,180.2 		"/>
		<rect x="549.1" y="189.6" class="st14" width="23.2" height="10.3"/>
	</g>
	<g>
		<polyline class="st15" points="654.1,158.4 654.1,171.3 643.1,164.8 643.1,151.9 		"/>
		<polygon class="st14" points="654.1,171.3 665.3,164.8 665.3,151.9 654.1,158.4 		"/>
		<polygon class="st14" points="654.1,158.4 665.3,151.9 654.3,145.5 643.1,151.9 		"/>
	</g>
</g>
</svg>
